{
.appVersion = "983";
copyright = "Copyright © 2018 by Cadson Demak Co.,Ltd.. All rights reserved.";
customParameters = (
{
name = vendorID;
value = CDK;
},
{
name = description;
value = "Copyright (c) 2018, Cadson Demak (info@cadsondemak.com)";
},
{
name = license;

glyphs = (
{
glyphname = A;
lastChange = "2018-01-19 11:54:26 +0000";
layers = (
{
background = {
paths = (
{
closed = 1;
nodes = (
"390 700 LINE",
"312 700 LINE",
"32 0 LINE",
"106 0 LINE",
"351 613 LINE",
"596 0 LINE",
"670 0 LINE"
);
}
);
};
layerId = "0B1DFD06-3317-40CA-B510-4969A0718C16";
paths = (
{
closed = 1;
nodes = (
"172 194 LINE",
"555 194 LINE",
"555 256 LINE",
"172 256 LINE"
);
},
{
closed = 1;
nodes = (
"391 693 OFFCURVE",
"369 706 OFFCURVE",
"318 706 CURVE",
"35 0 LINE",
"109 0 LINE",
"351 615 LINE",
"593 0 LINE",
"667 0 LINE",
"409 648 LINE SMOOTH"
);
}
);
width = 702;
}
);
note = A;
unicode = 0041;
},
{
glyphname = B;
lastChange = "2018-01-22 09:09:38 +0000";
layers = (
{
background = {
paths = (
{
closed = 1;
nodes = (
"484 0 LINE SMOOTH",
"583 0 OFFCURVE",
"664 102 OFFCURVE",
"664 199 CURVE SMOOTH",
"664 277 OFFCURVE",
"611 361 OFFCURVE",
"539 388 CURVE",
"573 424 OFFCURVE",
"595 466 OFFCURVE",
"595 516 CURVE SMOOTH",
"595 613 OFFCURVE",
"514 700 OFFCURVE",
"415 700 CURVE SMOOTH",
"75 700 LINE",
"75 65 LINE SMOOTH",
"75 31 OFFCURVE",
"103 0 OFFCURVE",
"137 0 CURVE SMOOTH"
);
},
{
closed = 1;
nodes = (
"141 59 LINE",
"141 336 LINE",
"484 336 LINE SMOOTH",
"545 336 OFFCURVE",
"595 259 OFFCURVE",
"595 199 CURVE SMOOTH",
"595 139 OFFCURVE",
"545 59 OFFCURVE",
"484 59 CURVE SMOOTH"
);
},
{
closed = 1;
nodes = (
"415 641 LINE SMOOTH",
"476 641 OFFCURVE",
"526 576 OFFCURVE",
"526 516 CURVE SMOOTH",
"526 455 OFFCURVE",
"476 395 OFFCURVE",
"415 395 CURVE SMOOTH",
"141 395 LINE",
"141 641 LINE"
);
}
);
};
layerId = "0B1DFD06-3317-40CA-B510-4969A0718C16";
paths = (
{
closed = 1;
nodes = (
"427 0 LINE SMOOTH",
"546 0 OFFCURVE",
"625 72 OFFCURVE",
"625 181 CURVE SMOOTH",
"625 229 LINE SMOOTH",
"625 295 OFFCURVE",
"580 349 OFFCURVE",
"513 367 CURVE",
"553 393 OFFCURVE",
"576 441 OFFCURVE",
"576 492 CURVE SMOOTH",
"576 545 LINE SMOOTH",
"576 638 OFFCURVE",
"497 700 OFFCURVE",
"378 700 CURVE SMOOTH",
"75 700 LINE",
"75 65 LINE SMOOTH",
"75 24 OFFCURVE",
"99 0 OFFCURVE",
"140 0 CURVE SMOOTH"
);
},
{
closed = 1;
nodes = (
"144 62 LINE",
"144 323 LINE",
"437 323 LINE SMOOTH",
"507 323 OFFCURVE",
"554 285 OFFCURVE",
"554 229 CURVE SMOOTH",
"554 181 LINE SMOOTH",
"554 108 OFFCURVE",
"499 62 OFFCURVE",
"417 62 CURVE SMOOTH"
);
},
{
closed = 1;
nodes = (
"378 638 LINE SMOOTH",
"455 638 OFFCURVE",
"507 601 OFFCURVE",
"507 545 CURVE SMOOTH",
"507 492 LINE SMOOTH",
"507 425 OFFCURVE",
"463 381 OFFCURVE",
"398 381 CURVE SMOOTH",
"144 381 LINE",
"144 638 LINE"
);
}
);
width = 670;
}
);
note = B;
unicode = 0042;
},
{
glyphname = C;
lastChange = "2018-01-22 09:23:04 +0000";
layers = (
{
background = {
paths = (
{
closed = 1;
nodes = (
"628 491 LINE",
"628 619 OFFCURVE",
"527 715 OFFCURVE",
"409 715 CURVE SMOOTH",
"330 715 LINE SMOOTH",
"176 715 OFFCURVE",
"61 578 OFFCURVE",
"61 421 CURVE SMOOTH",
"61 228 LINE SMOOTH",
"61 102 OFFCURVE",
"153 -15 OFFCURVE",
"279 -15 CURVE SMOOTH",
"362 -15 LINE SMOOTH",
"514 -15 OFFCURVE",
"630 93 OFFCURVE",
"630 249 CURVE",
"564 249 LINE",
"564 134 OFFCURVE",
"477 44 OFFCURVE",
"362 44 CURVE SMOOTH",
"279 44 LINE SMOOTH",
"190 44 OFFCURVE",
"127 139 OFFCURVE",
"127 228 CURVE SMOOTH",
"127 421 LINE SMOOTH",
"127 541 OFFCURVE",
"213 656 OFFCURVE",
"330 656 CURVE SMOOTH",
"409 656 LINE SMOOTH",
"501 656 OFFCURVE",
"561 578 OFFCURVE",
"561 491 CURVE"
);
}
);
};
layerId = "0B1DFD06-3317-40CA-B510-4969A0718C16";
paths = (
{
closed = 1;
nodes = (
"275 56 LINE SMOOTH",
"184 56 OFFCURVE",
"129 132 OFFCURVE",
"129 223 CURVE SMOOTH",
"129 417 LINE SMOOTH",
"129 538 OFFCURVE",
"210 644 OFFCURVE",
"325 644 CURVE SMOOTH",
"425 644 LINE SMOOTH",
"508 644 OFFCURVE",
"565 579 OFFCURVE",
"565 482 CURVE",
"632 482 LINE",
"632 616 OFFCURVE",
"549 706 OFFCURVE",
"425 706 CURVE SMOOTH",
"325 706 LINE SMOOTH",
"171 706 OFFCURVE",
"60 569 OFFCURVE",
"60 417 CURVE SMOOTH",
"60 223 LINE SMOOTH",
"60 101 OFFCURVE",
"152 -6 OFFCURVE",
"275 -6 CURVE SMOOTH",
"375 -6 LINE SMOOTH",
"529 -6 OFFCURVE",
"634 96 OFFCURVE",
"634 248 CURVE",
"567 248 LINE",
"567 133 OFFCURVE",
"488 56 OFFCURVE",
"375 56 CURVE SMOOTH"
);
}
);
width = 694;
}
);
note = C;
unicode = 0043;
},
{
glyphname = D;
lastChange = "2018-01-19 11:54:26 +0000";
layers = (
{
layerId = "0B1DFD06-3317-40CA-B510-4969A0718C16";
paths = (
{
closed = 1;
nodes = (
"376 0 LINE SMOOTH",
"551 0 OFFCURVE",
"624 104 OFFCURVE",
"624 280 CURVE SMOOTH",
"624 470 LINE SMOOTH",
"624 608 OFFCURVE",
"524 700 OFFCURVE",
"374 700 CURVE SMOOTH",
"75 700 LINE",
"75 65 LINE SMOOTH",
"75 24 OFFCURVE",
"99 0 OFFCURVE",
"140 0 CURVE SMOOTH"
);
},
{
closed = 1;
nodes = (
"144 638 LINE",
"374 638 LINE SMOOTH",
"483 638 OFFCURVE",
"555 570 OFFCURVE",
"555 470 CURVE SMOOTH",
"555 280 LINE SMOOTH",
"555 144 OFFCURVE",
"507 62 OFFCURVE",
"376 62 CURVE SMOOTH",
"144 62 LINE"
);
}
);
width = 684;
}
);
note = D;
unicode = 0044;
},
{
glyphname = E;
lastChange = "2018-01-19 11:54:26 +0000";
layers = (
{
layerId = "0B1DFD06-3317-40CA-B510-4969A0718C16";
paths = (
{
closed = 1;
nodes = (
"75 700 LINE",
"555 700 LINE",
"555 638 LINE",
"144 638 LINE",
"144 389 LINE",
"515 389 LINE",
"515 328 LINE",
"144 328 LINE",
"144 62 LINE",
"555 62 LINE",
"555 0 LINE",
"140 0 LINE SMOOTH",
"99 0 OFFCURVE",
"75 25 OFFCURVE",
"75 66 CURVE SMOOTH"
);
}
);
width = 600;
}
);
note = E;
unicode = 0045;
},
{
glyphname = F;
lastChange = "2018-01-19 11:54:26 +0000";
layers = (
{
layerId = "0B1DFD06-3317-40CA-B510-4969A0718C16";
paths = (
{
closed = 1;
nodes = (
"503 313 LINE",
"503 375 LINE",
"144 375 LINE",
"144 638 LINE",
"540 638 LINE",
"540 700 LINE",
"75 700 LINE",
"75 0 LINE",
"144 0 LINE",
"144 313 LINE"
);
}
);
width = 575;
}
);
note = F;
unicode = 0046;
},
{
glyphname = G;
lastChange = "2018-01-19 11:54:26 +0000";
layers = (
{
background = {
paths = (
{
closed = 1;
nodes = (
"358 249 LINE",
"556 249 LINE",
"556 133 OFFCURVE",
"479 56 OFFCURVE",
"364 56 CURVE SMOOTH",
"265 56 LINE SMOOTH",
"174 56 OFFCURVE",
"119 132 OFFCURVE",
"119 223 CURVE SMOOTH",
"119 417 LINE SMOOTH",
"119 538 OFFCURVE",
"198 644 OFFCURVE",
"315 644 CURVE SMOOTH",
"414 644 LINE SMOOTH",
"497 644 OFFCURVE",
"553 579 OFFCURVE",
"553 482 CURVE",
"620 482 LINE",
"620 616 OFFCURVE",
"538 706 OFFCURVE",
"414 706 CURVE SMOOTH",
"315 706 LINE SMOOTH",
"161 706 OFFCURVE",
"50 569 OFFCURVE",
"50 417 CURVE SMOOTH",
"50 223 LINE SMOOTH",
"50 101 OFFCURVE",
"142 -6 OFFCURVE",
"265 -6 CURVE SMOOTH",
"364 -6 LINE SMOOTH",
"519 -6 OFFCURVE",
"622 96 OFFCURVE",
"622 249 CURVE SMOOTH",
"622 311 LINE",
"358 311 LINE"
);
}
);
};
layerId = "0B1DFD06-3317-40CA-B510-4969A0718C16";
paths = (
{
closed = 1;
nodes = (
"360 294 LINE",
"557 294 LINE",
"557 249 LINE SMOOTH",
"557 133 OFFCURVE",
"481 56 OFFCURVE",
"366 56 CURVE SMOOTH",
"266 56 LINE SMOOTH",
"175 56 OFFCURVE",
"119 132 OFFCURVE",
"119 223 CURVE SMOOTH",
"119 417 LINE SMOOTH",
"119 538 OFFCURVE",
"199 644 OFFCURVE",
"316 644 CURVE SMOOTH",
"416 644 LINE SMOOTH",
"499 644 OFFCURVE",
"554 579 OFFCURVE",
"554 482 CURVE",
"622 482 LINE",
"622 616 OFFCURVE",
"540 706 OFFCURVE",
"416 706 CURVE SMOOTH",
"316 706 LINE SMOOTH",
"162 706 OFFCURVE",
"50 569 OFFCURVE",
"50 417 CURVE SMOOTH",
"50 223 LINE SMOOTH",
"50 101 OFFCURVE",
"143 -6 OFFCURVE",
"266 -6 CURVE SMOOTH",
"366 -6 LINE SMOOTH",
"521 -6 OFFCURVE",
"624 96 OFFCURVE",
"624 249 CURVE SMOOTH",
"624 356 LINE",
"360 356 LINE"
);
}
);
width = 674;
}
);
note = G;
unicode = 0047;
},
{
glyphname = H;
lastChange = "2018-01-22 09:21:13 +0000";
layers = (
{
layerId = "0B1DFD06-3317-40CA-B510-4969A0718C16";
paths = (
{
closed = 1;
nodes = (
"536 0 LINE",
"605 0 LINE",
"605 700 LINE",
"536 700 LINE",
"536 394 LINE",
"143 394 LINE",
"143 700 LINE",
"75 700 LINE",
"75 0 LINE",
"143 0 LINE",
"143 332 LINE",
"536 332 LINE"
);
}
);
width = 680;
}
);
note = H;
unicode = 0048;
},
{
glyphname = I;
lastChange = "2018-01-19 11:54:26 +0000";
layers = (
{
layerId = "0B1DFD06-3317-40CA-B510-4969A0718C16";
paths = (
{
closed = 1;
nodes = (
"80 0 LINE",
"149 0 LINE",
"149 700 LINE",
"80 700 LINE"
);
}
);
width = 229;
}
);
note = I;
unicode = 0049;
},
{
glyphname = J;
lastChange = "2018-01-19 11:54:26 +0000";
layers = (
{
background = {
paths = (
{
closed = 1;
nodes = (
"70 228 LINE",
"70 102 OFFCURVE",
"171 -15 OFFCURVE",
"298 -15 CURVE SMOOTH",
"450 -15 OFFCURVE",
"536 93 OFFCURVE",
"536 249 CURVE SMOOTH",
"536 700 LINE",
"470 700 LINE",
"470 249 LINE SMOOTH",
"470 134 OFFCURVE",
"423 46 OFFCURVE",
"298 46 CURVE SMOOTH",
"208 46 OFFCURVE",
"136 129 OFFCURVE",
"136 228 CURVE"
);
}
);
};
layerId = "0B1DFD06-3317-40CA-B510-4969A0718C16";
paths = (
{
closed = 1;
nodes = (
"45 86 OFFCURVE",
"135 -6 OFFCURVE",
"259 -6 CURVE SMOOTH",
"310 -6 LINE SMOOTH",
"465 -6 OFFCURVE",
"546 96 OFFCURVE",
"546 249 CURVE SMOOTH",
"546 700 LINE",
"477 700 LINE",
"477 249 LINE SMOOTH",
"477 133 OFFCURVE",
"425 56 OFFCURVE",
"310 56 CURVE SMOOTH",
"259 56 LINE SMOOTH",
"170 56 OFFCURVE",
"113 118 OFFCURVE",
"103 223 CURVE",
"34 223 LINE"
);
}
);
width = 606;
}
);
note = J;
unicode = 004A;
},
{
glyphname = K;
lastChange = "2018-01-22 09:15:14 +0000";
layers = (
{
background = {
paths = (
{
closed = 1;
nodes = (
"583 0 LINE",
"468 269 LINE SMOOTH",
"442 329 OFFCURVE",
"387 369 OFFCURVE",
"209 369 CURVE",
"583 700 LINE",
"483 700 LINE",
"144 394 LINE",
"144 700 LINE",
"75 700 LINE",
"75 0 LINE",
"144 0 LINE",
"144 324 LINE",
"278 324 OFFCURVE",
"359 319 OFFCURVE",
"382 262 CURVE SMOOTH",
"490 0 LINE"
);
}
);
};
layerId = "0B1DFD06-3317-40CA-B510-4969A0718C16";
paths = (
{
closed = 1;
nodes = (
"622 0 LINE",
"316 353 LINE",
"600 700 LINE",
"516 700 LINE",
"256 383 LINE",
"144 383 LINE",
"144 700 LINE",
"75 700 LINE",
"75 0 LINE",
"144 0 LINE",
"144 321 LINE",
"256 321 LINE",
"533 0 LINE"
);
}
);
width = 652;
}
);
note = K;
unicode = 004B;
},
{
glyphname = L;
lastChange = "2018-01-19 11:54:26 +0000";
layers = (
{
layerId = "0B1DFD06-3317-40CA-B510-4969A0718C16";
paths = (
{
closed = 1;
nodes = (
"77 65 LINE SMOOTH",
"77 24 OFFCURVE",
"101 0 OFFCURVE",
"142 0 CURVE SMOOTH",
"518 0 LINE",
"518 62 LINE",
"146 62 LINE",
"146 700 LINE",
"77 700 LINE"
);
}
);
width = 553;
}
);
note = L;
unicode = 004C;
},
{
glyphname = M;
lastChange = "2018-01-19 11:54:26 +0000";
layers = (
{
background = {
paths = (
{
closed = 1;
nodes = (
"730 700 LINE",
"663 700 LINE",
"397 238 LINE",
"131 701 LINE",
"65 701 LINE",
"65 0 LINE",
"133 0 LINE",
"133 574 LINE",
"397 122 LINE",
"661 574 LINE",
"661 0 LINE",
"730 0 LINE"
);
}
);
};
layerId = "0B1DFD06-3317-40CA-B510-4969A0718C16";
paths = (
{
closed = 1;
nodes = (
"413 143 OFFCURVE",
"432 157 OFFCURVE",
"450 191 CURVE SMOOTH",
"655 574 LINE",
"655 0 LINE",
"724 0 LINE",
"724 700 LINE",
"657 700 LINE",
"403 226 LINE",
"141 701 LINE",
"75 701 LINE",
"75 0 LINE",
"143 0 LINE",
"143 574 LINE",
"383 143 LINE"
);
}
);
width = 799;
}
);
note = M;
unicode = 004D;
},
{
glyphname = N;
lastChange = "2018-01-19 11:54:26 +0000";
layers = (
{
layerId = "0B1DFD06-3317-40CA-B510-4969A0718C16";
paths = (
{
closed = 1;
nodes = (
"142 701 LINE",
"75 701 LINE",
"75 0 LINE",
"144 0 LINE",
"144 588 LINE",
"542 0 LINE",
"609 0 LINE",
"609 701 LINE",
"540 701 LINE",
"540 113 LINE"
);
}
);
width = 684;
}
);
note = N;
unicode = 004E;
},
{
glyphname = O;
lastChange = "2018-01-22 09:23:07 +0000";
layers = (
{
layerId = "0B1DFD06-3317-40CA-B510-4969A0718C16";
paths = (
{
closed = 1;
nodes = (
"125 417 LINE SMOOTH",
"125 538 OFFCURVE",
"205 644 OFFCURVE",
"322 644 CURVE SMOOTH",
"426 644 LINE SMOOTH",
"517 644 OFFCURVE",
"575 568 OFFCURVE",
"575 477 CURVE SMOOTH",
"575 283 LINE SMOOTH",
"575 162 OFFCURVE",
"497 56 OFFCURVE",
"378 56 CURVE SMOOTH",
"272 56 LINE SMOOTH",
"181 56 OFFCURVE",
"125 132 OFFCURVE",
"125 223 CURVE SMOOTH"
);
},
{
closed = 1;
nodes = (
"56 101 OFFCURVE",
"149 -6 OFFCURVE",
"272 -6 CURVE SMOOTH",
"378 -6 LINE SMOOTH",
"534 -6 OFFCURVE",
"644 131 OFFCURVE",
"644 283 CURVE SMOOTH",
"644 477 LINE SMOOTH",
"644 599 OFFCURVE",
"554 706 OFFCURVE",
"426 706 CURVE SMOOTH",
"322 706 LINE SMOOTH",
"168 706 OFFCURVE",
"56 569 OFFCURVE",
"56 417 CURVE SMOOTH",
"56 223 LINE SMOOTH"
);
}
);
width = 702;
}
);
note = O;
unicode = 004F;
},
{
glyphname = P;
lastChange = "2018-01-22 09:16:51 +0000";
layers = (
{
layerId = "0B1DFD06-3317-40CA-B510-4969A0718C16";
paths = (
{
closed = 1;
nodes = (
"432 638 LINE SMOOTH",
"492 638 OFFCURVE",
"532 601 OFFCURVE",
"532 545 CURVE SMOOTH",
"532 452 LINE SMOOTH",
"532 381 OFFCURVE",
"474 333 OFFCURVE",
"387 333 CURVE SMOOTH",
"144 333 LINE",
"144 638 LINE"
);
},
{
closed = 1;
nodes = (
"515 271 OFFCURVE",
"601 343 OFFCURVE",
"601 451 CURVE SMOOTH",
"601 541 LINE SMOOTH",
"601 636 OFFCURVE",
"533 700 OFFCURVE",
"432 700 CURVE SMOOTH",
"75 700 LINE",
"75 0 LINE",
"144 0 LINE",
"144 271 LINE",
"387 271 LINE SMOOTH"
);
}
);
width = 631;
}
);
note = P;
unicode = 0050;
},
{
glyphname = Q;
lastChange = "2018-01-19 11:54:26 +0000";
layers = (
{
background = {
paths = (
{
closed = 1;
nodes = (
"119 417 LINE SMOOTH",
"119 538 OFFCURVE",
"198 644 OFFCURVE",
"315 644 CURVE SMOOTH",
"414 644 LINE SMOOTH",
"505 644 OFFCURVE",
"560 568 OFFCURVE",
"560 477 CURVE SMOOTH",
"560 283 LINE SMOOTH",
"560 162 OFFCURVE",
"481 56 OFFCURVE",
"364 56 CURVE SMOOTH",
"265 56 LINE SMOOTH",
"174 56 OFFCURVE",
"119 132 OFFCURVE",
"119 223 CURVE SMOOTH"
);
},
{
closed = 1;
nodes = (
"50 101 OFFCURVE",
"142 -6 OFFCURVE",
"265 -6 CURVE SMOOTH",
"364 -6 LINE SMOOTH",
"518 -6 OFFCURVE",
"629 131 OFFCURVE",
"629 283 CURVE SMOOTH",
"629 477 LINE SMOOTH",
"629 599 OFFCURVE",
"542 706 OFFCURVE",
"414 706 CURVE SMOOTH",
"315 706 LINE SMOOTH",
"161 706 OFFCURVE",
"50 569 OFFCURVE",
"50 417 CURVE SMOOTH",
"50 223 LINE SMOOTH"
);
},
{
closed = 1;
nodes = (
"605 -24 LINE",
"650 21 LINE",
"426 250 LINE",
"381 205 LINE"
);
}
);
};
layerId = "0B1DFD06-3317-40CA-B510-4969A0718C16";
paths = (
{
closed = 1;
nodes = (
"119 417 LINE SMOOTH",
"119 538 OFFCURVE",
"199 644 OFFCURVE",
"316 644 CURVE SMOOTH",
"418 644 LINE SMOOTH",
"509 644 OFFCURVE",
"565 568 OFFCURVE",
"565 477 CURVE SMOOTH",
"565 283 LINE SMOOTH",
"565 162 OFFCURVE",
"485 56 OFFCURVE",
"368 56 CURVE SMOOTH",
"266 56 LINE SMOOTH",
"175 56 OFFCURVE",
"119 132 OFFCURVE",
"119 223 CURVE SMOOTH"
);
},
{
closed = 1;
nodes = (
"50 101 OFFCURVE",
"143 -6 OFFCURVE",
"266 -6 CURVE SMOOTH",
"368 -6 LINE SMOOTH",
"522 -6 OFFCURVE",
"634 131 OFFCURVE",
"634 283 CURVE SMOOTH",
"634 477 LINE SMOOTH",
"634 599 OFFCURVE",
"546 706 OFFCURVE",
"418 706 CURVE SMOOTH",
"316 706 LINE SMOOTH",
"162 706 OFFCURVE",
"50 569 OFFCURVE",
"50 417 CURVE SMOOTH",
"50 223 LINE SMOOTH"
);
},
{
closed = 1;
nodes = (
"609 -24 LINE",
"654 21 LINE",
"430 250 LINE",
"385 205 LINE"
);
}
);
width = 684;
}
);
note = Q;
unicode = 0051;
},
{
glyphname = R;
lastChange = "2018-01-22 09:21:33 +0000";
layers = (
{
background = {
paths = (
{
closed = 1;
nodes = (
"76 0 LINE",
"145 0 LINE",
"145 302 LINE",
"238 302 LINE SMOOTH",
"328 302 OFFCURVE",
"356 260 OFFCURVE",
"391 207 CURVE SMOOTH",
"528 0 LINE",
"606 0 LINE",
"471 207 LINE SMOOTH",
"444 249 OFFCURVE",
"421 280 OFFCURVE",
"381 304 CURVE",
"392 304 LINE SMOOTH",
"492 304 OFFCURVE",
"576 386 OFFCURVE",
"576 503 CURVE SMOOTH",
"576 621 OFFCURVE",
"498 700 OFFCURVE",
"382 700 CURVE SMOOTH",
"76 700 LINE"
);
},
{
closed = 1;
nodes = (
"382 638 LINE SMOOTH",
"456 638 OFFCURVE",
"505 584 OFFCURVE",
"505 503 CURVE SMOOTH",
"505 420 OFFCURVE",
"456 364 OFFCURVE",
"382 364 CURVE SMOOTH",
"145 364 LINE",
"145 638 LINE"
);
}
);
};
layerId = "0B1DFD06-3317-40CA-B510-4969A0718C16";
paths = (
{
closed = 1;
nodes = (
"75 700 LINE",
"75 0 LINE",
"144 0 LINE",
"144 298 LINE",
"361 298 LINE SMOOTH",
"422 298 OFFCURVE",
"471 254 OFFCURVE",
"491 187 CURVE SMOOTH",
"546 0 LINE",
"620 0 LINE",
"565 187 LINE SMOOTH",
"546 250 OFFCURVE",
"522 290 OFFCURVE",
"464 314 CURVE",
"535 334 OFFCURVE",
"588 384 OFFCURVE",
"588 469 CURVE SMOOTH",
"588 541 LINE SMOOTH",
"588 636 OFFCURVE",
"520 700 OFFCURVE",
"419 700 CURVE SMOOTH"
);
},
{
closed = 1;
nodes = (
"479 638 OFFCURVE",
"519 601 OFFCURVE",
"519 545 CURVE SMOOTH",
"519 469 LINE SMOOTH",
"519 407 OFFCURVE",
"473 360 OFFCURVE",
"394 360 CURVE SMOOTH",
"144 360 LINE",
"144 638 LINE",
"419 638 LINE SMOOTH"
);
}
);
width = 650;
}
);
note = R;
unicode = 0052;
},
{
glyphname = S;
lastChange = "2018-01-19 11:54:26 +0000";
layers = (
{
background = {
paths = (
{
closed = 1;
nodes = (
"50 225 LINE",
"50 90 OFFCURVE",
"134 0 OFFCURVE",
"260 0 CURVE SMOOTH",
"372 0 LINE SMOOTH",
"503 0 OFFCURVE",
"591 72 OFFCURVE",
"591 181 CURVE SMOOTH",
"591 203 LINE SMOOTH",
"591 271 OFFCURVE",
"572 348 OFFCURVE",
"433 372 CURVE SMOOTH",
"220 409 LINE SMOOTH",
"141 423 OFFCURVE",
"129 468 OFFCURVE",
"129 492 CURVE SMOOTH",
"129 516 LINE SMOOTH",
"129 589 OFFCURVE",
"183 643 OFFCURVE",
"248 643 CURVE SMOOTH",
"382 643 LINE SMOOTH",
"456 643 OFFCURVE",
"505 582 OFFCURVE",
"505 498 CURVE",
"572 498 LINE",
"572 619 OFFCURVE",
"496 705 OFFCURVE",
"382 705 CURVE SMOOTH",
"248 705 LINE SMOOTH",
"141 705 OFFCURVE",
"60 626 OFFCURVE",
"60 516 CURVE SMOOTH",
"60 492 LINE SMOOTH",
"60 443 OFFCURVE",
"79 365 OFFCURVE",
"210 343 CURVE SMOOTH",
"426 306 LINE SMOOTH",
"511 291 OFFCURVE",
"522 249 OFFCURVE",
"522 203 CURVE SMOOTH",
"522 181 LINE SMOOTH",
"522 110 OFFCURVE",
"462 62 OFFCURVE",
"372 62 CURVE SMOOTH",
"260 62 LINE SMOOTH",
"174 62 OFFCURVE",
"117 127 OFFCURVE",
"117 225 CURVE"
);
}
);
};
layerId = "0B1DFD06-3317-40CA-B510-4969A0718C16";
paths = (
{
closed = 1;
nodes = (
"50 225 LINE",
"50 90 OFFCURVE",
"134 0 OFFCURVE",
"260 0 CURVE SMOOTH",
"372 0 LINE SMOOTH",
"503 0 OFFCURVE",
"591 70 OFFCURVE",
"591 179 CURVE SMOOTH",
"591 203 LINE SMOOTH",
"591 305 OFFCURVE",
"543 354 OFFCURVE",
"423 374 CURVE SMOOTH",
"220 409 LINE SMOOTH",
"141 423 OFFCURVE",
"129 468 OFFCURVE",
"129 492 CURVE SMOOTH",
"129 516 LINE SMOOTH",
"129 589 OFFCURVE",
"183 643 OFFCURVE",
"248 643 CURVE SMOOTH",
"382 643 LINE SMOOTH",
"456 643 OFFCURVE",
"505 582 OFFCURVE",
"505 498 CURVE",
"572 498 LINE",
"572 619 OFFCURVE",
"496 705 OFFCURVE",
"382 705 CURVE SMOOTH",
"248 705 LINE SMOOTH",
"141 705 OFFCURVE",
"60 626 OFFCURVE",
"60 516 CURVE SMOOTH",
"60 492 LINE SMOOTH",
"60 443 OFFCURVE",
"79 365 OFFCURVE",
"210 343 CURVE SMOOTH",
"416 308 LINE SMOOTH",
"492 297 OFFCURVE",
"522 267 OFFCURVE",
"522 203 CURVE SMOOTH",
"522 179 LINE SMOOTH",
"522 108 OFFCURVE",
"462 62 OFFCURVE",
"372 62 CURVE SMOOTH",
"260 62 LINE SMOOTH",
"174 62 OFFCURVE",
"117 127 OFFCURVE",
"117 225 CURVE"
);
}
);
width = 636;
}
);
note = S;
unicode = 0053;
},
{
glyphname = T;
lastChange = "2018-01-19 11:54:26 +0000";
layers = (
{
layerId = "0B1DFD06-3317-40CA-B510-4969A0718C16";
paths = (
{
closed = 1;
nodes = (
"262 0 LINE",
"331 0 LINE",
"331 638 LINE",
"558 638 LINE",
"558 700 LINE",
"35 700 LINE",
"35 638 LINE",
"262 638 LINE"
);
}
);
width = 593;
}
);
note = T;
unicode = 0054;
},
{
glyphname = U;
lastChange = "2018-01-19 11:54:26 +0000";
layers = (
{
background = {
paths = (
{
closed = 1;
nodes = (
"70 700 LINE",
"70 230 LINE SMOOTH",
"70 102 OFFCURVE",
"152 -15 OFFCURVE",
"280 -15 CURVE SMOOTH",
"361 -15 LINE SMOOTH",
"513 -15 OFFCURVE",
"610 122 OFFCURVE",
"610 280 CURVE SMOOTH",
"610 700 LINE",
"544 700 LINE",
"544 280 LINE SMOOTH",
"544 159 OFFCURVE",
"476 44 OFFCURVE",
"361 44 CURVE SMOOTH",
"280 44 LINE SMOOTH",
"189 44 OFFCURVE",
"137 139 OFFCURVE",
"137 230 CURVE SMOOTH",
"137 700 LINE"
);
}
);
};
layerId = "0B1DFD06-3317-40CA-B510-4969A0718C16";
paths = (
{
closed = 1;
nodes = (
"70 95 OFFCURVE",
"154 -6 OFFCURVE",
"281 -6 CURVE SMOOTH",
"381 -6 LINE SMOOTH",
"525 -6 OFFCURVE",
"621 102 OFFCURVE",
"621 265 CURVE SMOOTH",
"621 700 LINE",
"552 700 LINE",
"552 265 LINE SMOOTH",
"552 134 OFFCURVE",
"488 56 OFFCURVE",
"381 56 CURVE SMOOTH",
"281 56 LINE SMOOTH",
"196 56 OFFCURVE",
"139 125 OFFCURVE",
"139 223 CURVE SMOOTH",
"139 700 LINE",
"70 700 LINE",
"70 223 LINE SMOOTH"
);
}
);
width = 691;
}
);
note = U;
unicode = 0055;
},
{
glyphname = V;
lastChange = "2018-01-19 11:54:26 +0000";
layers = (
{
background = {
paths = (
{
closed = 1;
nodes = (
"325 74 LINE",
"88 700 LINE",
"17 700 LINE",
"257 66 LINE",
"279 18 OFFCURVE",
"307 -7 OFFCURVE",
"365 -7 CURVE",
"619 700 LINE",
"548 700 LINE"
);
}
);
};
layerId = "0B1DFD06-3317-40CA-B510-4969A0718C16";
paths = (
{
closed = 1;
nodes = (
"295 7 OFFCURVE",
"318 -6 OFFCURVE",
"369 -6 CURVE",
"642 700 LINE",
"568 700 LINE",
"336 83 LINE",
"104 700 LINE",
"30 700 LINE",
"278 52 LINE SMOOTH"
);
}
);
width = 672;
}
);
note = V;
unicode = 0056;
},
{
glyphname = W;
lastChange = "2018-01-19 11:54:26 +0000";
layers = (
{
background = {
paths = (
{
closed = 1;
nodes = (
"444 619 OFFCURVE",
"422 633 OFFCURVE",
"380 633 CURVE",
"205 83 LINE",
"103 700 LINE",
"30 700 LINE",
"145 52 LINE SMOOTH",
"153 5 OFFCURVE",
"187 -6 OFFCURVE",
"238 -6 CURVE",
"410 521 LINE",
"581 -6 LINE",
"632 -6 OFFCURVE",
"666 5 OFFCURVE",
"674 52 CURVE SMOOTH",
"789 700 LINE",
"716 700 LINE",
"614 83 LINE",
"455 585 LINE"
);
}
);
};
layerId = "0B1DFD06-3317-40CA-B510-4969A0718C16";
paths = (
{
closed = 1;
nodes = (
"444 619 OFFCURVE",
"422 633 OFFCURVE",
"380 633 CURVE",
"205 83 LINE",
"103 700 LINE",
"32 700 LINE",
"144 56 LINE SMOOTH",
"152 12 OFFCURVE",
"179 -6 OFFCURVE",
"238 -6 CURVE",
"410 531 LINE",
"581 -6 LINE",
"640 -6 OFFCURVE",
"667 12 OFFCURVE",
"675 56 CURVE SMOOTH",
"787 700 LINE",
"716 700 LINE",
"614 83 LINE",
"455 585 LINE"
);
}
);
width = 819;
}
);
note = W;
unicode = 0057;
},
{
glyphname = X;
lastChange = "2018-01-22 09:17:10 +0000";
layers = (
{
background = {
paths = (
{
closed = 1;
nodes = (
"331 293 LINE",
"545 0 LINE",
"629 0 LINE",
"373 349 LINE",
"629 700 LINE",
"545 700 LINE",
"330 405 LINE",
"118 700 LINE",
"34 700 LINE",
"289 349 LINE",
"34 0 LINE",
"118 0 LINE"
);
}
);
};
layerId = "0B1DFD06-3317-40CA-B510-4969A0718C16";
paths = (
{
closed = 1;
nodes = (
"375 355 LINE",
"622 700 LINE",
"539 700 LINE",
"332 410 LINE",
"126 700 LINE",
"43 700 LINE",
"290 355 LINE",
"35 0 LINE",
"118 0 LINE",
"332 300 LINE",
"545 0 LINE",
"628 0 LINE"
);
}
);
width = 663;
}
);
note = X;
unicode = 0058;
},
{
glyphname = Y;
lastChange = "2018-01-19 11:54:26 +0000";
layers = (
{
layerId = "0B1DFD06-3317-40CA-B510-4969A0718C16";
paths = (
{
closed = 1;
nodes = (
"368 293 LINE",
"639 700 LINE",
"559 700 LINE",
"333 355 LINE",
"110 700 LINE",
"30 700 LINE",
"299 293 LINE",
"299 0 LINE",
"368 0 LINE"
);
}
);
width = 669;
}
);
note = Y;
unicode = 0059;
},
{
glyphname = Z;
lastChange = "2018-01-22 09:24:06 +0000";
layers = (
{
background = {
paths = (
{
closed = 1;
nodes = (
"460 638 LINE",
"26 0 LINE",
"559 0 LINE",
"559 62 LINE",
"148 62 LINE",
"568 678 LINE",
"583 700 LINE",
"58 700 LINE",
"58 638 LINE"
);
}
);
};
layerId = "0B1DFD06-3317-40CA-B510-4969A0718C16";
paths = (
{
closed = 1;
nodes = (
"465 639 LINE",
"40 30 LINE",
"40 0 LINE",
"559 0 LINE",
"559 61 LINE",
"144 61 LINE",
"569 670 LINE",
"569 700 LINE",
"60 700 LINE",
"60 639 LINE"
);
}
);
width = 609;
}
);
note = Z;
unicode = 005A;
},
{
glyphname = a;
lastChange = "2018-01-22 09:28:03 +0000";
layers = (
{
layerId = "0B1DFD06-3317-40CA-B510-4969A0718C16";
paths = (
{
closed = 1;
nodes = (
"411 0 LINE",
"478 0 LINE",
"478 501 LINE",
"413 501 LINE",
"413 446 LINE",
"387 483 OFFCURVE",
"344 507 OFFCURVE",
"305 507 CURVE SMOOTH",
"243 507 LINE SMOOTH",
"127 507 OFFCURVE",
"50 426 OFFCURVE",
"50 304 CURVE SMOOTH",
"50 167 LINE SMOOTH",
"50 61 OFFCURVE",
"113 -10 OFFCURVE",
"207 -10 CURVE SMOOTH",
"269 -10 LINE SMOOTH",
"324 -10 OFFCURVE",
"381 22 OFFCURVE",
"411 71 CURVE"
);
},
{
closed = 1;
nodes = (
"411 196 LINE",
"406 119 OFFCURVE",
"344 51 OFFCURVE",
"269 51 CURVE SMOOTH",
"207 51 LINE SMOOTH",
"153 51 OFFCURVE",
"117 97 OFFCURVE",
"117 167 CURVE SMOOTH",
"117 304 LINE SMOOTH",
"117 389 OFFCURVE",
"167 446 OFFCURVE",
"243 446 CURVE SMOOTH",
"305 446 LINE SMOOTH",
"358 446 OFFCURVE",
"406 394 OFFCURVE",
"411 329 CURVE"
);
}
);
width = 548;
}
);
note = a;
unicode = 0061;
},
{
glyphname = b;
lastChange = "2018-01-19 11:54:26 +0000";
layers = (
{
background = {
paths = (
{
closed = 1;
nodes = (
"166 22 OFFCURVE",
"217 -10 OFFCURVE",
"260 -10 CURVE SMOOTH",
"322 -10 LINE SMOOTH",
"411 -10 OFFCURVE",
"498 61 OFFCURVE",
"498 167 CURVE SMOOTH",
"498 304 LINE SMOOTH",
"498 426 OFFCURVE",
"445 507 OFFCURVE",
"326 507 CURVE SMOOTH",
"264 507 LINE SMOOTH",
"227 507 OFFCURVE",
"164 483 OFFCURVE",
"137 447 CURVE",
"137 700 LINE",
"70 700 LINE",
"70 0 LINE",
"135 0 LINE",
"135 71 LINE"
);
},
{
closed = 1;
nodes = (
"142 404 OFFCURVE",
"211 446 OFFCURVE",
"264 446 CURVE SMOOTH",
"326 446 LINE SMOOTH",
"406 446 OFFCURVE",
"431 390 OFFCURVE",
"431 304 CURVE SMOOTH",
"431 167 LINE SMOOTH",
"431 97 OFFCURVE",
"372 51 OFFCURVE",
"322 51 CURVE SMOOTH",
"260 51 LINE SMOOTH",
"193 51 OFFCURVE",
"141 109 OFFCURVE",
"137 196 CURVE",
"137 339 LINE"
);
}
);
};
layerId = "0B1DFD06-3317-40CA-B510-4969A0718C16";
paths = (
{
closed = 1;
nodes = (
"164 22 OFFCURVE",
"216 -10 OFFCURVE",
"264 -10 CURVE SMOOTH",
"320 -10 LINE SMOOTH",
"427 -10 OFFCURVE",
"498 61 OFFCURVE",
"498 167 CURVE SMOOTH",
"498 304 LINE SMOOTH",
"498 437 OFFCURVE",
"437 507 OFFCURVE",
"324 507 CURVE SMOOTH",
"262 507 LINE SMOOTH",
"215 507 OFFCURVE",
"166 482 OFFCURVE",
"137 445 CURVE",
"137 700 LINE",
"70 700 LINE",
"70 0 LINE",
"135 0 LINE",
"135 69 LINE"
);
},
{
closed = 1;
nodes = (
"144 404 OFFCURVE",
"208 446 OFFCURVE",
"262 446 CURVE SMOOTH",
"324 446 LINE SMOOTH",
"393 446 OFFCURVE",
"431 397 OFFCURVE",
"431 304 CURVE SMOOTH",
"431 167 LINE SMOOTH",
"431 97 OFFCURVE",
"387 51 OFFCURVE",
"320 51 CURVE SMOOTH",
"264 51 LINE SMOOTH",
"194 51 OFFCURVE",
"143 111 OFFCURVE",
"137 200 CURVE",
"137 335 LINE"
);
}
);
width = 548;
}
);
note = b;
unicode = 0062;
},
{
glyphname = c;
lastChange = "2018-01-22 09:24:47 +0000";
layers = (
{
background = {
paths = (
{
closed = 1;
nodes = (
"466 351 LINE",
"466 442 OFFCURVE",
"394 507 OFFCURVE",
"303 507 CURVE SMOOTH",
"245 507 LINE SMOOTH",
"136 507 OFFCURVE",
"46 413 OFFCURVE",
"46 301 CURVE SMOOTH",
"46 161 LINE SMOOTH",
"46 69 OFFCURVE",
"118 -10 OFFCURVE",
"210 -10 CURVE SMOOTH",
"269 -10 LINE SMOOTH",
"378 -10 OFFCURVE",
"468 63 OFFCURVE",
"468 175 CURVE",
"401 175 LINE",
"401 100 OFFCURVE",
"342 51 OFFCURVE",
"269 51 CURVE SMOOTH",
"210 51 LINE SMOOTH",
"157 51 OFFCURVE",
"113 108 OFFCURVE",
"113 161 CURVE SMOOTH",
"113 301 LINE SMOOTH",
"113 376 OFFCURVE",
"171 446 OFFCURVE",
"245 446 CURVE SMOOTH",
"303 446 LINE SMOOTH",
"356 446 OFFCURVE",
"400 404 OFFCURVE",
"400 351 CURVE"
);
}
);
};
layerId = "0B1DFD06-3317-40CA-B510-4969A0718C16";
paths = (
{
closed = 1;
nodes = (
"474 351 LINE",
"474 445 OFFCURVE",
"408 507 OFFCURVE",
"308 507 CURVE SMOOTH",
"238 507 LINE SMOOTH",
"125 507 OFFCURVE",
"50 425 OFFCURVE",
"50 301 CURVE SMOOTH",
"50 171 LINE SMOOTH",
"50 68 OFFCURVE",
"118 -10 OFFCURVE",
"220 -10 CURVE SMOOTH",
"291 -10 LINE SMOOTH",
"402 -10 OFFCURVE",
"476 64 OFFCURVE",
"476 175 CURVE",
"409 175 LINE",
"409 101 OFFCURVE",
"362 51 OFFCURVE",
"291 51 CURVE SMOOTH",
"220 51 LINE SMOOTH",
"158 51 OFFCURVE",
"117 105 OFFCURVE",
"117 171 CURVE SMOOTH",
"117 301 LINE SMOOTH",
"117 388 OFFCURVE",
"165 446 OFFCURVE",
"238 446 CURVE SMOOTH",
"308 446 LINE SMOOTH",
"368 446 OFFCURVE",
"408 408 OFFCURVE",
"408 351 CURVE"
);
}
);
width = 526;
}
);
note = c;
unicode = 0063;
},
{
glyphname = d;
lastChange = "2018-01-19 11:54:26 +0000";
layers = (
{
background = {
paths = (
{
closed = 1;
nodes = (
"411 0 LINE",
"478 0 LINE",
"478 700 LINE",
"413 700 LINE",
"413 446 LINE",
"387 483 OFFCURVE",
"344 507 OFFCURVE",
"305 507 CURVE SMOOTH",
"243 507 LINE SMOOTH",
"127 507 OFFCURVE",
"50 426 OFFCURVE",
"50 304 CURVE SMOOTH",
"50 167 LINE SMOOTH",
"50 61 OFFCURVE",
"113 -10 OFFCURVE",
"207 -10 CURVE SMOOTH",
"269 -10 LINE SMOOTH",
"324 -10 OFFCURVE",
"381 22 OFFCURVE",
"411 71 CURVE"
);
},
{
closed = 1;
nodes = (
"411 196 LINE",
"406 119 OFFCURVE",
"344 51 OFFCURVE",
"269 51 CURVE SMOOTH",
"207 51 LINE SMOOTH",
"153 51 OFFCURVE",
"117 97 OFFCURVE",
"117 167 CURVE SMOOTH",
"117 304 LINE SMOOTH",
"117 389 OFFCURVE",
"167 446 OFFCURVE",
"243 446 CURVE SMOOTH",
"305 446 LINE SMOOTH",
"358 446 OFFCURVE",
"406 394 OFFCURVE",
"411 329 CURVE"
);
}
);
};
layerId = "0B1DFD06-3317-40CA-B510-4969A0718C16";
paths = (
{
closed = 1;
nodes = (
"413 0 LINE",
"478 0 LINE",
"478 700 LINE",
"411 700 LINE",
"411 448 LINE",
"386 483 OFFCURVE",
"344 507 OFFCURVE",
"305 507 CURVE SMOOTH",
"243 507 LINE SMOOTH",
"127 507 OFFCURVE",
"50 426 OFFCURVE",
"50 304 CURVE SMOOTH",
"50 167 LINE SMOOTH",
"50 61 OFFCURVE",
"113 -10 OFFCURVE",
"207 -10 CURVE SMOOTH",
"269 -10 LINE SMOOTH",
"326 -10 OFFCURVE",
"383 22 OFFCURVE",
"413 71 CURVE"
);
},
{
closed = 1;
nodes = (
"411 196 LINE",
"406 119 OFFCURVE",
"344 51 OFFCURVE",
"269 51 CURVE SMOOTH",
"207 51 LINE SMOOTH",
"153 51 OFFCURVE",
"117 97 OFFCURVE",
"117 167 CURVE SMOOTH",
"117 304 LINE SMOOTH",
"117 389 OFFCURVE",
"167 446 OFFCURVE",
"243 446 CURVE SMOOTH",
"305 446 LINE SMOOTH",
"358 446 OFFCURVE",
"406 394 OFFCURVE",
"411 329 CURVE"
);
}
);
width = 548;
}
);
note = d;
unicode = 0064;
},
{
glyphname = e;
lastChange = "2018-01-22 09:24:40 +0000";
layers = (
{
background = {
paths = (
{
closed = 1;
nodes = (
"403 261 LINE",
"470 261 LINE",
"470 316 LINE SMOOTH",
"470 431 OFFCURVE",
"401 507 OFFCURVE",
"297 507 CURVE SMOOTH",
"237 507 LINE SMOOTH",
"124 507 OFFCURVE",
"48 425 OFFCURVE",
"48 301 CURVE SMOOTH",
"48 161 LINE SMOOTH",
"48 58 OFFCURVE",
"118 -10 OFFCURVE",
"222 -10 CURVE SMOOTH",
"281 -10 LINE SMOOTH",
"393 -10 OFFCURVE",
"468 60 OFFCURVE",
"468 165 CURVE",
"401 165 LINE",
"401 97 OFFCURVE",
"353 51 OFFCURVE",
"281 51 CURVE SMOOTH",
"222 51 LINE SMOOTH",
"158 51 OFFCURVE",
"115 95 OFFCURVE",
"115 161 CURVE SMOOTH",
"115 301 LINE SMOOTH",
"115 388 OFFCURVE",
"164 446 OFFCURVE",
"237 446 CURVE SMOOTH",
"297 446 LINE SMOOTH",
"361 446 OFFCURVE",
"403 394 OFFCURVE",
"403 316 CURVE"
);
},
{
closed = 1;
nodes = (
"59 236 LINE",
"470 236 LINE",
"470 295 LINE",
"59 295 LINE"
);
}
);
};
layerId = "0B1DFD06-3317-40CA-B510-4969A0718C16";
paths = (
{
closed = 1;
nodes = (
"417 261 LINE",
"484 261 LINE",
"484 316 LINE SMOOTH",
"484 431 OFFCURVE",
"415 507 OFFCURVE",
"311 507 CURVE SMOOTH",
"239 507 LINE SMOOTH",
"126 507 OFFCURVE",
"50 425 OFFCURVE",
"50 301 CURVE SMOOTH",
"50 171 LINE SMOOTH",
"50 68 OFFCURVE",
"120 -10 OFFCURVE",
"224 -10 CURVE SMOOTH",
"295 -10 LINE SMOOTH",
"407 -10 OFFCURVE",
"482 60 OFFCURVE",
"482 165 CURVE",
"415 165 LINE",
"415 97 OFFCURVE",
"367 51 OFFCURVE",
"295 51 CURVE SMOOTH",
"224 51 LINE SMOOTH",
"160 51 OFFCURVE",
"117 105 OFFCURVE",
"117 171 CURVE SMOOTH",
"117 301 LINE SMOOTH",
"117 388 OFFCURVE",
"166 446 OFFCURVE",
"239 446 CURVE SMOOTH",
"311 446 LINE SMOOTH",
"375 446 OFFCURVE",
"417 394 OFFCURVE",
"417 316 CURVE"
);
},
{
closed = 1;
nodes = (
"61 236 LINE",
"484 236 LINE",
"484 295 LINE",
"61 295 LINE"
);
}
);
width = 534;
}
);
note = e;
unicode = 0065;
},
{
color = 3;
glyphname = f;
lastChange = "2018-01-22 09:12:57 +0000";
layers = (
{
layerId = "0B1DFD06-3317-40CA-B510-4969A0718C16";
paths = (
{
closed = 1;
nodes = (
"202 645 OFFCURVE",
"183 614 OFFCURVE",
"183 538 CURVE SMOOTH",
"183 501 LINE",
"303 501 LINE",
"303 440 LINE",
"183 440 LINE",
"183 0 LINE",
"116 0 LINE",
"116 440 LINE",
"30 440 LINE",
"30 501 LINE",
"116 501 LINE",
"116 538 LINE SMOOTH",
"116 652 OFFCURVE",
"166 704 OFFCURVE",
"276 704 CURVE SMOOTH",
"314 704 LINE",
"314 645 LINE",
"276 645 LINE"
);
}
);
width = 319;
}
);
note = f;
unicode = 0066;
},
{
glyphname = g;
lastChange = "2018-01-19 11:54:26 +0000";
layers = (
{
background = {
paths = (
{
closed = 1;
nodes = (
"411 226 LINE",
"407 139 OFFCURVE",
"358 81 OFFCURVE",
"273 81 CURVE SMOOTH",
"214 81 LINE SMOOTH",
"164 81 OFFCURVE",
"123 127 OFFCURVE",
"123 197 CURVE SMOOTH",
"123 304 LINE SMOOTH",
"123 390 OFFCURVE",
"170 446 OFFCURVE",
"250 446 CURVE SMOOTH",
"309 446 LINE SMOOTH",
"362 446 OFFCURVE",
"406 404 OFFCURVE",
"411 339 CURVE"
);
},
{
closed = 1;
nodes = (
"411 -116 OFFCURVE",
"368 -160 OFFCURVE",
"304 -160 CURVE SMOOTH",
"245 -160 LINE SMOOTH",
"185 -160 OFFCURVE",
"145 -122 OFFCURVE",
"145 -66 CURVE",
"78 -66 LINE",
"78 -159 OFFCURVE",
"145 -221 OFFCURVE",
"245 -221 CURVE SMOOTH",
"304 -221 LINE SMOOTH",
"408 -221 OFFCURVE",
"478 -153 OFFCURVE",
"478 -50 CURVE SMOOTH",
"478 501 LINE",
"416 501 LINE",
"416 447 LINE",
"391 483 OFFCURVE",
"346 507 OFFCURVE",
"309 507 CURVE SMOOTH",
"250 507 LINE SMOOTH",
"131 507 OFFCURVE",
"56 426 OFFCURVE",
"56 304 CURVE SMOOTH",
"56 197 LINE SMOOTH",
"56 91 OFFCURVE",
"125 20 OFFCURVE",
"214 20 CURVE SMOOTH",
"273 20 LINE SMOOTH",
"330 20 OFFCURVE",
"380 52 OFFCURVE",
"411 101 CURVE",
"411 -50 LINE SMOOTH"
);
}
);
};
layerId = "0B1DFD06-3317-40CA-B510-4969A0718C16";
paths = (
{
closed = 1;
nodes = (
"411 -30 LINE SMOOTH",
"411 -96 OFFCURVE",
"368 -140 OFFCURVE",
"304 -140 CURVE SMOOTH",
"245 -140 LINE SMOOTH",
"185 -140 OFFCURVE",
"145 -102 OFFCURVE",
"145 -46 CURVE",
"78 -46 LINE",
"78 -139 OFFCURVE",
"145 -201 OFFCURVE",
"245 -201 CURVE SMOOTH",
"304 -201 LINE SMOOTH",
"408 -201 OFFCURVE",
"478 -133 OFFCURVE",
"478 -30 CURVE SMOOTH",
"478 501 LINE",
"413 501 LINE",
"413 446 LINE",
"387 483 OFFCURVE",
"344 507 OFFCURVE",
"305 507 CURVE SMOOTH",
"243 507 LINE SMOOTH",
"127 507 OFFCURVE",
"50 426 OFFCURVE",
"50 304 CURVE SMOOTH",
"50 207 LINE SMOOTH",
"50 101 OFFCURVE",
"113 30 OFFCURVE",
"207 30 CURVE SMOOTH",
"269 30 LINE SMOOTH",
"324 30 OFFCURVE",
"381 62 OFFCURVE",
"411 111 CURVE"
);
},
{
closed = 1;
nodes = (
"411 236 LINE",
"406 159 OFFCURVE",
"344 91 OFFCURVE",
"269 91 CURVE SMOOTH",
"207 91 LINE SMOOTH",
"153 91 OFFCURVE",
"117 137 OFFCURVE",
"117 207 CURVE SMOOTH",
"117 304 LINE SMOOTH",
"117 389 OFFCURVE",
"167 446 OFFCURVE",
"243 446 CURVE SMOOTH",
"305 446 LINE SMOOTH",
"358 446 OFFCURVE",
"406 394 OFFCURVE",
"411 329 CURVE"
);
}
);
width = 548;
}
);
note = g;
unicode = 0067;
},
{
glyphname = h;
lastChange = "2018-01-19 11:54:26 +0000";
layers = (
{
background = {
paths = (
{
closed = 1;
nodes = (
"425 0 LINE",
"492 0 LINE",
"492 336 LINE SMOOTH",
"492 439 OFFCURVE",
"430 507 OFFCURVE",
"336 507 CURVE SMOOTH",
"275 507 LINE SMOOTH",
"220 507 OFFCURVE",
"169 477 OFFCURVE",
"135 427 CURVE",
"135 501 LINE",
"70 501 LINE",
"70 0 LINE",
"137 0 LINE",
"137 319 LINE",
"151 388 OFFCURVE",
"205 446 OFFCURVE",
"275 446 CURVE SMOOTH",
"336 446 LINE SMOOTH",
"389 446 OFFCURVE",
"425 403 OFFCURVE",
"425 339 CURVE SMOOTH"
);
}
);
};
layerId = "0B1DFD06-3317-40CA-B510-4969A0718C16";
paths = (
{
closed = 1;
nodes = (
"425 0 LINE",
"492 0 LINE",
"492 336 LINE SMOOTH",
"492 439 OFFCURVE",
"430 507 OFFCURVE",
"336 507 CURVE SMOOTH",
"275 507 LINE SMOOTH",
"220 507 OFFCURVE",
"171 478 OFFCURVE",
"137 429 CURVE",
"137 700 LINE",
"70 700 LINE",
"70 0 LINE",
"137 0 LINE",
"137 319 LINE",
"151 388 OFFCURVE",
"205 446 OFFCURVE",
"275 446 CURVE SMOOTH",
"336 446 LINE SMOOTH",
"389 446 OFFCURVE",
"425 403 OFFCURVE",
"425 339 CURVE SMOOTH"
);
}
);
width = 557;
}
);
note = h;
unicode = 0068;
},
{
glyphname = i;
lastChange = "2018-01-19 11:54:26 +0000";
layers = (
{
layerId = "0B1DFD06-3317-40CA-B510-4969A0718C16";
paths = (
{
closed = 1;
nodes = (
"82 0 LINE",
"149 0 LINE",
"149 501 LINE",
"82 501 LINE"
);
},
{
closed = 1;
nodes = (
"65 607 OFFCURVE",
"85 586 OFFCURVE",
"116 586 CURVE SMOOTH",
"147 586 OFFCURVE",
"168 607 OFFCURVE",
"168 638 CURVE SMOOTH",
"168 669 OFFCURVE",
"147 690 OFFCURVE",
"116 690 CURVE SMOOTH",
"85 690 OFFCURVE",
"65 669 OFFCURVE",
"65 638 CURVE SMOOTH"
);
}
);
width = 233;
}
);
note = i;
unicode = 0069;
},
{
glyphname = j;
lastChange = "2018-01-19 11:54:26 +0000";
layers = (
{
background = {
paths = (
{
closed = 1;
nodes = (
"97 -10 LINE SMOOTH",
"97 -91 OFFCURVE",
"75 -138 OFFCURVE",
"-5 -138 CURVE SMOOTH",
"-44 -138 LINE",
"-44 -199 LINE",
"-5 -199 LINE SMOOTH",
"114 -199 OFFCURVE",
"164 -129 OFFCURVE",
"164 -10 CURVE SMOOTH",
"164 501 LINE",
"97 501 LINE"
);
},
{
closed = 1;
nodes = (
"80 609 OFFCURVE",
"102 586 OFFCURVE",
"131 586 CURVE SMOOTH",
"161 586 OFFCURVE",
"183 609 OFFCURVE",
"183 638 CURVE SMOOTH",
"183 667 OFFCURVE",
"161 690 OFFCURVE",
"131 690 CURVE SMOOTH",
"102 690 OFFCURVE",
"80 667 OFFCURVE",
"80 638 CURVE SMOOTH"
);
}
);
};
layerId = "0B1DFD06-3317-40CA-B510-4969A0718C16";
paths = (
{
closed = 1;
nodes = (
"97 -10 LINE SMOOTH",
"97 -105 OFFCURVE",
"71 -138 OFFCURVE",
"-5 -138 CURVE SMOOTH",
"-40 -138 LINE",
"-40 -199 LINE",
"-5 -199 LINE SMOOTH",
"116 -199 OFFCURVE",
"164 -145 OFFCURVE",
"164 -10 CURVE SMOOTH",
"164 501 LINE",
"97 501 LINE"
);
},
{
closed = 1;
nodes = (
"80 607 OFFCURVE",
"100 586 OFFCURVE",
"131 586 CURVE SMOOTH",
"162 586 OFFCURVE",
"183 607 OFFCURVE",
"183 638 CURVE SMOOTH",
"183 669 OFFCURVE",
"162 690 OFFCURVE",
"131 690 CURVE SMOOTH",
"100 690 OFFCURVE",
"80 669 OFFCURVE",
"80 638 CURVE SMOOTH"
);
}
);
width = 248;
}
);
note = j;
unicode = 006A;
},
{
glyphname = k;
lastChange = "2018-01-22 09:29:06 +0000";
layers = (
{
background = {
paths = (
{
closed = 1;
nodes = (
"482 500 LINE",
"381 500 LINE",
"143 318 LINE",
"143 700 LINE",
"77 700 LINE",
"77 0 LINE",
"143 0 LINE",
"143 250 LINE",
"173 248 OFFCURVE",
"201 234 OFFCURVE",
"223 212 CURVE SMOOTH",
"428 0 LINE",
"518 0 LINE",
"274 255 LINE SMOOTH",
"260 270 OFFCURVE",
"233 292 OFFCURVE",
"216 298 CURVE"
);
}
);
};
layerId = "0B1DFD06-3317-40CA-B510-4969A0718C16";
paths = (
{
closed = 1;
nodes = (
"486 501 LINE",
"404 501 LINE",
"226 285 LINE",
"137 285 LINE",
"137 700 LINE",
"70 700 LINE",
"70 0 LINE",
"137 0 LINE",
"137 224 LINE",
"226 224 LINE",
"422 0 LINE",
"506 0 LINE",
"284 255 LINE"
);
}
);
width = 516;
}
);
note = k;
unicode = 006B;
},
{
glyphname = l;
lastChange = "2018-01-19 11:54:26 +0000";
layers = (
{
layerId = "0B1DFD06-3317-40CA-B510-4969A0718C16";
paths = (
{
closed = 1;
nodes = (
"75 0 LINE",
"142 0 LINE",
"142 700 LINE",
"75 700 LINE"
);
}
);
width = 217;
}
);
note = l;
unicode = 006C;
},
{
glyphname = m;
lastChange = "2018-01-19 11:54:26 +0000";
layers = (
{
background = {
paths = (
{
closed = 1;
nodes = (
"547 507 LINE SMOOTH",
"489 507 OFFCURVE",
"444 476 OFFCURVE",
"415 434 CURVE",
"392 481 OFFCURVE",
"351 507 OFFCURVE",
"296 507 CURVE SMOOTH",
"257 507 LINE SMOOTH",
"208 507 OFFCURVE",
"162 478 OFFCURVE",
"135 434 CURVE",
"135 501 LINE",
"70 501 LINE",
"70 0 LINE",
"137 0 LINE",
"137 326 LINE",
"150 398 OFFCURVE",
"189 446 OFFCURVE",
"257 446 CURVE SMOOTH",
"296 446 LINE SMOOTH",
"354 446 OFFCURVE",
"369 388 OFFCURVE",
"369 328 CURVE SMOOTH",
"369 0 LINE",
"436 0 LINE",
"436 326 LINE SMOOTH",
"438 400 OFFCURVE",
"479 446 OFFCURVE",
"547 446 CURVE SMOOTH",
"586 446 LINE SMOOTH",
"644 446 OFFCURVE",
"668 399 OFFCURVE",
"668 329 CURVE SMOOTH",
"668 0 LINE",
"735 0 LINE",
"735 326 LINE SMOOTH",
"735 440 OFFCURVE",
"680 507 OFFCURVE",
"586 507 CURVE SMOOTH"
);
}
);
};
layerId = "0B1DFD06-3317-40CA-B510-4969A0718C16";
paths = (
{
closed = 1;
nodes = (
"548 507 LINE SMOOTH",
"485 507 OFFCURVE",
"428 465 OFFCURVE",
"403 403 CURVE",
"425 403 LINE",
"406 468 OFFCURVE",
"359 507 OFFCURVE",
"296 507 CURVE SMOOTH",
"257 507 LINE SMOOTH",
"211 507 OFFCURVE",
"162 478 OFFCURVE",
"135 434 CURVE",
"135 501 LINE",
"70 501 LINE",
"70 0 LINE",
"137 0 LINE",
"137 327 LINE",
"150 399 OFFCURVE",
"198 446 OFFCURVE",
"257 446 CURVE SMOOTH",
"296 446 LINE SMOOTH",
"355 446 OFFCURVE",
"370 389 OFFCURVE",
"370 328 CURVE SMOOTH",
"370 0 LINE",
"437 0 LINE",
"437 328 LINE",
"447 399 OFFCURVE",
"483 446 OFFCURVE",
"548 446 CURVE SMOOTH",
"587 446 LINE SMOOTH",
"636 446 OFFCURVE",
"670 403 OFFCURVE",
"670 339 CURVE SMOOTH",
"670 0 LINE",
"737 0 LINE",
"737 336 LINE SMOOTH",
"737 439 OFFCURVE",
"676 507 OFFCURVE",
"587 507 CURVE SMOOTH"
);
}
);
width = 802;
}
);
note = m;
unicode = 006D;
},
{
glyphname = n;
lastChange = "2018-01-22 09:26:17 +0000";
layers = (
{
background = {
paths = (
{
closed = 1;
nodes = (
"423 0 LINE",
"490 0 LINE",
"490 326 LINE SMOOTH",
"490 435 OFFCURVE",
"427 507 OFFCURVE",
"329 507 CURVE SMOOTH",
"270 507 LINE SMOOTH",
"221 507 OFFCURVE",
"168 478 OFFCURVE",
"135 434 CURVE",
"135 501 LINE",
"70 501 LINE",
"70 0 LINE",
"137 0 LINE",
"137 326 LINE",
"150 398 OFFCURVE",
"202 446 OFFCURVE",
"270 446 CURVE SMOOTH",
"329 446 LINE SMOOTH",
"387 446 OFFCURVE",
"423 399 OFFCURVE",
"423 329 CURVE SMOOTH"
);
}
);
};
layerId = "0B1DFD06-3317-40CA-B510-4969A0718C16";
paths = (
{
closed = 1;
nodes = (
"425 0 LINE",
"492 0 LINE",
"492 336 LINE SMOOTH",
"492 439 OFFCURVE",
"430 507 OFFCURVE",
"336 507 CURVE SMOOTH",
"275 507 LINE SMOOTH",
"220 507 OFFCURVE",
"169 477 OFFCURVE",
"135 427 CURVE",
"135 501 LINE",
"70 501 LINE",
"70 0 LINE",
"137 0 LINE",
"137 319 LINE",
"151 388 OFFCURVE",
"205 446 OFFCURVE",
"275 446 CURVE SMOOTH",
"336 446 LINE SMOOTH",
"389 446 OFFCURVE",
"425 403 OFFCURVE",
"425 339 CURVE SMOOTH"
);
}
);
width = 557;
}
);
note = n;
unicode = 006E;
},
{
glyphname = o;
lastChange = "2018-01-22 09:24:18 +0000";
layers = (
{
background = {
paths = (
{
closed = 1;
nodes = (
"478 336 LINE SMOOTH",
"478 427 OFFCURVE",
"404 507 OFFCURVE",
"313 507 CURVE SMOOTH",
"254 507 LINE SMOOTH",
"145 507 OFFCURVE",
"54 413 OFFCURVE",
"54 301 CURVE SMOOTH",
"54 161 LINE SMOOTH",
"54 69 OFFCURVE",
"127 -10 OFFCURVE",
"219 -10 CURVE SMOOTH",
"278 -10 LINE SMOOTH",
"387 -10 OFFCURVE",
"478 84 OFFCURVE",
"478 196 CURVE SMOOTH"
);
},
{
closed = 1;
nodes = (
"410 196 LINE SMOOTH",
"410 121 OFFCURVE",
"351 51 OFFCURVE",
"278 51 CURVE SMOOTH",
"219 51 LINE SMOOTH",
"166 51 OFFCURVE",
"121 108 OFFCURVE",
"121 161 CURVE SMOOTH",
"121 301 LINE SMOOTH",
"121 376 OFFCURVE",
"180 446 OFFCURVE",
"254 446 CURVE SMOOTH",
"313 446 LINE SMOOTH",
"366 446 OFFCURVE",
"410 389 OFFCURVE",
"410 336 CURVE SMOOTH"
);
}
);
};
layerId = "0B1DFD06-3317-40CA-B510-4969A0718C16";
paths = (
{
closed = 1;
nodes = (
"492 336 LINE SMOOTH",
"492 439 OFFCURVE",
"422 507 OFFCURVE",
"323 507 CURVE SMOOTH",
"252 507 LINE SMOOTH",
"131 507 OFFCURVE",
"50 415 OFFCURVE",
"50 291 CURVE SMOOTH",
"50 161 LINE SMOOTH",
"50 58 OFFCURVE",
"118 -10 OFFCURVE",
"217 -10 CURVE SMOOTH",
"289 -10 LINE SMOOTH",
"411 -10 OFFCURVE",
"492 82 OFFCURVE",
"492 206 CURVE SMOOTH"
);
},
{
closed = 1;
nodes = (
"424 206 LINE SMOOTH",
"424 119 OFFCURVE",
"371 51 OFFCURVE",
"289 51 CURVE SMOOTH",
"217 51 LINE SMOOTH",
"158 51 OFFCURVE",
"117 95 OFFCURVE",
"117 161 CURVE SMOOTH",
"117 291 LINE SMOOTH",
"117 378 OFFCURVE",
"171 446 OFFCURVE",
"252 446 CURVE SMOOTH",
"323 446 LINE SMOOTH",
"381 446 OFFCURVE",
"424 402 OFFCURVE",
"424 336 CURVE SMOOTH"
);
}
);
width = 542;
}
);
note = o;
unicode = 006F;
},
{
glyphname = p;
lastChange = "2018-01-19 11:54:26 +0000";
layers = (
{
background = {
paths = (
{
closed = 1;
nodes = (
"76 -184 LINE",
"142 -184 LINE",
"142 38 LINE",
"164 16 OFFCURVE",
"195 -7 OFFCURVE",
"240 -7 CURVE SMOOTH",
"299 -7 LINE SMOOTH",
"408 -7 OFFCURVE",
"497 87 OFFCURVE",
"497 199 CURVE SMOOTH",
"497 336 LINE SMOOTH",
"497 427 OFFCURVE",
"425 507 OFFCURVE",
"334 507 CURVE SMOOTH",
"275 507 LINE SMOOTH",
"216 507 OFFCURVE",
"163 473 OFFCURVE",
"142 442 CURVE",
"142 500 LINE",
"76 500 LINE"
);
},
{
closed = 1;
nodes = (
"431 199 LINE SMOOTH",
"431 124 OFFCURVE",
"372 52 OFFCURVE",
"299 52 CURVE SMOOTH",
"240 52 LINE SMOOTH",
"187 52 OFFCURVE",
"142 111 OFFCURVE",
"142 164 CURVE SMOOTH",
"142 306 LINE SMOOTH",
"142 379 OFFCURVE",
"203 448 OFFCURVE",
"275 448 CURVE SMOOTH",
"334 448 LINE SMOOTH",
"387 448 OFFCURVE",
"431 389 OFFCURVE",
"431 336 CURVE SMOOTH"
);
}
);
};
layerId = "0B1DFD06-3317-40CA-B510-4969A0718C16";
paths = (
{
closed = 1;
nodes = (
"135 501 LINE",
"70 501 LINE",
"70 -201 LINE",
"137 -201 LINE",
"137 49 LINE",
"162 14 OFFCURVE",
"207 -10 OFFCURVE",
"249 -10 CURVE SMOOTH",
"311 -10 LINE SMOOTH",
"427 -10 OFFCURVE",
"498 71 OFFCURVE",
"498 193 CURVE SMOOTH",
"498 330 LINE SMOOTH",
"498 436 OFFCURVE",
"431 507 OFFCURVE",
"337 507 CURVE SMOOTH",
"275 507 LINE SMOOTH",
"220 507 OFFCURVE",
"165 475 OFFCURVE",
"135 426 CURVE"
);
},
{
closed = 1;
nodes = (
"137 301 LINE",
"142 378 OFFCURVE",
"200 446 OFFCURVE",
"275 446 CURVE SMOOTH",
"337 446 LINE SMOOTH",
"391 446 OFFCURVE",
"431 400 OFFCURVE",
"431 330 CURVE SMOOTH",
"431 193 LINE SMOOTH",
"431 108 OFFCURVE",
"387 51 OFFCURVE",
"311 51 CURVE SMOOTH",
"249 51 LINE SMOOTH",
"196 51 OFFCURVE",
"142 103 OFFCURVE",
"137 168 CURVE"
);
}
);
width = 548;
}
);
note = p;
unicode = 0070;
},
{
glyphname = q;
lastChange = "2018-01-19 11:54:26 +0000";
layers = (
{
background = {
paths = (
{
closed = 1;
nodes = (
"411 -184 LINE",
"478 -184 LINE",
"478 500 LINE",
"411 500 LINE",
"411 461 LINE",
"388 485 OFFCURVE",
"363 507 OFFCURVE",
"314 507 CURVE SMOOTH",
"255 507 LINE SMOOTH",
"146 507 OFFCURVE",
"56 413 OFFCURVE",
"56 301 CURVE SMOOTH",
"56 164 LINE SMOOTH",
"56 72 OFFCURVE",
"128 -7 OFFCURVE",
"220 -7 CURVE SMOOTH",
"279 -7 LINE SMOOTH",
"329 -7 OFFCURVE",
"382 24 OFFCURVE",
"411 62 CURVE"
);
},
{
closed = 1;
nodes = (
"411 193 LINE",
"408 121 OFFCURVE",
"349 52 OFFCURVE",
"279 52 CURVE SMOOTH",
"220 52 LINE SMOOTH",
"167 52 OFFCURVE",
"122 111 OFFCURVE",
"122 164 CURVE SMOOTH",
"122 301 LINE SMOOTH",
"122 376 OFFCURVE",
"181 446 OFFCURVE",
"255 446 CURVE SMOOTH",
"314 446 LINE SMOOTH",
"364 446 OFFCURVE",
"407 393 OFFCURVE",
"411 343 CURVE"
);
}
);
};
layerId = "0B1DFD06-3317-40CA-B510-4969A0718C16";
paths = (
{
closed = 1;
nodes = (
"403 479 OFFCURVE",
"356 507 OFFCURVE",
"306 507 CURVE SMOOTH",
"250 507 LINE SMOOTH",
"142 507 OFFCURVE",
"70 435 OFFCURVE",
"70 328 CURVE SMOOTH",
"70 193 LINE SMOOTH",
"70 65 OFFCURVE",
"135 -10 OFFCURVE",
"244 -10 CURVE SMOOTH",
"306 -10 LINE SMOOTH",
"353 -10 OFFCURVE",
"402 15 OFFCURVE",
"431 52 CURVE",
"431 -199 LINE",
"498 -199 LINE",
"498 501 LINE",
"433 501 LINE",
"433 431 LINE"
);
},
{
closed = 1;
nodes = (
"424 93 OFFCURVE",
"360 51 OFFCURVE",
"306 51 CURVE SMOOTH",
"244 51 LINE SMOOTH",
"177 51 OFFCURVE",
"137 104 OFFCURVE",
"137 193 CURVE SMOOTH",
"137 328 LINE SMOOTH",
"137 399 OFFCURVE",
"182 446 OFFCURVE",
"250 446 CURVE SMOOTH",
"306 446 LINE SMOOTH",
"375 446 OFFCURVE",
"425 386 OFFCURVE",
"431 297 CURVE",
"431 162 LINE"
);
}
);
width = 548;
}
);
note = q;
unicode = 0071;
},
{
glyphname = r;
lastChange = "2018-01-19 11:54:26 +0000";
layers = (
{
layerId = "0B1DFD06-3317-40CA-B510-4969A0718C16";
paths = (
{
closed = 1;
nodes = (
"70 0 LINE",
"137 0 LINE",
"137 301 LINE SMOOTH",
"137 388 OFFCURVE",
"199 446 OFFCURVE",
"278 446 CURVE SMOOTH",
"327 446 LINE",
"327 507 LINE",
"278 507 LINE SMOOTH",
"217 507 OFFCURVE",
"164 478 OFFCURVE",
"135 428 CURVE",
"135 501 LINE",
"70 501 LINE"
);
}
);
width = 352;
}
);
note = r;
unicode = 0072;
},
{
color = 3;
glyphname = s;
lastChange = "2018-01-22 09:19:00 +0000";
layers = (
{
background = {
paths = (
{
closed = 1;
nodes = (
"342 210 LINE SMOOTH",
"393 202 OFFCURVE",
"407 185 OFFCURVE",
"407 153 CURVE SMOOTH",
"407 133 LINE SMOOTH",
"407 79 OFFCURVE",
"342 49 OFFCURVE",
"306 49 CURVE SMOOTH",
"188 49 LINE SMOOTH",
"135 49 OFFCURVE",
"90 93 OFFCURVE",
"90 146 CURVE",
"24 146 LINE",
"24 54 OFFCURVE",
"96 -10 OFFCURVE",
"188 -10 CURVE SMOOTH",
"306 -10 LINE SMOOTH",
"405 -10 OFFCURVE",
"473 51 OFFCURVE",
"473 135 CURVE SMOOTH",
"473 153 LINE SMOOTH",
"473 210 OFFCURVE",
"444 256 OFFCURVE",
"358 269 CURVE SMOOTH",
"169 297 LINE SMOOTH",
"106 306 OFFCURVE",
"104 333 OFFCURVE",
"104 352 CURVE SMOOTH",
"104 371 LINE SMOOTH",
"104 421 OFFCURVE",
"153 448 OFFCURVE",
"207 448 CURVE SMOOTH",
"298 448 LINE SMOOTH",
"351 448 OFFCURVE",
"392 404 OFFCURVE",
"393 351 CURVE",
"460 351 LINE",
"460 442 OFFCURVE",
"390 507 OFFCURVE",
"298 507 CURVE SMOOTH",
"207 507 LINE SMOOTH",
"121 507 OFFCURVE",
"38 460 OFFCURVE",
"38 370 CURVE SMOOTH",
"38 351 LINE SMOOTH",
"38 305 OFFCURVE",
"52 254 OFFCURVE",
"153 238 CURVE"
);
}
);
};
layerId = "0B1DFD06-3317-40CA-B510-4969A0718C16";
paths = (
{
closed = 1;
nodes = (
"339 209 LINE SMOOTH",
"374 204 OFFCURVE",
"398 181 OFFCURVE",
"398 152 CURVE SMOOTH",
"398 132 LINE SMOOTH",
"398 82 OFFCURVE",
"360 49 OFFCURVE",
"304 49 CURVE SMOOTH",
"203 49 LINE SMOOTH",
"148 49 OFFCURVE",
"111 88 OFFCURVE",
"111 146 CURVE",
"45 146 LINE",
"45 52 OFFCURVE",
"108 -10 OFFCURVE",
"203 -10 CURVE SMOOTH",
"304 -10 LINE SMOOTH",
"401 -10 OFFCURVE",
"465 48 OFFCURVE",
"465 134 CURVE SMOOTH",
"465 152 LINE SMOOTH",
"465 212 OFFCURVE",
"421 258 OFFCURVE",
"355 268 CURVE SMOOTH",
"181 294 LINE SMOOTH",
"144 300 OFFCURVE",
"119 323 OFFCURVE",
"119 352 CURVE SMOOTH",
"119 371 LINE SMOOTH",
"119 417 OFFCURVE",
"159 448 OFFCURVE",
"219 448 CURVE SMOOTH",
"292 448 LINE SMOOTH",
"344 448 OFFCURVE",
"380 415 OFFCURVE",
"381 363 CURVE",
"448 363 LINE",
"448 451 OFFCURVE",
"386 507 OFFCURVE",
"292 507 CURVE SMOOTH",
"219 507 LINE SMOOTH",
"119 507 OFFCURVE",
"52 452 OFFCURVE",
"52 370 CURVE SMOOTH",
"52 351 LINE SMOOTH",
"52 292 OFFCURVE",
"97 246 OFFCURVE",
"165 235 CURVE"
);
}
);
width = 510;
}
);
note = s;
unicode = 0073;
},
{
glyphname = t;
lastChange = "2018-01-22 09:13:02 +0000";
layers = (
{
background = {
paths = (
{
closed = 1;
nodes = (
"122 440 LINE",
"30 440 LINE",
"30 501 LINE",
"122 501 LINE",
"122 700 LINE",
"189 700 LINE",
"189 501 LINE",
"307 501 LINE",
"307 440 LINE",
"189 440 LINE",
"189 146 LINE SMOOTH",
"189 84 OFFCURVE",
"211 59 OFFCURVE",
"263 59 CURVE SMOOTH",
"307 59 LINE",
"307 0 LINE",
"263 0 LINE SMOOTH",
"163 0 OFFCURVE",
"122 42 OFFCURVE",
"122 146 CURVE SMOOTH"
);
}
);
};
layerId = "0B1DFD06-3317-40CA-B510-4969A0718C16";
paths = (
{
closed = 1;
nodes = (
"122 440 LINE",
"30 440 LINE",
"30 501 LINE",
"122 501 LINE",
"122 700 LINE",
"189 700 LINE",
"189 501 LINE",
"309 501 LINE",
"309 440 LINE",
"189 440 LINE",
"189 146 LINE SMOOTH",
"189 84 OFFCURVE",
"211 59 OFFCURVE",
"265 59 CURVE SMOOTH",
"309 59 LINE",
"309 0 LINE",
"265 0 LINE SMOOTH",
"163 0 OFFCURVE",
"122 42 OFFCURVE",
"122 146 CURVE SMOOTH"
);
}
);
width = 344;
}
);
note = t;
unicode = 0074;
},
{
glyphname = u;
lastChange = "2018-01-19 11:54:26 +0000";
layers = (
{
background = {
paths = (
{
closed = 1;
nodes = (
"134 501 LINE",
"67 501 LINE",
"67 163 LINE SMOOTH",
"67 72 OFFCURVE",
"125 -10 OFFCURVE",
"226 -10 CURVE SMOOTH",
"285 -10 LINE SMOOTH",
"338 -10 OFFCURVE",
"395 24 OFFCURVE",
"422 63 CURVE",
"422 0 LINE",
"487 0 LINE",
"487 501 LINE",
"420 501 LINE",
"420 174 LINE",
"409 111 OFFCURVE",
"351 49 OFFCURVE",
"285 49 CURVE SMOOTH",
"226 49 LINE SMOOTH",
"163 49 OFFCURVE",
"134 108 OFFCURVE",
"134 163 CURVE SMOOTH"
);
}
);
};
layerId = "0B1DFD06-3317-40CA-B510-4969A0718C16";
paths = (
{
closed = 1;
nodes = (
"132 501 LINE",
"65 501 LINE",
"65 163 LINE SMOOTH",
"65 59 OFFCURVE",
"127 -10 OFFCURVE",
"221 -10 CURVE SMOOTH",
"280 -10 LINE SMOOTH",
"333 -10 OFFCURVE",
"390 22 OFFCURVE",
"422 69 CURVE",
"422 0 LINE",
"487 0 LINE",
"487 501 LINE",
"420 501 LINE",
"420 195 LINE",
"415 116 OFFCURVE",
"358 51 OFFCURVE",
"280 51 CURVE SMOOTH",
"221 51 LINE SMOOTH",
"168 51 OFFCURVE",
"132 96 OFFCURVE",
"132 163 CURVE SMOOTH"
);
}
);
width = 557;
}
);
note = u;
unicode = 0075;
},
{
glyphname = v;
lastChange = "2018-01-19 11:54:26 +0000";
layers = (
{
background = {
paths = (
{
closed = 1;
nodes = (
"485 500 LINE",
"416 500 LINE",
"256 71 LINE",
"99 500 LINE",
"29 500 LINE",
"196 46 LINE",
"212 10 OFFCURVE",
"252 -7 OFFCURVE",
"293 -7 CURVE"
);
}
);
};
layerId = "0B1DFD06-3317-40CA-B510-4969A0718C16";
paths = (
{
closed = 1;
nodes = (
"484 501 LINE",
"411 501 LINE",
"256 70 LINE",
"103 501 LINE",
"30 501 LINE",
"196 56 LINE SMOOTH",
"215 5 OFFCURVE",
"237 -10 OFFCURVE",
"289 -10 CURVE"
);
}
);
width = 514;
}
);
note = v;
unicode = 0076;
},
{
glyphname = w;
lastChange = "2018-01-19 11:54:26 +0000";
layers = (
{
background = {
paths = (
{
closed = 1;
nodes = (
"521 72 LINE",
"385 501 LINE",
"335 501 LINE",
"199 72 LINE",
"102 501 LINE",
"30 501 LINE",
"139 56 LINE SMOOTH",
"152 5 OFFCURVE",
"180 -10 OFFCURVE",
"232 -10 CURVE",
"360 389 LINE",
"488 -10 LINE",
"540 -10 OFFCURVE",
"569 5 OFFCURVE",
"581 56 CURVE SMOOTH",
"689 501 LINE",
"617 501 LINE"
);
}
);
};
layerId = "0B1DFD06-3317-40CA-B510-4969A0718C16";
paths = (
{
closed = 1;
nodes = (
"521 72 LINE",
"617 501 LINE",
"689 501 LINE",
"581 56 LINE SMOOTH",
"569 5 OFFCURVE",
"540 -10 OFFCURVE",
"488 -10 CURVE",
"360 387 LINE",
"232 -10 LINE",
"180 -10 OFFCURVE",
"152 5 OFFCURVE",
"139 56 CURVE SMOOTH",
"30 501 LINE",
"102 501 LINE",
"199 72 LINE",
"335 497 LINE",
"374 497 OFFCURVE",
"389 486 OFFCURVE",
"400 451 CURVE SMOOTH"
);
}
);
width = 719;
}
);
note = w;
unicode = 0077;
},
{
glyphname = x;
lastChange = "2018-01-19 11:54:26 +0000";
layers = (
{
background = {
paths = (
{
closed = 1;
nodes = (
"250 314 LINE",
"106 500 LINE",
"23 500 LINE",
"206 264 LINE",
"-3 0 LINE",
"81 0 LINE",
"250 214 LINE",
"421 0 LINE",
"505 0 LINE",
"294 264 LINE",
"478 500 LINE",
"396 500 LINE"
);
}
);
};
layerId = "0B1DFD06-3317-40CA-B510-4969A0718C16";
paths = (
{
closed = 1;
nodes = (
"414 0 LINE",
"494 0 LINE",
"122 501 LINE",
"42 501 LINE"
);
},
{
closed = 1;
nodes = (
"412 501 LINE",
"40 0 LINE",
"120 0 LINE",
"492 501 LINE"
);
}
);
width = 534;
}
);
note = x;
unicode = 0078;
},
{
glyphname = y;
lastChange = "2018-01-19 11:54:26 +0000";
layers = (
{
background = {
paths = (
{
closed = 1;
nodes = (
"66 -74 LINE",
"89 -137 OFFCURVE",
"149 -183 OFFCURVE",
"221 -183 CURVE SMOOTH",
"280 -183 LINE SMOOTH",
"373 -183 OFFCURVE",
"482 -105 OFFCURVE",
"482 -9 CURVE SMOOTH",
"482 500 LINE",
"416 500 LINE",
"416 211 LINE",
"405 147 OFFCURVE",
"346 90 OFFCURVE",
"280 90 CURVE SMOOTH",
"221 90 LINE SMOOTH",
"168 90 OFFCURVE",
"128 144 OFFCURVE",
"128 197 CURVE SMOOTH",
"128 500 LINE",
"62 500 LINE",
"62 200 LINE SMOOTH",
"62 109 OFFCURVE",
"130 29 OFFCURVE",
"221 29 CURVE SMOOTH",
"280 29 LINE SMOOTH",
"333 29 OFFCURVE",
"380 57 OFFCURVE",
"416 90 CURVE",
"416 -9 LINE SMOOTH",
"416 -74 OFFCURVE",
"351 -127 OFFCURVE",
"285 -127 CURVE SMOOTH",
"226 -127 LINE SMOOTH",
"192 -127 OFFCURVE",
"162 -102 OFFCURVE",
"145 -74 CURVE"
);
}
);
};
layerId = "0B1DFD06-3317-40CA-B510-4969A0718C16";
paths = (
{
closed = 1;
nodes = (
"417 -96 OFFCURVE",
"372 -140 OFFCURVE",
"308 -140 CURVE SMOOTH",
"249 -140 LINE SMOOTH",
"189 -140 OFFCURVE",
"149 -102 OFFCURVE",
"149 -46 CURVE",
"82 -46 LINE",
"82 -139 OFFCURVE",
"149 -201 OFFCURVE",
"249 -201 CURVE SMOOTH",
"308 -201 LINE SMOOTH",
"412 -201 OFFCURVE",
"482 -133 OFFCURVE",
"482 -30 CURVE SMOOTH",
"482 501 LINE",
"415 501 LINE",
"415 235 LINE",
"410 156 OFFCURVE",
"353 91 OFFCURVE",
"275 91 CURVE SMOOTH",
"216 91 LINE SMOOTH",
"163 91 OFFCURVE",
"127 136 OFFCURVE",
"127 203 CURVE SMOOTH",
"127 501 LINE",
"60 501 LINE",
"60 203 LINE SMOOTH",
"60 99 OFFCURVE",
"122 30 OFFCURVE",
"216 30 CURVE SMOOTH",
"275 30 LINE SMOOTH",
"328 30 OFFCURVE",
"385 62 OFFCURVE",
"417 109 CURVE",
"417 -30 LINE SMOOTH"
);
}
);
width = 552;
}
);
note = y;
unicode = 0079;
},
{
glyphname = z;
lastChange = "2018-01-22 09:27:32 +0000";
layers = (
{
background = {
paths = (
{
closed = 1;
nodes = (
"433 52 LINE",
"110 52 LINE",
"443 501 LINE",
"0 501 LINE",
"0 449 LINE",
"317 449 LINE",
"-15 0 LINE",
"433 0 LINE"
);
}
);
};
layerId = "0B1DFD06-3317-40CA-B510-4969A0718C16";
paths = (
{
closed = 1;
nodes = (
"432 60 LINE",
"137 60 LINE",
"442 471 LINE",
"442 501 LINE",
"49 501 LINE",
"49 441 LINE",
"340 441 LINE",
"35 30 LINE",
"35 0 LINE",
"432 0 LINE"
);
}
);
width = 477;
}
);
note = z;
unicode = 007A;
},
{
glyphname = AE;
lastChange = "2017-12-19 03:42:34 +0000";
layers = (
{
layerId = "0B1DFD06-3317-40CA-B510-4969A0718C16";
paths = (
{
closed = 1;
nodes = (
"25 0 LINE",
"99 0 LINE",
"184 196 LINE",
"452 196 LINE",
"497 0 LINE",
"905 0 LINE",
"905 59 LINE",
"550 59 LINE",
"488 336 LINE",
"833 336 LINE",
"833 395 LINE",
"474 395 LINE",
"418 641 LINE",
"771 641 LINE",
"771 700 LINE",
"365 700 LINE SMOOTH",
"358 700 OFFCURVE",
"348 701 OFFCURVE",
"336 701 CURVE"
);
},
{
closed = 1;
nodes = (
"357 619 LINE",
"439 255 LINE",
"209 255 LINE"
);
}
);
width = 934;
}
);
note = AE;
unicode = 00C6;
},
{
glyphname = Eth;
lastChange = "2017-12-19 03:42:34 +0000";
layers = (
{
layerId = "0B1DFD06-3317-40CA-B510-4969A0718C16";
paths = (
{
closed = 1;
nodes = (
"197 641 LINE",
"491 641 LINE SMOOTH",
"582 641 OFFCURVE",
"654 561 OFFCURVE",
"654 470 CURVE SMOOTH",
"654 280 LINE SMOOTH",
"654 159 OFFCURVE",
"557 59 OFFCURVE",
"442 59 CURVE SMOOTH",
"197 59 LINE",
"197 327 LINE",
"445 327 LINE",
"445 389 LINE",
"197 389 LINE"
);
},
{
closed = 1;
nodes = (
"131 65 LINE SMOOTH",
"131 31 OFFCURVE",
"159 0 OFFCURVE",
"193 0 CURVE SMOOTH",
"442 0 LINE SMOOTH",
"594 0 OFFCURVE",
"721 122 OFFCURVE",
"721 280 CURVE SMOOTH",
"721 470 LINE SMOOTH",
"721 598 OFFCURVE",
"619 700 OFFCURVE",
"491 700 CURVE SMOOTH",
"131 700 LINE",
"131 389 LINE",
"65 389 LINE",
"65 327 LINE",
"131 327 LINE"
);
}
);
width = 785;
}
);
note = Eth;
unicode = 00D0;
},
{
glyphname = Dcroat;
lastChange = "2017-12-19 03:42:34 +0000";
layers = (
{
layerId = "0B1DFD06-3317-40CA-B510-4969A0718C16";
paths = (
{
closed = 1;
nodes = (
"197 641 LINE",
"491 641 LINE SMOOTH",
"582 641 OFFCURVE",
"654 561 OFFCURVE",
"654 470 CURVE SMOOTH",
"654 280 LINE SMOOTH",
"654 159 OFFCURVE",
"557 59 OFFCURVE",
"442 59 CURVE SMOOTH",
"197 59 LINE",
"197 327 LINE",
"445 327 LINE",
"445 389 LINE",
"197 389 LINE"
);
},
{
closed = 1;
nodes = (
"131 65 LINE SMOOTH",
"131 31 OFFCURVE",
"159 0 OFFCURVE",
"193 0 CURVE SMOOTH",
"442 0 LINE SMOOTH",
"594 0 OFFCURVE",
"721 122 OFFCURVE",
"721 280 CURVE SMOOTH",
"721 470 LINE SMOOTH",
"721 598 OFFCURVE",
"619 700 OFFCURVE",
"491 700 CURVE SMOOTH",
"131 700 LINE",
"131 389 LINE",
"65 389 LINE",
"65 327 LINE",
"131 327 LINE"
);
}
);
width = 785;
}
);
note = Dcroat;
rightKerningGroup = D;
unicode = 0110;
},
{
glyphname = Eacute;
lastChange = "2017-12-19 03:42:34 +0000";
layers = (
{
background = {
paths = (
{
closed = 1;
nodes = (
"554 0 LINE",
"571 179 LINE",
"544 179 LINE",
"538 124 OFFCURVE",
"520 40 OFFCURVE",
"456 40 CURVE SMOOTH",
"201 40 LINE",
"201 659 LINE",
"441 659 LINE SMOOTH",
"516 659 OFFCURVE",
"525 567 OFFCURVE",
"528 527 CURVE",
"555 527 LINE",
"555 700 LINE",
"16 700 LINE",
"16 673 LINE",
"44 673 LINE SMOOTH",
"83 673 OFFCURVE",
"103 662 OFFCURVE",
"103 637 CURVE SMOOTH",
"103 62 LINE SMOOTH",
"103 37 OFFCURVE",
"83 26 OFFCURVE",
"44 26 CURVE SMOOTH",
"16 26 LINE",
"16 0 LINE"
);
},
{
closed = 1;
nodes = (
"455 251 LINE",
"455 485 LINE",
"431 485 LINE",
"427 436 OFFCURVE",
"424 388 OFFCURVE",
"379 388 CURVE SMOOTH",
"162 388 LINE",
"162 348 LINE",
"379 348 LINE SMOOTH",
"424 348 OFFCURVE",
"427 300 OFFCURVE",
"431 251 CURVE"
);
},
{
closed = 1;
nodes = (
"398 865 LINE SMOOTH",
"420 877 OFFCURVE",
"432 890 OFFCURVE",
"432 907 CURVE SMOOTH",
"432 922 OFFCURVE",
"420 937 OFFCURVE",
"398 937 CURVE SMOOTH",
"377 937 OFFCURVE",
"362 921 OFFCURVE",
"354 914 CURVE SMOOTH",
"239 807 LINE",
"256 782 LINE"
);
}
);
};
components = (
{
name = E;
},
{
name = acute;
transform = "{1, 0, 0, 1, 56, 230}";
}
);
layerId = "0B1DFD06-3317-40CA-B510-4969A0718C16";
width = 607;
}
);
note = Eacute;
unicode = 00C9;
},
{
glyphname = Ebreve;
lastChange = "2017-12-19 03:42:34 +0000";
layers = (
{
background = {
paths = (
{
closed = 1;
nodes = (
"554 0 LINE",
"571 179 LINE",
"544 179 LINE",
"538 124 OFFCURVE",
"520 40 OFFCURVE",
"456 40 CURVE SMOOTH",
"201 40 LINE",
"201 659 LINE",
"441 659 LINE SMOOTH",
"516 659 OFFCURVE",
"525 567 OFFCURVE",
"528 527 CURVE",
"555 527 LINE",
"555 700 LINE",
"16 700 LINE",
"16 673 LINE",
"44 673 LINE SMOOTH",
"83 673 OFFCURVE",
"103 662 OFFCURVE",
"103 637 CURVE SMOOTH",
"103 62 LINE SMOOTH",
"103 37 OFFCURVE",
"83 26 OFFCURVE",
"44 26 CURVE SMOOTH",
"16 26 LINE",
"16 0 LINE"
);
},
{
closed = 1;
nodes = (
"455 251 LINE",
"455 485 LINE",
"431 485 LINE",
"427 436 OFFCURVE",
"424 388 OFFCURVE",
"379 388 CURVE SMOOTH",
"162 388 LINE",
"162 348 LINE",
"379 348 LINE SMOOTH",
"424 348 OFFCURVE",
"427 300 OFFCURVE",
"431 251 CURVE"
);
},
{
closed = 1;
nodes = (
"432 776 OFFCURVE",
"474 832 OFFCURVE",
"478 907 CURVE",
"445 907 LINE",
"439 848 OFFCURVE",
"397 822 OFFCURVE",
"333 822 CURVE SMOOTH",
"269 822 OFFCURVE",
"226 848 OFFCURVE",
"219 907 CURVE",
"186 907 LINE",
"190 829 OFFCURVE",
"232 776 OFFCURVE",
"333 776 CURVE SMOOTH"
);
}
);
};
components = (
{
name = E;
},
{
name = breve;
transform = "{1, 0, 0, 1, 68, 230}";
}
);
layerId = "0B1DFD06-3317-40CA-B510-4969A0718C16";
width = 607;
}
);
note = Ebreve;
unicode = 0114;
},
{
glyphname = Ecaron;
lastChange = "2017-12-19 03:42:34 +0000";
layers = (
{
background = {
paths = (
{
closed = 1;
nodes = (
"554 0 LINE",
"571 179 LINE",
"544 179 LINE",
"538 124 OFFCURVE",
"520 40 OFFCURVE",
"456 40 CURVE SMOOTH",
"201 40 LINE",
"201 659 LINE",
"441 659 LINE SMOOTH",
"516 659 OFFCURVE",
"525 567 OFFCURVE",
"528 527 CURVE",
"555 527 LINE",
"555 700 LINE",
"16 700 LINE",
"16 673 LINE",
"44 673 LINE SMOOTH",
"83 673 OFFCURVE",
"103 662 OFFCURVE",
"103 637 CURVE SMOOTH",
"103 62 LINE SMOOTH",
"103 37 OFFCURVE",
"83 26 OFFCURVE",
"44 26 CURVE SMOOTH",
"16 26 LINE",
"16 0 LINE"
);
},
{
closed = 1;
nodes = (
"455 251 LINE",
"455 485 LINE",
"431 485 LINE",
"427 436 OFFCURVE",
"424 388 OFFCURVE",
"379 388 CURVE SMOOTH",
"162 388 LINE",
"162 348 LINE",
"379 348 LINE SMOOTH",
"424 348 OFFCURVE",
"427 300 OFFCURVE",
"431 251 CURVE"
);
},
{
closed = 1;
nodes = (
"357 782 LINE",
"481 911 LINE",
"462 932 LINE",
"354 847 LINE",
"346 840 OFFCURVE",
"337 836 OFFCURVE",
"331 836 CURVE SMOOTH",
"325 836 OFFCURVE",
"317 840 OFFCURVE",
"307 847 CURVE",
"199 932 LINE",
"180 911 LINE",
"304 782 LINE"
);
}
);
};
components = (
{
name = E;
},
{
name = caron;
transform = "{1, 0, 0, 1, 68, 230}";
}
);
layerId = "0B1DFD06-3317-40CA-B510-4969A0718C16";
width = 607;
}
);
note = Ecaron;
unicode = 011A;
},
{
glyphname = Ecircumflex;
lastChange = "2017-12-19 03:42:34 +0000";
layers = (
{
background = {
paths = (
{
closed = 1;
nodes = (
"554 0 LINE",
"571 179 LINE",
"544 179 LINE",
"538 124 OFFCURVE",
"520 40 OFFCURVE",
"456 40 CURVE SMOOTH",
"201 40 LINE",
"201 659 LINE",
"441 659 LINE SMOOTH",
"516 659 OFFCURVE",
"525 567 OFFCURVE",
"528 527 CURVE",
"555 527 LINE",
"555 700 LINE",
"16 700 LINE",
"16 673 LINE",
"44 673 LINE SMOOTH",
"83 673 OFFCURVE",
"103 662 OFFCURVE",
"103 637 CURVE SMOOTH",
"103 62 LINE SMOOTH",
"103 37 OFFCURVE",
"83 26 OFFCURVE",
"44 26 CURVE SMOOTH",
"16 26 LINE",
"16 0 LINE"
);
},
{
closed = 1;
nodes = (
"455 251 LINE",
"455 485 LINE",
"431 485 LINE",
"427 436 OFFCURVE",
"424 388 OFFCURVE",
"379 388 CURVE SMOOTH",
"162 388 LINE",
"162 348 LINE",
"379 348 LINE SMOOTH",
"424 348 OFFCURVE",
"427 300 OFFCURVE",
"431 251 CURVE"
);
},
{
closed = 1;
nodes = (
"304 868 LINE SMOOTH",
"312 874 OFFCURVE",
"322 879 OFFCURVE",
"328 879 CURVE SMOOTH",
"334 879 OFFCURVE",
"342 874 OFFCURVE",
"351 868 CURVE",
"459 782 LINE",
"478 803 LINE",
"354 932 LINE",
"301 932 LINE",
"177 803 LINE",
"196 782 LINE"
);
}
);
};
components = (
{
name = E;
},
{
name = circumflex;
transform = "{1, 0, 0, 1, 68, 230}";
}
);
layerId = "0B1DFD06-3317-40CA-B510-4969A0718C16";
width = 607;
}
);
note = Ecircumflex;
unicode = 00CA;
},
{
glyphname = Ecircumflexacute;
lastChange = "2017-12-19 03:42:34 +0000";
layers = (
{
background = {
paths = (
{
closed = 1;
nodes = (
"554 0 LINE",
"571 179 LINE",
"544 179 LINE",
"538 124 OFFCURVE",
"520 40 OFFCURVE",
"456 40 CURVE SMOOTH",
"201 40 LINE",
"201 659 LINE",
"441 659 LINE SMOOTH",
"516 659 OFFCURVE",
"525 567 OFFCURVE",
"528 527 CURVE",
"555 527 LINE",
"555 700 LINE",
"16 700 LINE",
"16 673 LINE",
"44 673 LINE SMOOTH",
"83 673 OFFCURVE",
"103 662 OFFCURVE",
"103 637 CURVE SMOOTH",
"103 62 LINE SMOOTH",
"103 37 OFFCURVE",
"83 26 OFFCURVE",
"44 26 CURVE SMOOTH",
"16 26 LINE",
"16 0 LINE"
);
},
{
closed = 1;
nodes = (
"455 251 LINE",
"455 485 LINE",
"431 485 LINE",
"427 436 OFFCURVE",
"424 388 OFFCURVE",
"379 388 CURVE SMOOTH",
"162 388 LINE",
"162 348 LINE",
"379 348 LINE SMOOTH",
"424 348 OFFCURVE",
"427 300 OFFCURVE",
"431 251 CURVE"
);
},
{
closed = 1;
nodes = (
"290 862 LINE SMOOTH",
"300 870 OFFCURVE",
"310 878 OFFCURVE",
"318 878 CURVE SMOOTH",
"324 878 OFFCURVE",
"332 873 OFFCURVE",
"341 867 CURVE",
"447 781 LINE",
"466 803 LINE",
"344 932 LINE",
"293 932 LINE",
"171 803 LINE",
"189 781 LINE"
);
},
{
closed = 1;
nodes = (
"555 960 LINE SMOOTH",
"578 972 OFFCURVE",
"591 988 OFFCURVE",
"591 1003 CURVE SMOOTH",
"591 1017 OFFCURVE",
"580 1034 OFFCURVE",
"557 1034 CURVE SMOOTH",
"538 1034 OFFCURVE",
"521 1018 OFFCURVE",
"511 1008 CURVE SMOOTH",
"415 915 LINE",
"433 893 LINE"
);
}
);
};
components = (
{
name = E;
},
{
name = circumflexacute;
transform = "{1, 0, 0, 1, 564, 230}";
}
);
layerId = "0B1DFD06-3317-40CA-B510-4969A0718C16";
width = 607;
}
);
note = Ecircumflexacute;
unicode = 1EBE;
},
{
glyphname = Ecircumflexdotbelow;
lastChange = "2017-12-19 03:42:34 +0000";
layers = (
{
background = {
paths = (
{
closed = 1;
nodes = (
"554 0 LINE",
"571 179 LINE",
"544 179 LINE",
"538 124 OFFCURVE",
"520 40 OFFCURVE",
"456 40 CURVE SMOOTH",
"201 40 LINE",
"201 659 LINE",
"441 659 LINE SMOOTH",
"516 659 OFFCURVE",
"525 567 OFFCURVE",
"528 527 CURVE",
"555 527 LINE",
"555 700 LINE",
"16 700 LINE",
"16 673 LINE",
"44 673 LINE SMOOTH",
"83 673 OFFCURVE",
"103 662 OFFCURVE",
"103 637 CURVE SMOOTH",
"103 62 LINE SMOOTH",
"103 37 OFFCURVE",
"83 26 OFFCURVE",
"44 26 CURVE SMOOTH",
"16 26 LINE",
"16 0 LINE"
);
},
{
closed = 1;
nodes = (
"350 -159 OFFCURVE",
"368 -140 OFFCURVE",
"368 -112 CURVE SMOOTH",
"368 -84 OFFCURVE",
"350 -64 OFFCURVE",
"322 -64 CURVE SMOOTH",
"294 -64 OFFCURVE",
"275 -84 OFFCURVE",
"275 -112 CURVE SMOOTH",
"275 -140 OFFCURVE",
"294 -159 OFFCURVE",
"322 -159 CURVE SMOOTH"
);
},
{
closed = 1;
nodes = (
"455 251 LINE",
"455 485 LINE",
"431 485 LINE",
"427 436 OFFCURVE",
"424 388 OFFCURVE",
"379 388 CURVE SMOOTH",
"162 388 LINE",
"162 348 LINE",
"379 348 LINE SMOOTH",
"424 348 OFFCURVE",
"427 300 OFFCURVE",
"431 251 CURVE"
);
},
{
closed = 1;
nodes = (
"294 868 LINE SMOOTH",
"302 874 OFFCURVE",
"312 879 OFFCURVE",
"318 879 CURVE SMOOTH",
"324 879 OFFCURVE",
"332 874 OFFCURVE",
"341 868 CURVE",
"449 782 LINE",
"468 803 LINE",
"344 932 LINE",
"291 932 LINE",
"167 803 LINE",
"186 782 LINE"
);
}
);
};
components = (
{
name = E;
},
{
name = dotbelowcomb;
transform = "{1, 0, 0, 1, 565, 0}";
},
{
name = circumflex;
transform = "{1, 0, 0, 1, 68, 230}";
}
);
layerId = "0B1DFD06-3317-40CA-B510-4969A0718C16";
width = 607;
}
);
note = Ecircumflexdotbelow;
unicode = 1EC6;
},
{
glyphname = Ecircumflexgrave;
lastChange = "2017-12-19 03:42:34 +0000";
layers = (
{
background = {
paths = (
{
closed = 1;
nodes = (
"554 0 LINE",
"571 179 LINE",
"544 179 LINE",
"538 124 OFFCURVE",
"520 40 OFFCURVE",
"456 40 CURVE SMOOTH",
"201 40 LINE",
"201 659 LINE",
"441 659 LINE SMOOTH",
"516 659 OFFCURVE",
"525 567 OFFCURVE",
"528 527 CURVE",
"555 527 LINE",
"555 700 LINE",
"16 700 LINE",
"16 673 LINE",
"44 673 LINE SMOOTH",
"83 673 OFFCURVE",
"103 662 OFFCURVE",
"103 637 CURVE SMOOTH",
"103 62 LINE SMOOTH",
"103 37 OFFCURVE",
"83 26 OFFCURVE",
"44 26 CURVE SMOOTH",
"16 26 LINE",
"16 0 LINE"
);
},
{
closed = 1;
nodes = (
"455 251 LINE",
"455 485 LINE",
"431 485 LINE",
"427 436 OFFCURVE",
"424 388 OFFCURVE",
"379 388 CURVE SMOOTH",
"162 388 LINE",
"162 348 LINE",
"379 348 LINE SMOOTH",
"424 348 OFFCURVE",
"427 300 OFFCURVE",
"431 251 CURVE"
);
},
{
closed = 1;
nodes = (
"227 915 LINE",
"132 1008 LINE SMOOTH",
"122 1018 OFFCURVE",
"105 1034 OFFCURVE",
"85 1034 CURVE SMOOTH",
"63 1034 OFFCURVE",
"52 1017 OFFCURVE",
"52 1003 CURVE SMOOTH",
"52 988 OFFCURVE",
"65 972 OFFCURVE",
"88 960 CURVE SMOOTH",
"210 893 LINE"
);
},
{
closed = 1;
nodes = (
"290 862 LINE SMOOTH",
"300 870 OFFCURVE",
"310 878 OFFCURVE",
"318 878 CURVE SMOOTH",
"324 878 OFFCURVE",
"332 873 OFFCURVE",
"341 867 CURVE",
"447 781 LINE",
"466 803 LINE",
"344 932 LINE",
"293 932 LINE",
"171 803 LINE",
"189 781 LINE"
);
}
);
};
components = (
{
name = E;
},
{
name = circumflexgrave;
transform = "{1, 0, 0, 1, 564, 230}";
}
);
layerId = "0B1DFD06-3317-40CA-B510-4969A0718C16";
width = 607;
}
);
note = Ecircumflexgrave;
unicode = 1EC0;
},
{
glyphname = Ecircumflexhookabove;
lastChange = "2017-12-19 03:42:34 +0000";
layers = (
{
background = {
paths = (
{
closed = 1;
nodes = (
"554 0 LINE",
"571 179 LINE",
"544 179 LINE",
"538 124 OFFCURVE",
"520 40 OFFCURVE",
"456 40 CURVE SMOOTH",
"201 40 LINE",
"201 659 LINE",
"441 659 LINE SMOOTH",
"516 659 OFFCURVE",
"525 567 OFFCURVE",
"528 527 CURVE",
"555 527 LINE",
"555 700 LINE",
"16 700 LINE",
"16 673 LINE",
"44 673 LINE SMOOTH",
"83 673 OFFCURVE",
"103 662 OFFCURVE",
"103 637 CURVE SMOOTH",
"103 62 LINE SMOOTH",
"103 37 OFFCURVE",
"83 26 OFFCURVE",
"44 26 CURVE SMOOTH",
"16 26 LINE",
"16 0 LINE"
);
},
{
closed = 1;
nodes = (
"455 251 LINE",
"455 485 LINE",
"431 485 LINE",
"427 436 OFFCURVE",
"424 388 OFFCURVE",
"379 388 CURVE SMOOTH",
"162 388 LINE",
"162 348 LINE",
"379 348 LINE SMOOTH",
"424 348 OFFCURVE",
"427 300 OFFCURVE",
"431 251 CURVE"
);
},
{
closed = 1;
nodes = (
"286 858 LINE",
"297 868 OFFCURVE",
"309 878 OFFCURVE",
"318 878 CURVE SMOOTH",
"324 878 OFFCURVE",
"332 873 OFFCURVE",
"341 867 CURVE",
"447 781 LINE",
"466 803 LINE",
"344 932 LINE",
"293 932 LINE",
"171 803 LINE",
"189 781 LINE"
);
},
{
closed = 1;
nodes = (
"493 898 LINE",
"474 905 OFFCURVE",
"464 912 OFFCURVE",
"464 926 CURVE SMOOTH",
"464 954 OFFCURVE",
"544 965 OFFCURVE",
"544 1010 CURVE SMOOTH",
"544 1047 OFFCURVE",
"502 1063 OFFCURVE",
"460 1063 CURVE SMOOTH",
"429 1063 OFFCURVE",
"384 1053 OFFCURVE",
"384 1022 CURVE SMOOTH",
"384 1010 OFFCURVE",
"395 1001 OFFCURVE",
"405 1001 CURVE SMOOTH",
"434 1001 OFFCURVE",
"421 1040 OFFCURVE",
"464 1040 CURVE SMOOTH",
"483 1040 OFFCURVE",
"494 1028 OFFCURVE",
"494 1013 CURVE SMOOTH",
"494 973 OFFCURVE",
"421 965 OFFCURVE",
"421 925 CURVE SMOOTH",
"421 901 OFFCURVE",
"437 880 OFFCURVE",
"484 880 CURVE"
);
}
);
};
components = (
{
name = E;
},
{
name = circumflexhookabove;
transform = "{1, 0, 0, 1, 564, 230}";
}
);
layerId = "0B1DFD06-3317-40CA-B510-4969A0718C16";
width = 607;
}
);
note = Ecircumflexhookabove;
unicode = 1EC2;
},
{
glyphname = Ecircumflextilde;
lastChange = "2017-12-19 03:42:34 +0000";
layers = (
{
background = {
paths = (
{
closed = 1;
nodes = (
"554 0 LINE",
"571 179 LINE",
"544 179 LINE",
"538 124 OFFCURVE",
"520 40 OFFCURVE",
"456 40 CURVE SMOOTH",
"201 40 LINE",
"201 659 LINE",
"441 659 LINE SMOOTH",
"516 659 OFFCURVE",
"525 567 OFFCURVE",
"528 527 CURVE",
"555 527 LINE",
"555 700 LINE",
"16 700 LINE",
"16 673 LINE",
"44 673 LINE SMOOTH",
"83 673 OFFCURVE",
"103 662 OFFCURVE",
"103 637 CURVE SMOOTH",
"103 62 LINE SMOOTH",
"103 37 OFFCURVE",
"83 26 OFFCURVE",
"44 26 CURVE SMOOTH",
"16 26 LINE",
"16 0 LINE"
);
},
{
closed = 1;
nodes = (
"455 251 LINE",
"455 485 LINE",
"431 485 LINE",
"427 436 OFFCURVE",
"424 388 OFFCURVE",
"379 388 CURVE SMOOTH",
"162 388 LINE",
"162 348 LINE",
"379 348 LINE SMOOTH",
"424 348 OFFCURVE",
"427 300 OFFCURVE",
"431 251 CURVE"
);
},
{
closed = 1;
nodes = (
"290 862 LINE SMOOTH",
"300 870 OFFCURVE",
"310 878 OFFCURVE",
"318 878 CURVE SMOOTH",
"324 878 OFFCURVE",
"332 873 OFFCURVE",
"341 867 CURVE",
"447 781 LINE",
"466 803 LINE",
"344 932 LINE",
"293 932 LINE",
"171 803 LINE",
"189 781 LINE"
);
},
{
closed = 1;
nodes = (
"193 997 OFFCURVE",
"211 1018 OFFCURVE",
"242 1018 CURVE SMOOTH",
"291 1018 OFFCURVE",
"338 964 OFFCURVE",
"387 964 CURVE SMOOTH",
"440 964 OFFCURVE",
"469 1012 OFFCURVE",
"481 1063 CURVE",
"460 1075 LINE",
"447 1035 OFFCURVE",
"431 1012 OFFCURVE",
"398 1012 CURVE SMOOTH",
"351 1012 OFFCURVE",
"302 1065 OFFCURVE",
"253 1065 CURVE SMOOTH",
"202 1065 OFFCURVE",
"170 1021 OFFCURVE",
"160 970 CURVE",
"180 958 LINE"
);
}
);
};
components = (
{
name = E;
},
{
name = circumflextilde;
transform = "{1, 0, 0, 1, 564, 230}";
}
);
layerId = "0B1DFD06-3317-40CA-B510-4969A0718C16";
width = 607;
}
);
note = Ecircumflextilde;
unicode = 1EC4;
},
{
glyphname = Edieresis;
lastChange = "2017-12-19 03:42:34 +0000";
layers = (
{
background = {
paths = (
{
closed = 1;
nodes = (
"554 0 LINE",
"571 179 LINE",
"544 179 LINE",
"538 124 OFFCURVE",
"520 40 OFFCURVE",
"456 40 CURVE SMOOTH",
"201 40 LINE",
"201 659 LINE",
"441 659 LINE SMOOTH",
"516 659 OFFCURVE",
"525 567 OFFCURVE",
"528 527 CURVE",
"555 527 LINE",
"555 700 LINE",
"16 700 LINE",
"16 673 LINE",
"44 673 LINE SMOOTH",
"83 673 OFFCURVE",
"103 662 OFFCURVE",
"103 637 CURVE SMOOTH",
"103 62 LINE SMOOTH",
"103 37 OFFCURVE",
"83 26 OFFCURVE",
"44 26 CURVE SMOOTH",
"16 26 LINE",
"16 0 LINE"
);
},
{
closed = 1;
nodes = (
"455 251 LINE",
"455 485 LINE",
"431 485 LINE",
"427 436 OFFCURVE",
"424 388 OFFCURVE",
"379 388 CURVE SMOOTH",
"162 388 LINE",
"162 348 LINE",
"379 348 LINE SMOOTH",
"424 348 OFFCURVE",
"427 300 OFFCURVE",
"431 251 CURVE"
);
},
{
closed = 1;
nodes = (
"254 781 OFFCURVE",
"272 800 OFFCURVE",
"272 827 CURVE SMOOTH",
"272 855 OFFCURVE",
"254 875 OFFCURVE",
"225 875 CURVE SMOOTH",
"197 875 OFFCURVE",
"179 855 OFFCURVE",
"179 827 CURVE SMOOTH",
"179 800 OFFCURVE",
"197 781 OFFCURVE",
"225 781 CURVE SMOOTH"
);
},
{
closed = 1;
nodes = (
"470 781 OFFCURVE",
"488 800 OFFCURVE",
"488 827 CURVE SMOOTH",
"488 855 OFFCURVE",
"470 875 OFFCURVE",
"441 875 CURVE SMOOTH",
"412 875 OFFCURVE",
"394 855 OFFCURVE",
"394 827 CURVE SMOOTH",
"394 800 OFFCURVE",
"412 781 OFFCURVE",
"441 781 CURVE SMOOTH"
);
}
);
};
components = (
{
name = E;
},
{
name = dieresis;
transform = "{1, 0, 0, 1, 68, 230}";
}
);
layerId = "0B1DFD06-3317-40CA-B510-4969A0718C16";
width = 607;
}
);
note = Edieresis;
unicode = 00CB;
},
{
glyphname = Edotaccent;
lastChange = "2017-12-19 03:42:34 +0000";
layers = (
{
background = {
paths = (
{
closed = 1;
nodes = (
"554 0 LINE",
"571 179 LINE",
"544 179 LINE",
"538 124 OFFCURVE",
"520 40 OFFCURVE",
"456 40 CURVE SMOOTH",
"201 40 LINE",
"201 659 LINE",
"441 659 LINE SMOOTH",
"516 659 OFFCURVE",
"525 567 OFFCURVE",
"528 527 CURVE",
"555 527 LINE",
"555 700 LINE",
"16 700 LINE",
"16 673 LINE",
"44 673 LINE SMOOTH",
"83 673 OFFCURVE",
"103 662 OFFCURVE",
"103 637 CURVE SMOOTH",
"103 62 LINE SMOOTH",
"103 37 OFFCURVE",
"83 26 OFFCURVE",
"44 26 CURVE SMOOTH",
"16 26 LINE",
"16 0 LINE"
);
},
{
closed = 1;
nodes = (
"455 251 LINE",
"455 485 LINE",
"431 485 LINE",
"427 436 OFFCURVE",
"424 388 OFFCURVE",
"379 388 CURVE SMOOTH",
"162 388 LINE",
"162 348 LINE",
"379 348 LINE SMOOTH",
"424 348 OFFCURVE",
"427 300 OFFCURVE",
"431 251 CURVE"
);
},
{
closed = 1;
nodes = (
"362 765 OFFCURVE",
"380 784 OFFCURVE",
"380 811 CURVE SMOOTH",
"380 839 OFFCURVE",
"362 858 OFFCURVE",
"334 858 CURVE SMOOTH",
"305 858 OFFCURVE",
"287 839 OFFCURVE",
"287 811 CURVE SMOOTH",
"287 784 OFFCURVE",
"305 765 OFFCURVE",
"334 765 CURVE SMOOTH"
);
}
);
};
components = (
{
name = E;
},
{
name = dotaccent;
transform = "{1, 0, 0, 1, 68, 230}";
}
);
layerId = "0B1DFD06-3317-40CA-B510-4969A0718C16";
width = 607;
}
);
note = Edotaccent;
unicode = 0116;
},
{
glyphname = Edotbelow;
lastChange = "2017-12-19 03:42:34 +0000";
layers = (
{
background = {
paths = (
{
closed = 1;
nodes = (
"554 0 LINE",
"571 179 LINE",
"544 179 LINE",
"538 124 OFFCURVE",
"520 40 OFFCURVE",
"456 40 CURVE SMOOTH",
"201 40 LINE",
"201 659 LINE",
"441 659 LINE SMOOTH",
"516 659 OFFCURVE",
"525 567 OFFCURVE",
"528 527 CURVE",
"555 527 LINE",
"555 700 LINE",
"16 700 LINE",
"16 673 LINE",
"44 673 LINE SMOOTH",
"83 673 OFFCURVE",
"103 662 OFFCURVE",
"103 637 CURVE SMOOTH",
"103 62 LINE SMOOTH",
"103 37 OFFCURVE",
"83 26 OFFCURVE",
"44 26 CURVE SMOOTH",
"16 26 LINE",
"16 0 LINE"
);
},
{
closed = 1;
nodes = (
"343 -159 OFFCURVE",
"361 -140 OFFCURVE",
"361 -112 CURVE SMOOTH",
"361 -84 OFFCURVE",
"343 -64 OFFCURVE",
"315 -64 CURVE SMOOTH",
"287 -64 OFFCURVE",
"268 -84 OFFCURVE",
"268 -112 CURVE SMOOTH",
"268 -140 OFFCURVE",
"287 -159 OFFCURVE",
"315 -159 CURVE SMOOTH"
);
},
{
closed = 1;
nodes = (
"455 251 LINE",
"455 485 LINE",
"431 485 LINE",
"427 436 OFFCURVE",
"424 388 OFFCURVE",
"379 388 CURVE SMOOTH",
"162 388 LINE",
"162 348 LINE",
"379 348 LINE SMOOTH",
"424 348 OFFCURVE",
"427 300 OFFCURVE",
"431 251 CURVE"
);
}
);
};
components = (
{
name = E;
},
{
name = dotbelowcomb;
transform = "{1, 0, 0, 1, 565, 0}";
}
);
layerId = "0B1DFD06-3317-40CA-B510-4969A0718C16";
width = 607;
}
);
note = Edotbelow;
unicode = 1EB8;
},
{
glyphname = Egrave;
lastChange = "2017-12-19 03:42:34 +0000";
layers = (
{
background = {
paths = (
{
closed = 1;
nodes = (
"554 0 LINE",
"571 179 LINE",
"544 179 LINE",
"538 124 OFFCURVE",
"520 40 OFFCURVE",
"456 40 CURVE SMOOTH",
"201 40 LINE",
"201 659 LINE",
"441 659 LINE SMOOTH",
"516 659 OFFCURVE",
"525 567 OFFCURVE",
"528 527 CURVE",
"555 527 LINE",
"555 700 LINE",
"16 700 LINE",
"16 673 LINE",
"44 673 LINE SMOOTH",
"83 673 OFFCURVE",
"103 662 OFFCURVE",
"103 637 CURVE SMOOTH",
"103 62 LINE SMOOTH",
"103 37 OFFCURVE",
"83 26 OFFCURVE",
"44 26 CURVE SMOOTH",
"16 26 LINE",
"16 0 LINE"
);
},
{
closed = 1;
nodes = (
"455 251 LINE",
"455 485 LINE",
"431 485 LINE",
"427 436 OFFCURVE",
"424 388 OFFCURVE",
"379 388 CURVE SMOOTH",
"162 388 LINE",
"162 348 LINE",
"379 348 LINE SMOOTH",
"424 348 OFFCURVE",
"427 300 OFFCURVE",
"431 251 CURVE"
);
},
{
closed = 1;
nodes = (
"425 807 LINE",
"310 913 LINE",
"301 922 OFFCURVE",
"285 937 OFFCURVE",
"265 937 CURVE SMOOTH",
"245 937 OFFCURVE",
"233 924 OFFCURVE",
"233 908 CURVE SMOOTH",
"233 890 OFFCURVE",
"245 876 OFFCURVE",
"264 865 CURVE SMOOTH",
"407 782 LINE"
);
}
);
};
components = (
{
name = E;
},
{
name = grave;
transform = "{1, 0, 0, 1, 68, 230}";
}
);
layerId = "0B1DFD06-3317-40CA-B510-4969A0718C16";
width = 607;
}
);
note = Egrave;
unicode = 00C8;
},
{
glyphname = Ehookabove;
lastChange = "2017-12-19 03:42:34 +0000";
layers = (
{
background = {
paths = (
{
closed = 1;
nodes = (
"554 0 LINE",
"571 179 LINE",
"544 179 LINE",
"538 124 OFFCURVE",
"520 40 OFFCURVE",
"456 40 CURVE SMOOTH",
"201 40 LINE",
"201 659 LINE",
"441 659 LINE SMOOTH",
"516 659 OFFCURVE",
"525 567 OFFCURVE",
"528 527 CURVE",
"555 527 LINE",
"555 700 LINE",
"16 700 LINE",
"16 673 LINE",
"44 673 LINE SMOOTH",
"83 673 OFFCURVE",
"103 662 OFFCURVE",
"103 637 CURVE SMOOTH",
"103 62 LINE SMOOTH",
"103 37 OFFCURVE",
"83 26 OFFCURVE",
"44 26 CURVE SMOOTH",
"16 26 LINE",
"16 0 LINE"
);
},
{
closed = 1;
nodes = (
"455 251 LINE",
"455 485 LINE",
"431 485 LINE",
"427 436 OFFCURVE",
"424 388 OFFCURVE",
"379 388 CURVE SMOOTH",
"162 388 LINE",
"162 348 LINE",
"379 348 LINE SMOOTH",
"424 348 OFFCURVE",
"427 300 OFFCURVE",
"431 251 CURVE"
);
},
{
closed = 1;
nodes = (
"367 798 LINE",
"348 805 OFFCURVE",
"336 811 OFFCURVE",
"336 828 CURVE SMOOTH",
"336 861 OFFCURVE",
"425 876 OFFCURVE",
"425 927 CURVE SMOOTH",
"425 969 OFFCURVE",
"389 991 OFFCURVE",
"336 991 CURVE SMOOTH",
"289 991 OFFCURVE",
"248 974 OFFCURVE",
"248 940 CURVE SMOOTH",
"248 923 OFFCURVE",
"256 915 OFFCURVE",
"271 915 CURVE SMOOTH",
"294 915 OFFCURVE",
"296 934 OFFCURVE",
"299 942 CURVE SMOOTH",
"304 956 OFFCURVE",
"321 962 OFFCURVE",
"337 962 CURVE SMOOTH",
"358 962 OFFCURVE",
"371 947 OFFCURVE",
"371 930 CURVE SMOOTH",
"371 885 OFFCURVE",
"289 874 OFFCURVE",
"289 828 CURVE SMOOTH",
"289 801 OFFCURVE",
"307 778 OFFCURVE",
"358 778 CURVE"
);
}
);
};
components = (
{
name = E;
},
{
name = hookabovecomb;
transform = "{1, 0, 0, 1, 565, 230}";
}
);
layerId = "0B1DFD06-3317-40CA-B510-4969A0718C16";
width = 607;
}
);
note = Ehookabove;
unicode = 1EBA;
},
{
glyphname = Emacron;
lastChange = "2017-12-19 03:42:34 +0000";
layers = (
{
background = {
paths = (
{
closed = 1;
nodes = (
"554 0 LINE",
"571 179 LINE",
"544 179 LINE",
"538 124 OFFCURVE",
"520 40 OFFCURVE",
"456 40 CURVE SMOOTH",
"201 40 LINE",
"201 659 LINE",
"441 659 LINE SMOOTH",
"516 659 OFFCURVE",
"525 567 OFFCURVE",
"528 527 CURVE",
"555 527 LINE",
"555 700 LINE",
"16 700 LINE",
"16 673 LINE",
"44 673 LINE SMOOTH",
"83 673 OFFCURVE",
"103 662 OFFCURVE",
"103 637 CURVE SMOOTH",
"103 62 LINE SMOOTH",
"103 37 OFFCURVE",
"83 26 OFFCURVE",
"44 26 CURVE SMOOTH",
"16 26 LINE",
"16 0 LINE"
);
},
{
closed = 1;
nodes = (
"455 251 LINE",
"455 485 LINE",
"431 485 LINE",
"427 436 OFFCURVE",
"424 388 OFFCURVE",
"379 388 CURVE SMOOTH",
"162 388 LINE",
"162 348 LINE",
"379 348 LINE SMOOTH",
"424 348 OFFCURVE",
"427 300 OFFCURVE",
"431 251 CURVE"
);
},
{
closed = 1;
nodes = (
"495 782 LINE",
"495 824 LINE",
"162 824 LINE",
"162 782 LINE"
);
}
);
};
components = (
{
name = E;
},
{
name = macron;
transform = "{1, 0, 0, 1, 68, 230}";
}
);
layerId = "0B1DFD06-3317-40CA-B510-4969A0718C16";
width = 607;
}
);
note = Emacron;
unicode = 0112;
},
{
glyphname = Eogonek;
lastChange = "2017-12-19 03:42:34 +0000";
layers = (
{
background = {
paths = (
{
closed = 1;
nodes = (
"554 0 LINE",
"571 179 LINE",
"544 179 LINE",
"538 124 OFFCURVE",
"520 40 OFFCURVE",
"456 40 CURVE SMOOTH",
"201 40 LINE",
"201 659 LINE",
"441 659 LINE SMOOTH",
"516 659 OFFCURVE",
"525 567 OFFCURVE",
"528 527 CURVE",
"555 527 LINE",
"555 700 LINE",
"16 700 LINE",
"16 673 LINE",
"44 673 LINE SMOOTH",
"83 673 OFFCURVE",
"103 662 OFFCURVE",
"103 637 CURVE SMOOTH",
"103 62 LINE SMOOTH",
"103 37 OFFCURVE",
"83 26 OFFCURVE",
"44 26 CURVE SMOOTH",
"16 26 LINE",
"16 0 LINE"
);
},
{
closed = 1;
nodes = (
"496 -196 OFFCURVE",
"524 -189 OFFCURVE",
"549 -172 CURVE",
"543 -152 LINE",
"527 -158 OFFCURVE",
"510 -162 OFFCURVE",
"497 -162 CURVE SMOOTH",
"464 -162 OFFCURVE",
"437 -146 OFFCURVE",
"437 -106 CURVE SMOOTH",
"437 -66 OFFCURVE",
"464 -26 OFFCURVE",
"510 4 CURVE",
"469 4 LINE",
"416 -22 OFFCURVE",
"376 -64 OFFCURVE",
"376 -114 CURVE SMOOTH",
"376 -147 OFFCURVE",
"395 -196 OFFCURVE",
"470 -196 CURVE SMOOTH"
);
},
{
closed = 1;
nodes = (
"455 251 LINE",
"455 485 LINE",
"431 485 LINE",
"427 436 OFFCURVE",
"424 388 OFFCURVE",
"379 388 CURVE SMOOTH",
"162 388 LINE",
"162 348 LINE",
"379 348 LINE SMOOTH",
"424 348 OFFCURVE",
"427 300 OFFCURVE",
"431 251 CURVE"
);
}
);
};
components = (
{
name = E;
},
{
name = ogonek;
transform = "{1, 0, 0, 1, 256, 0}";
}
);
layerId = "0B1DFD06-3317-40CA-B510-4969A0718C16";
width = 607;
}
);
note = Eogonek;
unicode = 0118;
},
{
glyphname = Etilde;
lastChange = "2017-12-19 03:42:34 +0000";
layers = (
{
background = {
paths = (
{
closed = 1;
nodes = (
"554 0 LINE",
"571 179 LINE",
"544 179 LINE",
"538 124 OFFCURVE",
"520 40 OFFCURVE",
"456 40 CURVE SMOOTH",
"201 40 LINE",
"201 659 LINE",
"441 659 LINE SMOOTH",
"516 659 OFFCURVE",
"525 567 OFFCURVE",
"528 527 CURVE",
"555 527 LINE",
"555 700 LINE",
"16 700 LINE",
"16 673 LINE",
"44 673 LINE SMOOTH",
"83 673 OFFCURVE",
"103 662 OFFCURVE",
"103 637 CURVE SMOOTH",
"103 62 LINE SMOOTH",
"103 37 OFFCURVE",
"83 26 OFFCURVE",
"44 26 CURVE SMOOTH",
"16 26 LINE",
"16 0 LINE"
);
},
{
closed = 1;
nodes = (
"455 251 LINE",
"455 485 LINE",
"431 485 LINE",
"427 436 OFFCURVE",
"424 388 OFFCURVE",
"379 388 CURVE SMOOTH",
"162 388 LINE",
"162 348 LINE",
"379 348 LINE SMOOTH",
"424 348 OFFCURVE",
"427 300 OFFCURVE",
"431 251 CURVE"
);
},
{
closed = 1;
nodes = (
"190 817 OFFCURVE",
"208 838 OFFCURVE",
"241 838 CURVE SMOOTH",
"292 838 OFFCURVE",
"341 784 OFFCURVE",
"392 784 CURVE SMOOTH",
"450 784 OFFCURVE",
"480 832 OFFCURVE",
"492 884 CURVE",
"471 895 LINE",
"455 855 OFFCURVE",
"439 833 OFFCURVE",
"405 833 CURVE SMOOTH",
"356 833 OFFCURVE",
"304 886 OFFCURVE",
"253 886 CURVE SMOOTH",
"199 886 OFFCURVE",
"166 842 OFFCURVE",
"154 790 CURVE",
"176 779 LINE"
);
}
);
};
components = (
{
name = E;
},
{
name = tilde;
transform = "{1, 0, 0, 1, 68, 230}";
}
);
layerId = "0B1DFD06-3317-40CA-B510-4969A0718C16";
width = 607;
}
);
note = Etilde;
unicode = 1EBC;
},
{
glyphname = Hbar;
lastChange = "2017-12-19 03:42:34 +0000";
layers = (
{
components = (
{
name = H;
}
);
layerId = "0B1DFD06-3317-40CA-B510-4969A0718C16";
paths = (
{
closed = 1;
nodes = (
"719 504 LINE",
"719 544 LINE",
"43 544 LINE",
"43 504 LINE"
);
}
);
width = 773;
}
);
note = Hbar;
unicode = 0126;
},
{
glyphname = Lslash;
lastChange = "2017-12-19 03:42:37 +0000";
layers = (
{
layerId = "0B1DFD06-3317-40CA-B510-4969A0718C16";
paths = (
{
closed = 1;
nodes = (
"15 215 LINE",
"96 274 LINE",
"96 0 LINE",
"597 0 LINE",
"597 59 LINE",
"162 59 LINE",
"162 324 LINE",
"270 404 LINE",
"270 482 LINE",
"162 402 LINE",
"162 700 LINE",
"96 700 LINE",
"96 352 LINE",
"15 293 LINE"
);
}
);
width = 647;
}
);
note = Lslash;
unicode = 0141;
},
{
glyphname = Mdotbelow;
lastChange = "2017-12-19 03:42:37 +0000";
layers = (
{
components = (
{
name = M;
}
);
layerId = "0B1DFD06-3317-40CA-B510-4969A0718C16";
paths = (
{
closed = 1;
nodes = (
"479 -159 OFFCURVE",
"497 -140 OFFCURVE",
"497 -112 CURVE SMOOTH",
"497 -84 OFFCURVE",
"479 -64 OFFCURVE",
"451 -64 CURVE SMOOTH",
"423 -64 OFFCURVE",
"404 -84 OFFCURVE",
"404 -112 CURVE SMOOTH",
"404 -140 OFFCURVE",
"423 -159 OFFCURVE",
"451 -159 CURVE SMOOTH"
);
}
);
width = 903;
}
);
note = Mdotbelow;
unicode = 1E42;
},
{
glyphname = Nacute;
lastChange = "2017-12-19 03:42:37 +0000";
layers = (
{
background = {
paths = (
{
closed = 1;
nodes = (
"247 0 LINE",
"247 26 LINE",
"217 26 LINE SMOOTH",
"179 26 OFFCURVE",
"159 37 OFFCURVE",
"159 62 CURVE SMOOTH",
"159 642 LINE",
"587 0 LINE",
"645 0 LINE",
"645 637 LINE SMOOTH",
"645 662 OFFCURVE",
"665 673 OFFCURVE",
"703 673 CURVE SMOOTH",
"733 673 LINE",
"733 700 LINE",
"508 700 LINE",
"508 673 LINE",
"537 673 LINE SMOOTH",
"576 673 OFFCURVE",
"595 662 OFFCURVE",
"595 637 CURVE SMOOTH",
"595 126 LINE",
"217 700 LINE",
"22 700 LINE",
"22 673 LINE",
"51 673 LINE SMOOTH",
"90 673 OFFCURVE",
"109 662 OFFCURVE",
"109 637 CURVE SMOOTH",
"109 62 LINE SMOOTH",
"109 37 OFFCURVE",
"90 26 OFFCURVE",
"51 26 CURVE SMOOTH",
"22 26 LINE",
"22 0 LINE"
);
},
{
closed = 1;
nodes = (
"458 865 LINE SMOOTH",
"480 877 OFFCURVE",
"492 890 OFFCURVE",
"492 907 CURVE SMOOTH",
"492 922 OFFCURVE",
"480 937 OFFCURVE",
"458 937 CURVE SMOOTH",
"437 937 OFFCURVE",
"422 921 OFFCURVE",
"414 914 CURVE SMOOTH",
"299 807 LINE",
"316 782 LINE"
);
}
);
};
components = (
{
name = N;
},
{
name = acute;
transform = "{1, 0, 0, 1, 120, 230}";
}
);
layerId = "0B1DFD06-3317-40CA-B510-4969A0718C16";
width = 755;
}
);
note = Nacute;
unicode = 0143;
},
{
glyphname = Ncaron;
lastChange = "2017-12-19 03:42:37 +0000";
layers = (
{
background = {
paths = (
{
closed = 1;
nodes = (
"247 0 LINE",
"247 26 LINE",
"217 26 LINE SMOOTH",
"179 26 OFFCURVE",
"159 37 OFFCURVE",
"159 62 CURVE SMOOTH",
"159 642 LINE",
"587 0 LINE",
"645 0 LINE",
"645 637 LINE SMOOTH",
"645 662 OFFCURVE",
"665 673 OFFCURVE",
"703 673 CURVE SMOOTH",
"733 673 LINE",
"733 700 LINE",
"508 700 LINE",
"508 673 LINE",
"537 673 LINE SMOOTH",
"576 673 OFFCURVE",
"595 662 OFFCURVE",
"595 637 CURVE SMOOTH",
"595 126 LINE",
"217 700 LINE",
"22 700 LINE",
"22 673 LINE",
"51 673 LINE SMOOTH",
"90 673 OFFCURVE",
"109 662 OFFCURVE",
"109 637 CURVE SMOOTH",
"109 62 LINE SMOOTH",
"109 37 OFFCURVE",
"90 26 OFFCURVE",
"51 26 CURVE SMOOTH",
"22 26 LINE",
"22 0 LINE"
);
},
{
closed = 1;
nodes = (
"403 782 LINE",
"527 911 LINE",
"508 932 LINE",
"400 847 LINE",
"392 840 OFFCURVE",
"383 836 OFFCURVE",
"377 836 CURVE SMOOTH",
"371 836 OFFCURVE",
"363 840 OFFCURVE",
"353 847 CURVE",
"245 932 LINE",
"226 911 LINE",
"350 782 LINE"
);
}
);
};
components = (
{
name = N;
},
{
name = caron;
transform = "{1, 0, 0, 1, 132, 230}";
}
);
layerId = "0B1DFD06-3317-40CA-B510-4969A0718C16";
width = 755;
}
);
note = Ncaron;
unicode = 0147;
},
{
glyphname = Ncommaaccent;
lastChange = "2017-12-19 03:42:37 +0000";
layers = (
{
background = {
paths = (
{
closed = 1;
nodes = (
"247 0 LINE",
"247 26 LINE",
"217 26 LINE SMOOTH",
"179 26 OFFCURVE",
"159 37 OFFCURVE",
"159 62 CURVE SMOOTH",
"159 642 LINE",
"587 0 LINE",
"645 0 LINE",
"645 637 LINE SMOOTH",
"645 662 OFFCURVE",
"665 673 OFFCURVE",
"703 673 CURVE SMOOTH",
"733 673 LINE",
"733 700 LINE",
"508 700 LINE",
"508 673 LINE",
"537 673 LINE SMOOTH",
"576 673 OFFCURVE",
"595 662 OFFCURVE",
"595 637 CURVE SMOOTH",
"595 126 LINE",
"217 700 LINE",
"22 700 LINE",
"22 673 LINE",
"51 673 LINE SMOOTH",
"90 673 OFFCURVE",
"109 662 OFFCURVE",
"109 637 CURVE SMOOTH",
"109 62 LINE SMOOTH",
"109 37 OFFCURVE",
"90 26 OFFCURVE",
"51 26 CURVE SMOOTH",
"22 26 LINE",
"22 0 LINE"
);
},
{
closed = 1;
nodes = (
"369 -258 OFFCURVE",
"413 -198 OFFCURVE",
"413 -135 CURVE SMOOTH",
"413 -87 OFFCURVE",
"389 -67 OFFCURVE",
"360 -67 CURVE SMOOTH",
"331 -67 OFFCURVE",
"314 -87 OFFCURVE",
"314 -111 CURVE SMOOTH",
"314 -145 OFFCURVE",
"349 -152 OFFCURVE",
"349 -187 CURVE SMOOTH",
"349 -223 OFFCURVE",
"323 -256 OFFCURVE",
"296 -282 CURVE",
"313 -299 LINE"
);
}
);
};
components = (
{
name = N;
},
{
name = commaaccentcomb;
}
);
layerId = "0B1DFD06-3317-40CA-B510-4969A0718C16";
width = 719;
}
);
note = Ncommaaccent;
unicode = 0145;
},
{
glyphname = Ndotaccent;
lastChange = "2017-12-19 03:42:37 +0000";
layers = (
{
background = {
paths = (
{
closed = 1;
nodes = (
"247 0 LINE",
"247 26 LINE",
"217 26 LINE SMOOTH",
"179 26 OFFCURVE",
"159 37 OFFCURVE",
"159 62 CURVE SMOOTH",
"159 642 LINE",
"587 0 LINE",
"645 0 LINE",
"645 637 LINE SMOOTH",
"645 662 OFFCURVE",
"665 673 OFFCURVE",
"703 673 CURVE SMOOTH",
"733 673 LINE",
"733 700 LINE",
"508 700 LINE",
"508 673 LINE",
"537 673 LINE SMOOTH",
"576 673 OFFCURVE",
"595 662 OFFCURVE",
"595 637 CURVE SMOOTH",
"595 126 LINE",
"217 700 LINE",
"22 700 LINE",
"22 673 LINE",
"51 673 LINE SMOOTH",
"90 673 OFFCURVE",
"109 662 OFFCURVE",
"109 637 CURVE SMOOTH",
"109 62 LINE SMOOTH",
"109 37 OFFCURVE",
"90 26 OFFCURVE",
"51 26 CURVE SMOOTH",
"22 26 LINE",
"22 0 LINE"
);
},
{
closed = 1;
nodes = (
"405 765 OFFCURVE",
"423 784 OFFCURVE",
"423 811 CURVE SMOOTH",
"423 839 OFFCURVE",
"405 858 OFFCURVE",
"377 858 CURVE SMOOTH",
"348 858 OFFCURVE",
"330 839 OFFCURVE",
"330 811 CURVE SMOOTH",
"330 784 OFFCURVE",
"348 765 OFFCURVE",
"377 765 CURVE SMOOTH"
);
}
);
};
components = (
{
name = N;
},
{
name = dotaccent;
transform = "{1, 0, 0, 1, 132, 230}";
}
);
layerId = "0B1DFD06-3317-40CA-B510-4969A0718C16";
width = 755;
}
);
note = Ndotaccent;
unicode = 1E44;
},
{
glyphname = Ndotbelow;
lastChange = "2017-12-19 03:42:37 +0000";
layers = (
{
background = {
paths = (
{
closed = 1;
nodes = (
"247 0 LINE",
"247 26 LINE",
"217 26 LINE SMOOTH",
"179 26 OFFCURVE",
"159 37 OFFCURVE",
"159 62 CURVE SMOOTH",
"159 642 LINE",
"587 0 LINE",
"645 0 LINE",
"645 637 LINE SMOOTH",
"645 662 OFFCURVE",
"665 673 OFFCURVE",
"703 673 CURVE SMOOTH",
"733 673 LINE",
"733 700 LINE",
"508 700 LINE",
"508 673 LINE",
"537 673 LINE SMOOTH",
"576 673 OFFCURVE",
"595 662 OFFCURVE",
"595 637 CURVE SMOOTH",
"595 126 LINE",
"217 700 LINE",
"22 700 LINE",
"22 673 LINE",
"51 673 LINE SMOOTH",
"90 673 OFFCURVE",
"109 662 OFFCURVE",
"109 637 CURVE SMOOTH",
"109 62 LINE SMOOTH",
"109 37 OFFCURVE",
"90 26 OFFCURVE",
"51 26 CURVE SMOOTH",
"22 26 LINE",
"22 0 LINE"
);
},
{
closed = 1;
nodes = (
"415 -159 OFFCURVE",
"433 -140 OFFCURVE",
"433 -112 CURVE SMOOTH",
"433 -84 OFFCURVE",
"415 -64 OFFCURVE",
"387 -64 CURVE SMOOTH",
"359 -64 OFFCURVE",
"340 -84 OFFCURVE",
"340 -112 CURVE SMOOTH",
"340 -140 OFFCURVE",
"359 -159 OFFCURVE",
"387 -159 CURVE SMOOTH"
);
}
);
};
components = (
{
name = N;
},
{
name = dotbelowcomb;
transform = "{1, 0, 0, 1, 629, 0}";
}
);
layerId = "0B1DFD06-3317-40CA-B510-4969A0718C16";
width = 755;
}
);
note = uni1E46;
unicode = 1E46;
},
{
color = 0;
glyphname = Eng;
lastChange = "2018-01-22 04:20:38 +0000";
layers = (
{
background = {
paths = (
{
closed = 1;
nodes = (
"592 -259 OFFCURVE",
"645 -182 OFFCURVE",
"645 -36 CURVE SMOOTH",
"645 637 LINE SMOOTH",
"645 662 OFFCURVE",
"665 673 OFFCURVE",
"703 673 CURVE SMOOTH",
"733 673 LINE",
"733 700 LINE",
"508 700 LINE",
"508 673 LINE",
"537 673 LINE SMOOTH",
"576 673 OFFCURVE",
"595 662 OFFCURVE",
"595 637 CURVE SMOOTH",
"595 125 LINE",
"219 700 LINE",
"22 700 LINE",
"22 673 LINE",
"51 673 LINE SMOOTH",
"90 673 OFFCURVE",
"109 662 OFFCURVE",
"109 637 CURVE SMOOTH",
"109 62 LINE SMOOTH",
"109 37 OFFCURVE",
"93 26 OFFCURVE",
"51 26 CURVE SMOOTH",
"22 26 LINE",
"22 0 LINE",
"247 0 LINE",
"247 26 LINE",
"217 26 LINE SMOOTH",
"179 26 OFFCURVE",
"159 37 OFFCURVE",
"159 62 CURVE SMOOTH",
"159 647 LINE",
"586 0 LINE",
"586 -76 LINE SMOOTH",
"586 -173 OFFCURVE",
"510 -238 OFFCURVE",
"423 -243 CURVE",
"427 -268 LINE"
);
}
);
};
layerId = "0B1DFD06-3317-40CA-B510-4969A0718C16";
paths = (
{
closed = 1;
nodes = (
"592 -259 OFFCURVE",
"645 -182 OFFCURVE",
"645 -36 CURVE SMOOTH",
"645 637 LINE SMOOTH",
"645 662 OFFCURVE",
"665 673 OFFCURVE",
"703 673 CURVE SMOOTH",
"733 673 LINE",
"733 700 LINE",
"508 700 LINE",
"508 673 LINE",
"537 673 LINE SMOOTH",
"576 673 OFFCURVE",
"595 662 OFFCURVE",
"595 637 CURVE SMOOTH",
"595 125 LINE",
"219 700 LINE",
"22 700 LINE",
"22 673 LINE",
"51 673 LINE SMOOTH",
"90 673 OFFCURVE",
"109 662 OFFCURVE",
"109 637 CURVE SMOOTH",
"109 62 LINE SMOOTH",
"109 37 OFFCURVE",
"93 26 OFFCURVE",
"51 26 CURVE SMOOTH",
"22 26 LINE",
"22 0 LINE",
"247 0 LINE",
"247 26 LINE",
"217 26 LINE SMOOTH",
"179 26 OFFCURVE",
"159 37 OFFCURVE",
"159 62 CURVE SMOOTH",
"159 647 LINE",
"586 0 LINE",
"586 -76 LINE SMOOTH",
"586 -173 OFFCURVE",
"510 -238 OFFCURVE",
"423 -243 CURVE",
"427 -268 LINE"
);
}
);
width = 755;
}
);
note = Eng;
unicode = 014A;
},
{
glyphname = Nlinebelow;
lastChange = "2017-12-19 03:42:41 +0000";
layers = (
{
background = {
paths = (
{
closed = 1;
nodes = (
"247 0 LINE",
"247 26 LINE",
"217 26 LINE SMOOTH",
"179 26 OFFCURVE",
"159 37 OFFCURVE",
"159 62 CURVE SMOOTH",
"159 642 LINE",
"587 0 LINE",
"645 0 LINE",
"645 637 LINE SMOOTH",
"645 662 OFFCURVE",
"665 673 OFFCURVE",
"703 673 CURVE SMOOTH",
"733 673 LINE",
"733 700 LINE",
"508 700 LINE",
"508 673 LINE",
"537 673 LINE SMOOTH",
"576 673 OFFCURVE",
"595 662 OFFCURVE",
"595 637 CURVE SMOOTH",
"595 126 LINE",
"217 700 LINE",
"22 700 LINE",
"22 673 LINE",
"51 673 LINE SMOOTH",
"90 673 OFFCURVE",
"109 662 OFFCURVE",
"109 637 CURVE SMOOTH",
"109 62 LINE SMOOTH",
"109 37 OFFCURVE",
"90 26 OFFCURVE",
"51 26 CURVE SMOOTH",
"22 26 LINE",
"22 0 LINE"
);
},
{
closed = 1;
nodes = (
"542 -110 LINE",
"542 -72 LINE",
"210 -72 LINE",
"210 -110 LINE"
);
}
);
};
components = (
{
name = N;
},
{
name = macronbelowcomb;
transform = "{1, 0, 0, 1, 378, 0}";
}
);
layerId = "0B1DFD06-3317-40CA-B510-4969A0718C16";
width = 755;
}
);
note = Nlinebelow;
unicode = 1E48;
},
{
glyphname = Ntilde;
lastChange = "2017-12-19 03:42:41 +0000";
layers = (
{
background = {
paths = (
{
closed = 1;
nodes = (
"247 0 LINE",
"247 26 LINE",
"217 26 LINE SMOOTH",
"179 26 OFFCURVE",
"159 37 OFFCURVE",
"159 62 CURVE SMOOTH",
"159 642 LINE",
"587 0 LINE",
"645 0 LINE",
"645 637 LINE SMOOTH",
"645 662 OFFCURVE",
"665 673 OFFCURVE",
"703 673 CURVE SMOOTH",
"733 673 LINE",
"733 700 LINE",
"508 700 LINE",
"508 673 LINE",
"537 673 LINE SMOOTH",
"576 673 OFFCURVE",
"595 662 OFFCURVE",
"595 637 CURVE SMOOTH",
"595 126 LINE",
"217 700 LINE",
"22 700 LINE",
"22 673 LINE",
"51 673 LINE SMOOTH",
"90 673 OFFCURVE",
"109 662 OFFCURVE",
"109 637 CURVE SMOOTH",
"109 62 LINE SMOOTH",
"109 37 OFFCURVE",
"90 26 OFFCURVE",
"51 26 CURVE SMOOTH",
"22 26 LINE",
"22 0 LINE"
);
},
{
closed = 1;
nodes = (
"254 818 OFFCURVE",
"272 839 OFFCURVE",
"305 839 CURVE SMOOTH",
"356 839 OFFCURVE",
"405 785 OFFCURVE",
"456 785 CURVE SMOOTH",
"514 785 OFFCURVE",
"544 833 OFFCURVE",
"556 885 CURVE",
"535 896 LINE",
"519 856 OFFCURVE",
"503 834 OFFCURVE",
"469 834 CURVE SMOOTH",
"420 834 OFFCURVE",
"368 887 OFFCURVE",
"317 887 CURVE SMOOTH",
"263 887 OFFCURVE",
"230 843 OFFCURVE",
"218 791 CURVE",
"240 780 LINE"
);
}
);
};
components = (
{
name = N;
},
{
name = tilde;
transform = "{1, 0, 0, 1, 132, 230}";
}
);
layerId = "0B1DFD06-3317-40CA-B510-4969A0718C16";
width = 755;
}
);
note = Ntilde;
unicode = 00D1;
},
{
glyphname = Oacute;
lastChange = "2017-12-19 03:42:41 +0000";
layers = (
{
background = {
paths = (
{
closed = 1;
nodes = (
"601 -10 OFFCURVE",
"719 124 OFFCURVE",
"719 350 CURVE SMOOTH",
"719 574 OFFCURVE",
"601 710 OFFCURVE",
"378 710 CURVE SMOOTH",
"154 710 OFFCURVE",
"36 574 OFFCURVE",
"36 350 CURVE SMOOTH",
"36 124 OFFCURVE",
"154 -10 OFFCURVE",
"378 -10 CURVE SMOOTH"
);
},
{
closed = 1;
nodes = (
"215 32 OFFCURVE",
"135 158 OFFCURVE",
"135 350 CURVE SMOOTH",
"135 541 OFFCURVE",
"215 668 OFFCURVE",
"377 668 CURVE SMOOTH",
"541 668 OFFCURVE",
"620 541 OFFCURVE",
"620 350 CURVE SMOOTH",
"620 158 OFFCURVE",
"541 32 OFFCURVE",
"377 32 CURVE SMOOTH"
);
},
{
closed = 1;
nodes = (
"440 865 LINE SMOOTH",
"462 877 OFFCURVE",
"474 890 OFFCURVE",
"474 907 CURVE SMOOTH",
"474 922 OFFCURVE",
"462 937 OFFCURVE",
"440 937 CURVE SMOOTH",
"419 937 OFFCURVE",
"404 921 OFFCURVE",
"396 914 CURVE SMOOTH",
"281 807 LINE",
"298 782 LINE"
);
}
);
};
components = (
{
name = O;
},
{
name = acute;
transform = "{1, 0, 0, 1, 120, 230}";
}
);
layerId = "0B1DFD06-3317-40CA-B510-4969A0718C16";
width = 755;
}
);
leftKerningGroup = O;
note = Oacute;
rightKerningGroup = O;
unicode = 00D3;
},
{
glyphname = Obreve;
lastChange = "2017-12-19 03:42:41 +0000";
layers = (
{
background = {
paths = (
{
closed = 1;
nodes = (
"601 -10 OFFCURVE",
"719 124 OFFCURVE",
"719 350 CURVE SMOOTH",
"719 574 OFFCURVE",
"601 710 OFFCURVE",
"378 710 CURVE SMOOTH",
"154 710 OFFCURVE",
"36 574 OFFCURVE",
"36 350 CURVE SMOOTH",
"36 124 OFFCURVE",
"154 -10 OFFCURVE",
"378 -10 CURVE SMOOTH"
);
},
{
closed = 1;
nodes = (
"215 32 OFFCURVE",
"135 158 OFFCURVE",
"135 350 CURVE SMOOTH",
"135 541 OFFCURVE",
"215 668 OFFCURVE",
"377 668 CURVE SMOOTH",
"541 668 OFFCURVE",
"620 541 OFFCURVE",
"620 350 CURVE SMOOTH",
"620 158 OFFCURVE",
"541 32 OFFCURVE",
"377 32 CURVE SMOOTH"
);
},
{
closed = 1;
nodes = (
"477 774 OFFCURVE",
"519 830 OFFCURVE",
"523 905 CURVE",
"490 905 LINE",
"484 846 OFFCURVE",
"442 820 OFFCURVE",
"378 820 CURVE SMOOTH",
"314 820 OFFCURVE",
"271 846 OFFCURVE",
"264 905 CURVE",
"231 905 LINE",
"235 827 OFFCURVE",
"277 774 OFFCURVE",
"378 774 CURVE SMOOTH"
);
}
);
};
components = (
{
name = O;
},
{
name = breve;
transform = "{1, 0, 0, 1, 132, 230}";
}
);
layerId = "0B1DFD06-3317-40CA-B510-4969A0718C16";
width = 755;
}
);
leftKerningGroup = O;
note = Obreve;
rightKerningGroup = O;
unicode = 014E;
},
{
glyphname = Ocaron;
lastChange = "2017-12-19 03:42:41 +0000";
layers = (
{
background = {
paths = (
{
closed = 1;
nodes = (
"601 -10 OFFCURVE",
"719 124 OFFCURVE",
"719 350 CURVE SMOOTH",
"719 574 OFFCURVE",
"601 710 OFFCURVE",
"378 710 CURVE SMOOTH",
"154 710 OFFCURVE",
"36 574 OFFCURVE",
"36 350 CURVE SMOOTH",
"36 124 OFFCURVE",
"154 -10 OFFCURVE",
"378 -10 CURVE SMOOTH"
);
},
{
closed = 1;
nodes = (
"215 32 OFFCURVE",
"135 158 OFFCURVE",
"135 350 CURVE SMOOTH",
"135 541 OFFCURVE",
"215 668 OFFCURVE",
"377 668 CURVE SMOOTH",
"541 668 OFFCURVE",
"620 541 OFFCURVE",
"620 350 CURVE SMOOTH",
"620 158 OFFCURVE",
"541 32 OFFCURVE",
"377 32 CURVE SMOOTH"
);
},
{
closed = 1;
nodes = (
"404 782 LINE",
"528 911 LINE",
"509 932 LINE",
"401 847 LINE",
"393 840 OFFCURVE",
"384 836 OFFCURVE",
"378 836 CURVE SMOOTH",
"372 836 OFFCURVE",
"364 840 OFFCURVE",
"354 847 CURVE",
"246 932 LINE",
"227 911 LINE",
"351 782 LINE"
);
}
);
};
components = (
{
name = O;
},
{
name = caron;
transform = "{1, 0, 0, 1, 132, 230}";
}
);
layerId = "0B1DFD06-3317-40CA-B510-4969A0718C16";
width = 755;
}
);
leftKerningGroup = O;
note = Ocaron;
rightKerningGroup = O;
unicode = 01D1;
},
{
glyphname = Ocircumflex;
lastChange = "2017-12-19 03:42:41 +0000";
layers = (
{
background = {
paths = (
{
closed = 1;
nodes = (
"601 -10 OFFCURVE",
"719 124 OFFCURVE",
"719 350 CURVE SMOOTH",
"719 574 OFFCURVE",
"601 710 OFFCURVE",
"378 710 CURVE SMOOTH",
"154 710 OFFCURVE",
"36 574 OFFCURVE",
"36 350 CURVE SMOOTH",
"36 124 OFFCURVE",
"154 -10 OFFCURVE",
"378 -10 CURVE SMOOTH"
);
},
{
closed = 1;
nodes = (
"215 32 OFFCURVE",
"135 158 OFFCURVE",
"135 350 CURVE SMOOTH",
"135 541 OFFCURVE",
"215 668 OFFCURVE",
"377 668 CURVE SMOOTH",
"541 668 OFFCURVE",
"620 541 OFFCURVE",
"620 350 CURVE SMOOTH",
"620 158 OFFCURVE",
"541 32 OFFCURVE",
"377 32 CURVE SMOOTH"
);
},
{
closed = 1;
nodes = (
"354 868 LINE SMOOTH",
"362 874 OFFCURVE",
"372 879 OFFCURVE",
"378 879 CURVE SMOOTH",
"384 879 OFFCURVE",
"392 874 OFFCURVE",
"401 868 CURVE",
"509 782 LINE",
"528 803 LINE",
"404 932 LINE",
"351 932 LINE",
"227 803 LINE",
"246 782 LINE"
);
}
);
};
components = (
{
name = O;
},
{
name = circumflex;
transform = "{1, 0, 0, 1, 132, 230}";
}
);
layerId = "0B1DFD06-3317-40CA-B510-4969A0718C16";
width = 755;
}
);
leftKerningGroup = O;
note = Ocircumflex;
rightKerningGroup = O;
unicode = 00D4;
},
{
glyphname = Ocircumflexacute;
lastChange = "2017-12-19 03:42:41 +0000";
layers = (
{
background = {
paths = (
{
closed = 1;
nodes = (
"601 -10 OFFCURVE",
"719 124 OFFCURVE",
"719 350 CURVE SMOOTH",
"719 574 OFFCURVE",
"601 710 OFFCURVE",
"378 710 CURVE SMOOTH",
"154 710 OFFCURVE",
"36 574 OFFCURVE",
"36 350 CURVE SMOOTH",
"36 124 OFFCURVE",
"154 -10 OFFCURVE",
"378 -10 CURVE SMOOTH"
);
},
{
closed = 1;
nodes = (
"215 32 OFFCURVE",
"135 158 OFFCURVE",
"135 350 CURVE SMOOTH",
"135 541 OFFCURVE",
"215 668 OFFCURVE",
"377 668 CURVE SMOOTH",
"541 668 OFFCURVE",
"620 541 OFFCURVE",
"620 350 CURVE SMOOTH",
"620 158 OFFCURVE",
"541 32 OFFCURVE",
"377 32 CURVE SMOOTH"
);
},
{
closed = 1;
nodes = (
"348 861 LINE SMOOTH",
"358 869 OFFCURVE",
"368 877 OFFCURVE",
"376 877 CURVE SMOOTH",
"382 877 OFFCURVE",
"390 872 OFFCURVE",
"399 866 CURVE",
"505 780 LINE",
"524 802 LINE",
"402 931 LINE",
"351 931 LINE",
"229 802 LINE",
"247 780 LINE"
);
},
{
closed = 1;
nodes = (
"613 959 LINE SMOOTH",
"636 971 OFFCURVE",
"649 987 OFFCURVE",
"649 1002 CURVE SMOOTH",
"649 1016 OFFCURVE",
"638 1033 OFFCURVE",
"615 1033 CURVE SMOOTH",
"596 1033 OFFCURVE",
"579 1017 OFFCURVE",
"569 1007 CURVE SMOOTH",
"473 914 LINE",
"491 892 LINE"
);
}
);
};
components = (
{
name = O;
},
{
name = circumflexacute;
transform = "{1, 0, 0, 1, 628, 230}";
}
);
layerId = "0B1DFD06-3317-40CA-B510-4969A0718C16";
width = 755;
}
);
leftKerningGroup = O;
note = Ocircumflexacute;
rightKerningGroup = O;
unicode = 1ED0;
},
{
glyphname = Ocircumflexdotbelow;
lastChange = "2017-12-19 03:42:41 +0000";
layers = (
{
background = {
paths = (
{
closed = 1;
nodes = (
"36 124 OFFCURVE",
"154 -10 OFFCURVE",
"378 -10 CURVE SMOOTH",
"601 -10 OFFCURVE",
"719 124 OFFCURVE",
"719 350 CURVE SMOOTH",
"719 574 OFFCURVE",
"601 710 OFFCURVE",
"378 710 CURVE SMOOTH",
"154 710 OFFCURVE",
"36 574 OFFCURVE",
"36 350 CURVE SMOOTH"
);
},
{
closed = 1;
nodes = (
"135 541 OFFCURVE",
"215 668 OFFCURVE",
"377 668 CURVE SMOOTH",
"541 668 OFFCURVE",
"620 541 OFFCURVE",
"620 350 CURVE SMOOTH",
"620 158 OFFCURVE",
"541 32 OFFCURVE",
"377 32 CURVE SMOOTH",
"215 32 OFFCURVE",
"135 158 OFFCURVE",
"135 350 CURVE SMOOTH"
);
},
{
closed = 1;
nodes = (
"245 782 LINE",
"353 868 LINE SMOOTH",
"361 874 OFFCURVE",
"371 879 OFFCURVE",
"377 879 CURVE SMOOTH",
"383 879 OFFCURVE",
"391 874 OFFCURVE",
"400 868 CURVE",
"508 782 LINE",
"527 803 LINE",
"403 932 LINE",
"350 932 LINE",
"226 803 LINE"
);
},
{
closed = 1;
nodes = (
"330 -140 OFFCURVE",
"349 -159 OFFCURVE",
"377 -159 CURVE SMOOTH",
"405 -159 OFFCURVE",
"423 -140 OFFCURVE",
"423 -112 CURVE SMOOTH",
"423 -84 OFFCURVE",
"405 -64 OFFCURVE",
"377 -64 CURVE SMOOTH",
"349 -64 OFFCURVE",
"330 -84 OFFCURVE",
"330 -112 CURVE SMOOTH"
);
}
);
};
components = (
{
name = O;
},
{
name = dotbelowcomb;
transform = "{1, 0, 0, 1, 629, 0}";
},
{
name = circumflex;
transform = "{1, 0, 0, 1, 132, 230}";
}
);
layerId = "0B1DFD06-3317-40CA-B510-4969A0718C16";
width = 755;
}
);
leftKerningGroup = O;
note = Ocircumflexdotbelow;
rightKerningGroup = O;
unicode = 1ED8;
},
{
glyphname = Ocircumflexgrave;
lastChange = "2017-12-19 03:42:41 +0000";
layers = (
{
background = {
paths = (
{
closed = 1;
nodes = (
"601 -10 OFFCURVE",
"719 124 OFFCURVE",
"719 350 CURVE SMOOTH",
"719 574 OFFCURVE",
"601 710 OFFCURVE",
"378 710 CURVE SMOOTH",
"154 710 OFFCURVE",
"36 574 OFFCURVE",
"36 350 CURVE SMOOTH",
"36 124 OFFCURVE",
"154 -10 OFFCURVE",
"378 -10 CURVE SMOOTH"
);
},
{
closed = 1;
nodes = (
"215 32 OFFCURVE",
"135 158 OFFCURVE",
"135 350 CURVE SMOOTH",
"135 541 OFFCURVE",
"215 668 OFFCURVE",
"377 668 CURVE SMOOTH",
"541 668 OFFCURVE",
"620 541 OFFCURVE",
"620 350 CURVE SMOOTH",
"620 158 OFFCURVE",
"541 32 OFFCURVE",
"377 32 CURVE SMOOTH"
);
},
{
closed = 1;
nodes = (
"285 914 LINE",
"190 1007 LINE SMOOTH",
"180 1017 OFFCURVE",
"163 1033 OFFCURVE",
"143 1033 CURVE SMOOTH",
"121 1033 OFFCURVE",
"110 1016 OFFCURVE",
"110 1002 CURVE SMOOTH",
"110 987 OFFCURVE",
"123 971 OFFCURVE",
"146 959 CURVE SMOOTH",
"268 892 LINE"
);
},
{
closed = 1;
nodes = (
"348 861 LINE SMOOTH",
"358 869 OFFCURVE",
"368 877 OFFCURVE",
"376 877 CURVE SMOOTH",
"382 877 OFFCURVE",
"390 872 OFFCURVE",
"399 866 CURVE",
"505 780 LINE",
"524 802 LINE",
"402 931 LINE",
"351 931 LINE",
"229 802 LINE",
"247 780 LINE"
);
}
);
};
components = (
{
name = O;
},
{
name = circumflexgrave;
transform = "{1, 0, 0, 1, 628, 230}";
}
);
layerId = "0B1DFD06-3317-40CA-B510-4969A0718C16";
width = 755;
}
);
leftKerningGroup = O;
note = Ocircumflexgrave;
rightKerningGroup = O;
unicode = 1ED2;
},
{
glyphname = Ocircumflexhookabove;
lastChange = "2017-12-19 03:42:41 +0000";
layers = (
{
background = {
paths = (
{
closed = 1;
nodes = (
"601 -10 OFFCURVE",
"719 124 OFFCURVE",
"719 350 CURVE SMOOTH",
"719 574 OFFCURVE",
"601 710 OFFCURVE",
"378 710 CURVE SMOOTH",
"154 710 OFFCURVE",
"36 574 OFFCURVE",
"36 350 CURVE SMOOTH",
"36 124 OFFCURVE",
"154 -10 OFFCURVE",
"378 -10 CURVE SMOOTH"
);
},
{
closed = 1;
nodes = (
"215 32 OFFCURVE",
"135 158 OFFCURVE",
"135 350 CURVE SMOOTH",
"135 541 OFFCURVE",
"215 668 OFFCURVE",
"377 668 CURVE SMOOTH",
"541 668 OFFCURVE",
"620 541 OFFCURVE",
"620 350 CURVE SMOOTH",
"620 158 OFFCURVE",
"541 32 OFFCURVE",
"377 32 CURVE SMOOTH"
);
},
{
closed = 1;
nodes = (
"344 858 LINE",
"355 868 OFFCURVE",
"367 878 OFFCURVE",
"376 878 CURVE SMOOTH",
"382 878 OFFCURVE",
"390 873 OFFCURVE",
"399 867 CURVE",
"505 781 LINE",
"524 803 LINE",
"402 932 LINE",
"351 932 LINE",
"229 803 LINE",
"247 781 LINE"
);
},
{
closed = 1;
nodes = (
"551 898 LINE",
"532 905 OFFCURVE",
"522 912 OFFCURVE",
"522 926 CURVE SMOOTH",
"522 954 OFFCURVE",
"602 965 OFFCURVE",
"602 1010 CURVE SMOOTH",
"602 1047 OFFCURVE",
"560 1063 OFFCURVE",
"518 1063 CURVE SMOOTH",
"487 1063 OFFCURVE",
"442 1053 OFFCURVE",
"442 1022 CURVE SMOOTH",
"442 1010 OFFCURVE",
"453 1001 OFFCURVE",
"463 1001 CURVE SMOOTH",
"492 1001 OFFCURVE",
"479 1040 OFFCURVE",
"522 1040 CURVE SMOOTH",
"541 1040 OFFCURVE",
"552 1028 OFFCURVE",
"552 1013 CURVE SMOOTH",
"552 973 OFFCURVE",
"479 965 OFFCURVE",
"479 925 CURVE SMOOTH",
"479 901 OFFCURVE",
"495 880 OFFCURVE",
"542 880 CURVE"
);
}
);
};
components = (
{
name = O;
},
{
name = circumflexhookabove;
transform = "{1, 0, 0, 1, 628, 230}";
}
);
layerId = "0B1DFD06-3317-40CA-B510-4969A0718C16";
width = 755;
}
);
leftKerningGroup = O;
note = Ocircumflexhookabove;
rightKerningGroup = O;
unicode = 1ED4;
},
{
glyphname = Ocircumflextilde;
lastChange = "2017-12-19 03:42:41 +0000";
layers = (
{
background = {
paths = (
{
closed = 1;
nodes = (
"601 -10 OFFCURVE",
"719 124 OFFCURVE",
"719 350 CURVE SMOOTH",
"719 574 OFFCURVE",
"601 710 OFFCURVE",
"378 710 CURVE SMOOTH",
"154 710 OFFCURVE",
"36 574 OFFCURVE",
"36 350 CURVE SMOOTH",
"36 124 OFFCURVE",
"154 -10 OFFCURVE",
"378 -10 CURVE SMOOTH"
);
},
{
closed = 1;
nodes = (
"215 32 OFFCURVE",
"135 158 OFFCURVE",
"135 350 CURVE SMOOTH",
"135 541 OFFCURVE",
"215 668 OFFCURVE",
"377 668 CURVE SMOOTH",
"541 668 OFFCURVE",
"620 541 OFFCURVE",
"620 350 CURVE SMOOTH",
"620 158 OFFCURVE",
"541 32 OFFCURVE",
"377 32 CURVE SMOOTH"
);
},
{
closed = 1;
nodes = (
"348 862 LINE SMOOTH",
"358 870 OFFCURVE",
"368 878 OFFCURVE",
"376 878 CURVE SMOOTH",
"382 878 OFFCURVE",
"390 873 OFFCURVE",
"399 867 CURVE",
"505 781 LINE",
"524 803 LINE",
"402 932 LINE",
"351 932 LINE",
"229 803 LINE",
"247 781 LINE"
);
},
{
closed = 1;
nodes = (
"251 997 OFFCURVE",
"269 1018 OFFCURVE",
"300 1018 CURVE SMOOTH",
"349 1018 OFFCURVE",
"396 964 OFFCURVE",
"445 964 CURVE SMOOTH",
"498 964 OFFCURVE",
"527 1012 OFFCURVE",
"539 1063 CURVE",
"518 1075 LINE",
"505 1035 OFFCURVE",
"489 1012 OFFCURVE",
"456 1012 CURVE SMOOTH",
"409 1012 OFFCURVE",
"360 1065 OFFCURVE",
"311 1065 CURVE SMOOTH",
"260 1065 OFFCURVE",
"228 1021 OFFCURVE",
"218 970 CURVE",
"238 958 LINE"
);
}
);
};
components = (
{
name = O;
},
{
name = circumflextilde;
transform = "{1, 0, 0, 1, 628, 230}";
}
);
layerId = "0B1DFD06-3317-40CA-B510-4969A0718C16";
width = 755;
}
);
leftKerningGroup = O;
note = Ocircumflextilde;
rightKerningGroup = O;
unicode = 1ED6;
},
{
glyphname = Odieresis;
lastChange = "2017-12-19 03:42:41 +0000";
layers = (
{
background = {
paths = (
{
closed = 1;
nodes = (
"601 -10 OFFCURVE",
"719 124 OFFCURVE",
"719 350 CURVE SMOOTH",
"719 574 OFFCURVE",
"601 710 OFFCURVE",
"378 710 CURVE SMOOTH",
"154 710 OFFCURVE",
"36 574 OFFCURVE",
"36 350 CURVE SMOOTH",
"36 124 OFFCURVE",
"154 -10 OFFCURVE",
"378 -10 CURVE SMOOTH"
);
},
{
closed = 1;
nodes = (
"215 32 OFFCURVE",
"135 158 OFFCURVE",
"135 350 CURVE SMOOTH",
"135 541 OFFCURVE",
"215 668 OFFCURVE",
"377 668 CURVE SMOOTH",
"541 668 OFFCURVE",
"620 541 OFFCURVE",
"620 350 CURVE SMOOTH",
"620 158 OFFCURVE",
"541 32 OFFCURVE",
"377 32 CURVE SMOOTH"
);
},
{
closed = 1;
nodes = (
"298 781 OFFCURVE",
"316 800 OFFCURVE",
"316 827 CURVE SMOOTH",
"316 855 OFFCURVE",
"298 875 OFFCURVE",
"269 875 CURVE SMOOTH",
"241 875 OFFCURVE",
"223 855 OFFCURVE",
"223 827 CURVE SMOOTH",
"223 800 OFFCURVE",
"241 781 OFFCURVE",
"269 781 CURVE SMOOTH"
);
},
{
closed = 1;
nodes = (
"514 781 OFFCURVE",
"532 800 OFFCURVE",
"532 827 CURVE SMOOTH",
"532 855 OFFCURVE",
"514 875 OFFCURVE",
"485 875 CURVE SMOOTH",
"456 875 OFFCURVE",
"438 855 OFFCURVE",
"438 827 CURVE SMOOTH",
"438 800 OFFCURVE",
"456 781 OFFCURVE",
"485 781 CURVE SMOOTH"
);
}
);
};
components = (
{
name = O;
},
{
name = dieresis;
transform = "{1, 0, 0, 1, 132, 230}";
}
);
layerId = "0B1DFD06-3317-40CA-B510-4969A0718C16";
width = 755;
}
);
leftKerningGroup = O;
note = Odieresis;
rightKerningGroup = O;
unicode = 00D6;
},
{
glyphname = Odotbelow;
lastChange = "2017-12-19 03:42:41 +0000";
layers = (
{
background = {
paths = (
{
closed = 1;
nodes = (
"36 124 OFFCURVE",
"154 -10 OFFCURVE",
"378 -10 CURVE SMOOTH",
"601 -10 OFFCURVE",
"719 124 OFFCURVE",
"719 350 CURVE SMOOTH",
"719 574 OFFCURVE",
"601 710 OFFCURVE",
"378 710 CURVE SMOOTH",
"154 710 OFFCURVE",
"36 574 OFFCURVE",
"36 350 CURVE SMOOTH"
);
},
{
closed = 1;
nodes = (
"135 541 OFFCURVE",
"215 668 OFFCURVE",
"377 668 CURVE SMOOTH",
"541 668 OFFCURVE",
"620 541 OFFCURVE",
"620 350 CURVE SMOOTH",
"620 158 OFFCURVE",
"541 32 OFFCURVE",
"377 32 CURVE SMOOTH",
"215 32 OFFCURVE",
"135 158 OFFCURVE",
"135 350 CURVE SMOOTH"
);
},
{
closed = 1;
nodes = (
"330 -140 OFFCURVE",
"349 -159 OFFCURVE",
"377 -159 CURVE SMOOTH",
"405 -159 OFFCURVE",
"423 -140 OFFCURVE",
"423 -112 CURVE SMOOTH",
"423 -84 OFFCURVE",
"405 -64 OFFCURVE",
"377 -64 CURVE SMOOTH",
"349 -64 OFFCURVE",
"330 -84 OFFCURVE",
"330 -112 CURVE SMOOTH"
);
}
);
};
components = (
{
name = O;
},
{
name = dotbelowcomb;
transform = "{1, 0, 0, 1, 629, 0}";
}
);
layerId = "0B1DFD06-3317-40CA-B510-4969A0718C16";
width = 755;
}
);
leftKerningGroup = O;
note = Odotbelow;
rightKerningGroup = O;
unicode = 1ECC;
},
{
glyphname = Ograve;
lastChange = "2017-12-19 03:42:41 +0000";
layers = (
{
background = {
paths = (
{
closed = 1;
nodes = (
"601 -10 OFFCURVE",
"719 124 OFFCURVE",
"719 350 CURVE SMOOTH",
"719 574 OFFCURVE",
"601 710 OFFCURVE",
"378 710 CURVE SMOOTH",
"154 710 OFFCURVE",
"36 574 OFFCURVE",
"36 350 CURVE SMOOTH",
"36 124 OFFCURVE",
"154 -10 OFFCURVE",
"378 -10 CURVE SMOOTH"
);
},
{
closed = 1;
nodes = (
"215 32 OFFCURVE",
"135 158 OFFCURVE",
"135 350 CURVE SMOOTH",
"135 541 OFFCURVE",
"215 668 OFFCURVE",
"377 668 CURVE SMOOTH",
"541 668 OFFCURVE",
"620 541 OFFCURVE",
"620 350 CURVE SMOOTH",
"620 158 OFFCURVE",
"541 32 OFFCURVE",
"377 32 CURVE SMOOTH"
);
},
{
closed = 1;
nodes = (
"459 807 LINE",
"344 913 LINE",
"335 922 OFFCURVE",
"319 937 OFFCURVE",
"299 937 CURVE SMOOTH",
"279 937 OFFCURVE",
"267 924 OFFCURVE",
"267 908 CURVE SMOOTH",
"267 890 OFFCURVE",
"279 876 OFFCURVE",
"298 865 CURVE SMOOTH",
"441 782 LINE"
);
}
);
};
components = (
{
name = O;
},
{
name = grave;
transform = "{1, 0, 0, 1, 132, 230}";
}
);
layerId = "0B1DFD06-3317-40CA-B510-4969A0718C16";
width = 755;
}
);
leftKerningGroup = O;
note = Ograve;
rightKerningGroup = O;
unicode = 00D2;
},
{
glyphname = Ohookabove;
lastChange = "2017-12-19 03:42:41 +0000";
layers = (
{
background = {
paths = (
{
closed = 1;
nodes = (
"601 -10 OFFCURVE",
"719 124 OFFCURVE",
"719 350 CURVE SMOOTH",
"719 574 OFFCURVE",
"601 710 OFFCURVE",
"378 710 CURVE SMOOTH",
"154 710 OFFCURVE",
"36 574 OFFCURVE",
"36 350 CURVE SMOOTH",
"36 124 OFFCURVE",
"154 -10 OFFCURVE",
"378 -10 CURVE SMOOTH"
);
},
{
closed = 1;
nodes = (
"215 32 OFFCURVE",
"135 158 OFFCURVE",
"135 350 CURVE SMOOTH",
"135 541 OFFCURVE",
"215 668 OFFCURVE",
"377 668 CURVE SMOOTH",
"541 668 OFFCURVE",
"620 541 OFFCURVE",
"620 350 CURVE SMOOTH",
"620 158 OFFCURVE",
"541 32 OFFCURVE",
"377 32 CURVE SMOOTH"
);
},
{
closed = 1;
nodes = (
"407 798 LINE",
"388 805 OFFCURVE",
"376 811 OFFCURVE",
"376 828 CURVE SMOOTH",
"376 861 OFFCURVE",
"465 876 OFFCURVE",
"465 927 CURVE SMOOTH",
"465 969 OFFCURVE",
"429 991 OFFCURVE",
"376 991 CURVE SMOOTH",
"329 991 OFFCURVE",
"288 974 OFFCURVE",
"288 940 CURVE SMOOTH",
"288 923 OFFCURVE",
"296 915 OFFCURVE",
"311 915 CURVE SMOOTH",
"334 915 OFFCURVE",
"336 934 OFFCURVE",
"339 942 CURVE SMOOTH",
"344 956 OFFCURVE",
"361 962 OFFCURVE",
"377 962 CURVE SMOOTH",
"398 962 OFFCURVE",
"411 947 OFFCURVE",
"411 930 CURVE SMOOTH",
"411 885 OFFCURVE",
"329 874 OFFCURVE",
"329 828 CURVE SMOOTH",
"329 801 OFFCURVE",
"347 778 OFFCURVE",
"398 778 CURVE"
);
}
);
};
components = (
{
name = O;
},
{
name = hookabovecomb;
transform = "{1, 0, 0, 1, 629, 230}";
}
);
layerId = "0B1DFD06-3317-40CA-B510-4969A0718C16";
width = 755;
}
);
leftKerningGroup = O;
note = Ohookabove;
rightKerningGroup = O;
unicode = 1ECE;
},
{
glyphname = Ohorn;
lastChange = "2017-12-19 03:42:41 +0000";
layers = (
{
layerId = "0B1DFD06-3317-40CA-B510-4969A0718C16";
paths = (
{
closed = 1;
nodes = (
"641 470 LINE SMOOTH",
"641 517 OFFCURVE",
"626 564 OFFCURVE",
"601 604 CURVE",
"693 645 OFFCURVE",
"707 756 OFFCURVE",
"707 833 CURVE",
"641 833 LINE",
"641 775 OFFCURVE",
"634 684 OFFCURVE",
"556 657 CURVE",
"517 693 OFFCURVE",
"466 715 OFFCURVE",
"411 715 CURVE SMOOTH",
"332 715 LINE SMOOTH",
"178 715 OFFCURVE",
"52 578 OFFCURVE",
"52 420 CURVE SMOOTH",
"52 230 LINE SMOOTH",
"52 102 OFFCURVE",
"153 -15 OFFCURVE",
"281 -15 CURVE SMOOTH",
"362 -15 LINE SMOOTH",
"514 -15 OFFCURVE",
"641 122 OFFCURVE",
"641 280 CURVE SMOOTH"
);
},
{
closed = 1;
nodes = (
"575 280 LINE SMOOTH",
"575 159 OFFCURVE",
"477 44 OFFCURVE",
"362 44 CURVE SMOOTH",
"281 44 LINE SMOOTH",
"190 44 OFFCURVE",
"118 139 OFFCURVE",
"118 230 CURVE SMOOTH",
"118 420 LINE SMOOTH",
"118 541 OFFCURVE",
"215 656 OFFCURVE",
"332 656 CURVE SMOOTH",
"411 656 LINE SMOOTH",
"502 656 OFFCURVE",
"575 561 OFFCURVE",
"575 470 CURVE SMOOTH"
);
}
);
width = 691;
}
);
note = Ohorn;
unicode = 01A0;
},
{
glyphname = Ohornacute;
lastChange = "2017-12-19 03:42:41 +0000";
layers = (
{
background = {
paths = (
{
closed = 1;
nodes = (
"602 -10 OFFCURVE",
"720 124 OFFCURVE",
"720 350 CURVE SMOOTH",
"720 574 OFFCURVE",
"602 710 OFFCURVE",
"379 710 CURVE SMOOTH",
"155 710 OFFCURVE",
"37 574 OFFCURVE",
"37 350 CURVE SMOOTH",
"37 124 OFFCURVE",
"155 -10 OFFCURVE",
"379 -10 CURVE SMOOTH"
);
},
{
closed = 1;
nodes = (
"216 32 OFFCURVE",
"136 158 OFFCURVE",
"136 350 CURVE SMOOTH",
"136 541 OFFCURVE",
"216 668 OFFCURVE",
"378 668 CURVE SMOOTH",
"542 668 OFFCURVE",
"621 541 OFFCURVE",
"621 350 CURVE SMOOTH",
"621 158 OFFCURVE",
"542 32 OFFCURVE",
"378 32 CURVE SMOOTH"
);
},
{
closed = 1;
nodes = (
"424 864 LINE SMOOTH",
"446 876 OFFCURVE",
"458 889 OFFCURVE",
"458 906 CURVE SMOOTH",
"458 921 OFFCURVE",
"446 936 OFFCURVE",
"424 936 CURVE SMOOTH",
"403 936 OFFCURVE",
"388 920 OFFCURVE",
"380 913 CURVE SMOOTH",
"265 806 LINE",
"282 781 LINE"
);
},
{
closed = 1;
nodes = (
"691 567 OFFCURVE",
"756 632 OFFCURVE",
"756 705 CURVE SMOOTH",
"756 752 OFFCURVE",
"729 772 OFFCURVE",
"701 772 CURVE SMOOTH",
"672 772 OFFCURVE",
"656 752 OFFCURVE",
"656 729 CURVE SMOOTH",
"656 695 OFFCURVE",
"689 688 OFFCURVE",
"689 653 CURVE SMOOTH",
"689 617 OFFCURVE",
"658 588 OFFCURVE",
"623 568 CURVE",
"623 543 LINE"
);
}
);
};
components = (
{
name = acute;
transform = "{1, 0, 0, 1, 120, 230}";
},
{
name = Ohorn;
}
);
layerId = "0B1DFD06-3317-40CA-B510-4969A0718C16";
width = 755;
}
);
leftKerningGroup = O;
note = Ohornacute;
rightKerningGroup = O;
unicode = 1EDA;
},
{
glyphname = Ohorndotbelow;
lastChange = "2017-12-19 03:42:41 +0000";
layers = (
{
background = {
paths = (
{
closed = 1;
nodes = (
"602 -10 OFFCURVE",
"720 124 OFFCURVE",
"720 350 CURVE SMOOTH",
"720 574 OFFCURVE",
"602 710 OFFCURVE",
"379 710 CURVE SMOOTH",
"155 710 OFFCURVE",
"37 574 OFFCURVE",
"37 350 CURVE SMOOTH",
"37 124 OFFCURVE",
"155 -10 OFFCURVE",
"379 -10 CURVE SMOOTH"
);
},
{
closed = 1;
nodes = (
"216 32 OFFCURVE",
"136 158 OFFCURVE",
"136 350 CURVE SMOOTH",
"136 541 OFFCURVE",
"216 668 OFFCURVE",
"378 668 CURVE SMOOTH",
"542 668 OFFCURVE",
"621 541 OFFCURVE",
"621 350 CURVE SMOOTH",
"621 158 OFFCURVE",
"542 32 OFFCURVE",
"378 32 CURVE SMOOTH"
);
},
{
closed = 1;
nodes = (
"691 567 OFFCURVE",
"756 632 OFFCURVE",
"756 705 CURVE SMOOTH",
"756 752 OFFCURVE",
"729 772 OFFCURVE",
"701 772 CURVE SMOOTH",
"672 772 OFFCURVE",
"656 752 OFFCURVE",
"656 729 CURVE SMOOTH",
"656 695 OFFCURVE",
"689 688 OFFCURVE",
"689 653 CURVE SMOOTH",
"689 617 OFFCURVE",
"658 588 OFFCURVE",
"623 568 CURVE",
"623 543 LINE"
);
},
{
closed = 1;
nodes = (
"395 -159 OFFCURVE",
"413 -140 OFFCURVE",
"413 -112 CURVE SMOOTH",
"413 -84 OFFCURVE",
"395 -64 OFFCURVE",
"367 -64 CURVE SMOOTH",
"339 -64 OFFCURVE",
"320 -84 OFFCURVE",
"320 -112 CURVE SMOOTH",
"320 -140 OFFCURVE",
"339 -159 OFFCURVE",
"367 -159 CURVE SMOOTH"
);
}
);
};
components = (
{
name = dotbelowcomb;
transform = "{1, 0, 0, 1, 629, 0}";
},
{
name = Ohorn;
}
);
layerId = "0B1DFD06-3317-40CA-B510-4969A0718C16";
width = 755;
}
);
leftKerningGroup = O;
note = Ohorndotbelow;
rightKerningGroup = O;
unicode = 1EE2;
},
{
glyphname = Ohorngrave;
lastChange = "2017-12-19 03:42:41 +0000";
layers = (
{
background = {
paths = (
{
closed = 1;
nodes = (
"602 -10 OFFCURVE",
"720 124 OFFCURVE",
"720 350 CURVE SMOOTH",
"720 574 OFFCURVE",
"602 710 OFFCURVE",
"379 710 CURVE SMOOTH",
"155 710 OFFCURVE",
"37 574 OFFCURVE",
"37 350 CURVE SMOOTH",
"37 124 OFFCURVE",
"155 -10 OFFCURVE",
"379 -10 CURVE SMOOTH"
);
},
{
closed = 1;
nodes = (
"216 32 OFFCURVE",
"136 158 OFFCURVE",
"136 350 CURVE SMOOTH",
"136 541 OFFCURVE",
"216 668 OFFCURVE",
"378 668 CURVE SMOOTH",
"542 668 OFFCURVE",
"621 541 OFFCURVE",
"621 350 CURVE SMOOTH",
"621 158 OFFCURVE",
"542 32 OFFCURVE",
"378 32 CURVE SMOOTH"
);
},
{
closed = 1;
nodes = (
"464 816 LINE",
"349 922 LINE",
"340 931 OFFCURVE",
"324 946 OFFCURVE",
"304 946 CURVE SMOOTH",
"284 946 OFFCURVE",
"272 933 OFFCURVE",
"272 917 CURVE SMOOTH",
"272 899 OFFCURVE",
"284 885 OFFCURVE",
"303 874 CURVE SMOOTH",
"446 791 LINE"
);
},
{
closed = 1;
nodes = (
"691 567 OFFCURVE",
"756 632 OFFCURVE",
"756 705 CURVE SMOOTH",
"756 752 OFFCURVE",
"729 772 OFFCURVE",
"701 772 CURVE SMOOTH",
"672 772 OFFCURVE",
"656 752 OFFCURVE",
"656 729 CURVE SMOOTH",
"656 695 OFFCURVE",
"689 688 OFFCURVE",
"689 653 CURVE SMOOTH",
"689 617 OFFCURVE",
"658 588 OFFCURVE",
"623 568 CURVE",
"623 543 LINE"
);
}
);
};
components = (
{
name = grave;
transform = "{1, 0, 0, 1, 132, 230}";
},
{
name = Ohorn;
}
);
layerId = "0B1DFD06-3317-40CA-B510-4969A0718C16";
width = 755;
}
);
leftKerningGroup = O;
note = Ohorngrave;
rightKerningGroup = O;
unicode = 1EDC;
},
{
glyphname = Ohornhookabove;
lastChange = "2017-12-19 03:42:41 +0000";
layers = (
{
background = {
paths = (
{
closed = 1;
nodes = (
"602 -10 OFFCURVE",
"720 124 OFFCURVE",
"720 350 CURVE SMOOTH",
"720 574 OFFCURVE",
"602 710 OFFCURVE",
"379 710 CURVE SMOOTH",
"155 710 OFFCURVE",
"37 574 OFFCURVE",
"37 350 CURVE SMOOTH",
"37 124 OFFCURVE",
"155 -10 OFFCURVE",
"379 -10 CURVE SMOOTH"
);
},
{
closed = 1;
nodes = (
"216 32 OFFCURVE",
"136 158 OFFCURVE",
"136 350 CURVE SMOOTH",
"136 541 OFFCURVE",
"216 668 OFFCURVE",
"378 668 CURVE SMOOTH",
"542 668 OFFCURVE",
"621 541 OFFCURVE",
"621 350 CURVE SMOOTH",
"621 158 OFFCURVE",
"542 32 OFFCURVE",
"378 32 CURVE SMOOTH"
);
},
{
closed = 1;
nodes = (
"412 809 LINE",
"393 816 OFFCURVE",
"381 822 OFFCURVE",
"381 839 CURVE SMOOTH",
"381 872 OFFCURVE",
"470 887 OFFCURVE",
"470 938 CURVE SMOOTH",
"470 980 OFFCURVE",
"434 1002 OFFCURVE",
"381 1002 CURVE SMOOTH",
"334 1002 OFFCURVE",
"293 985 OFFCURVE",
"293 951 CURVE SMOOTH",
"293 934 OFFCURVE",
"301 926 OFFCURVE",
"316 926 CURVE SMOOTH",
"339 926 OFFCURVE",
"341 945 OFFCURVE",
"344 953 CURVE SMOOTH",
"349 967 OFFCURVE",
"366 973 OFFCURVE",
"382 973 CURVE SMOOTH",
"403 973 OFFCURVE",
"416 958 OFFCURVE",
"416 941 CURVE SMOOTH",
"416 896 OFFCURVE",
"334 885 OFFCURVE",
"334 839 CURVE SMOOTH",
"334 812 OFFCURVE",
"352 789 OFFCURVE",
"403 789 CURVE"
);
},
{
closed = 1;
nodes = (
"691 567 OFFCURVE",
"756 632 OFFCURVE",
"756 705 CURVE SMOOTH",
"756 752 OFFCURVE",
"729 772 OFFCURVE",
"701 772 CURVE SMOOTH",
"672 772 OFFCURVE",
"656 752 OFFCURVE",
"656 729 CURVE SMOOTH",
"656 695 OFFCURVE",
"689 688 OFFCURVE",
"689 653 CURVE SMOOTH",
"689 617 OFFCURVE",
"658 588 OFFCURVE",
"623 568 CURVE",
"623 543 LINE"
);
}
);
};
components = (
{
name = hookabovecomb;
transform = "{1, 0, 0, 1, 629, 230}";
},
{
name = Ohorn;
}
);
layerId = "0B1DFD06-3317-40CA-B510-4969A0718C16";
width = 755;
}
);
leftKerningGroup = O;
note = Ohornhookabove;
rightKerningGroup = O;
unicode = 1EDE;
},
{
glyphname = Ohorntilde;
lastChange = "2017-12-19 03:42:41 +0000";
layers = (
{
background = {
paths = (
{
closed = 1;
nodes = (
"602 -10 OFFCURVE",
"720 124 OFFCURVE",
"720 350 CURVE SMOOTH",
"720 574 OFFCURVE",
"602 710 OFFCURVE",
"379 710 CURVE SMOOTH",
"155 710 OFFCURVE",
"37 574 OFFCURVE",
"37 350 CURVE SMOOTH",
"37 124 OFFCURVE",
"155 -10 OFFCURVE",
"379 -10 CURVE SMOOTH"
);
},
{
closed = 1;
nodes = (
"216 32 OFFCURVE",
"136 158 OFFCURVE",
"136 350 CURVE SMOOTH",
"136 541 OFFCURVE",
"216 668 OFFCURVE",
"378 668 CURVE SMOOTH",
"542 668 OFFCURVE",
"621 541 OFFCURVE",
"621 350 CURVE SMOOTH",
"621 158 OFFCURVE",
"542 32 OFFCURVE",
"378 32 CURVE SMOOTH"
);
},
{
closed = 1;
nodes = (
"234 828 OFFCURVE",
"252 849 OFFCURVE",
"285 849 CURVE SMOOTH",
"336 849 OFFCURVE",
"385 795 OFFCURVE",
"436 795 CURVE SMOOTH",
"494 795 OFFCURVE",
"524 843 OFFCURVE",
"536 895 CURVE",
"515 906 LINE",
"499 866 OFFCURVE",
"483 844 OFFCURVE",
"449 844 CURVE SMOOTH",
"400 844 OFFCURVE",
"348 897 OFFCURVE",
"297 897 CURVE SMOOTH",
"243 897 OFFCURVE",
"210 853 OFFCURVE",
"198 801 CURVE",
"220 790 LINE"
);
},
{
closed = 1;
nodes = (
"691 567 OFFCURVE",
"756 632 OFFCURVE",
"756 705 CURVE SMOOTH",
"756 752 OFFCURVE",
"729 772 OFFCURVE",
"701 772 CURVE SMOOTH",
"672 772 OFFCURVE",
"656 752 OFFCURVE",
"656 729 CURVE SMOOTH",
"656 695 OFFCURVE",
"689 688 OFFCURVE",
"689 653 CURVE SMOOTH",
"689 617 OFFCURVE",
"658 588 OFFCURVE",
"623 568 CURVE",
"623 543 LINE"
);
}
);
};
components = (
{
name = tilde;
transform = "{1, 0, 0, 1, 132, 230}";
},
{
name = Ohorn;
}
);
layerId = "0B1DFD06-3317-40CA-B510-4969A0718C16";
width = 755;
}
);
leftKerningGroup = O;
note = Ohorntilde;
rightKerningGroup = O;
unicode = 1EE0;
},
{
glyphname = Ohungarumlaut;
lastChange = "2017-12-19 03:42:41 +0000";
layers = (
{
background = {
paths = (
{
closed = 1;
nodes = (
"601 -10 OFFCURVE",
"719 124 OFFCURVE",
"719 350 CURVE SMOOTH",
"719 574 OFFCURVE",
"601 710 OFFCURVE",
"378 710 CURVE SMOOTH",
"154 710 OFFCURVE",
"36 574 OFFCURVE",
"36 350 CURVE SMOOTH",
"36 124 OFFCURVE",
"154 -10 OFFCURVE",
"378 -10 CURVE SMOOTH"
);
},
{
closed = 1;
nodes = (
"215 32 OFFCURVE",
"135 158 OFFCURVE",
"135 350 CURVE SMOOTH",
"135 541 OFFCURVE",
"215 668 OFFCURVE",
"377 668 CURVE SMOOTH",
"541 668 OFFCURVE",
"620 541 OFFCURVE",
"620 350 CURVE SMOOTH",
"620 158 OFFCURVE",
"541 32 OFFCURVE",
"377 32 CURVE SMOOTH"
);
},
{
closed = 1;
nodes = (
"395 864 LINE SMOOTH",
"417 877 OFFCURVE",
"429 891 OFFCURVE",
"429 908 CURVE SMOOTH",
"429 922 OFFCURVE",
"421 937 OFFCURVE",
"399 937 CURVE SMOOTH",
"378 937 OFFCURVE",
"357 919 OFFCURVE",
"350 913 CURVE",
"236 807 LINE",
"253 782 LINE"
);
},
{
closed = 1;
nodes = (
"556 864 LINE SMOOTH",
"577 877 OFFCURVE",
"589 891 OFFCURVE",
"589 908 CURVE SMOOTH",
"589 922 OFFCURVE",
"578 937 OFFCURVE",
"556 937 CURVE SMOOTH",
"534 937 OFFCURVE",
"517 919 OFFCURVE",
"510 913 CURVE",
"396 807 LINE",
"414 782 LINE"
);
}
);
};
components = (
{
name = O;
},
{
name = hungarumlaut;
transform = "{1, 0, 0, 1, 131, 230}";
}
);
layerId = "0B1DFD06-3317-40CA-B510-4969A0718C16";
width = 755;
}
);
leftKerningGroup = O;
note = Ohungarumlaut;
rightKerningGroup = O;
unicode = 0150;
},
{
glyphname = Omacron;
lastChange = "2017-12-19 03:42:41 +0000";
layers = (
{
background = {
paths = (
{
closed = 1;
nodes = (
"601 -10 OFFCURVE",
"719 124 OFFCURVE",
"719 350 CURVE SMOOTH",
"719 574 OFFCURVE",
"601 710 OFFCURVE",
"378 710 CURVE SMOOTH",
"154 710 OFFCURVE",
"36 574 OFFCURVE",
"36 350 CURVE SMOOTH",
"36 124 OFFCURVE",
"154 -10 OFFCURVE",
"378 -10 CURVE SMOOTH"
);
},
{
closed = 1;
nodes = (
"215 32 OFFCURVE",
"135 158 OFFCURVE",
"135 350 CURVE SMOOTH",
"135 541 OFFCURVE",
"215 668 OFFCURVE",
"377 668 CURVE SMOOTH",
"541 668 OFFCURVE",
"620 541 OFFCURVE",
"620 350 CURVE SMOOTH",
"620 158 OFFCURVE",
"541 32 OFFCURVE",
"377 32 CURVE SMOOTH"
);
},
{
closed = 1;
nodes = (
"543 793 LINE",
"543 835 LINE",
"210 835 LINE",
"210 793 LINE"
);
}
);
};
components = (
{
name = O;
},
{
name = macron;
transform = "{1, 0, 0, 1, 132, 230}";
}
);
layerId = "0B1DFD06-3317-40CA-B510-4969A0718C16";
width = 755;
}
);
leftKerningGroup = O;
note = Omacron;
rightKerningGroup = O;
unicode = 014C;
},
{
glyphname = Oslash;
lastChange = "2017-12-19 03:42:41 +0000";
layers = (
{
layerId = "0B1DFD06-3317-40CA-B510-4969A0718C16";
paths = (
{
closed = 1;
nodes = (
"125 -25 LINE",
"159 24 LINE",
"195 0 OFFCURVE",
"236 -15 OFFCURVE",
"281 -15 CURVE SMOOTH",
"362 -15 LINE SMOOTH",
"514 -15 OFFCURVE",
"641 122 OFFCURVE",
"641 280 CURVE SMOOTH",
"641 470 LINE SMOOTH",
"641 533 OFFCURVE",
"616 592 OFFCURVE",
"576 638 CURVE",
"634 722 LINE",
"569 722 LINE",
"536 673 LINE",
"500 700 OFFCURVE",
"457 715 OFFCURVE",
"411 715 CURVE SMOOTH",
"332 715 LINE SMOOTH",
"178 715 OFFCURVE",
"52 578 OFFCURVE",
"52 420 CURVE SMOOTH",
"52 230 LINE SMOOTH",
"52 167 OFFCURVE",
"75 105 OFFCURVE",
"116 60 CURVE",
"59 -25 LINE"
);
},
{
closed = 1;
nodes = (
"118 420 LINE SMOOTH",
"118 541 OFFCURVE",
"215 656 OFFCURVE",
"332 656 CURVE SMOOTH",
"411 656 LINE SMOOTH",
"444 656 OFFCURVE",
"474 642 OFFCURVE",
"501 622 CURVE",
"155 116 LINE",
"131 149 OFFCURVE",
"118 190 OFFCURVE",
"118 230 CURVE SMOOTH"
);
},
{
closed = 1;
nodes = (
"575 280 LINE SMOOTH",
"575 159 OFFCURVE",
"477 44 OFFCURVE",
"362 44 CURVE SMOOTH",
"281 44 LINE SMOOTH",
"249 44 OFFCURVE",
"218 56 OFFCURVE",
"193 75 CURVE",
"538 582 LINE",
"561 550 OFFCURVE",
"575 508 OFFCURVE",
"575 470 CURVE SMOOTH"
);
}
);
width = 701;
}
);
note = Oslash;
unicode = 00D8;
},
{
glyphname = OE;
lastChange = "2017-12-19 03:42:41 +0000";
layers = (
{
layerId = "0B1DFD06-3317-40CA-B510-4969A0718C16";
paths = (
{
closed = 1;
nodes = (
"1046 0 LINE",
"1046 66 LINE",
"578 66 LINE",
"578 332 LINE",
"974 332 LINE",
"974 398 LINE",
"578 398 LINE",
"578 634 LINE",
"1046 634 LINE",
"1046 700 LINE",
"333 700 LINE SMOOTH",
"180 700 OFFCURVE",
"53 578 OFFCURVE",
"53 420 CURVE SMOOTH",
"53 230 LINE SMOOTH",
"53 102 OFFCURVE",
"155 0 OFFCURVE",
"283 0 CURVE SMOOTH"
);
},
{
closed = 1;
nodes = (
"283 66 LINE SMOOTH",
"192 66 OFFCURVE",
"119 139 OFFCURVE",
"119 230 CURVE SMOOTH",
"119 420 LINE SMOOTH",
"119 541 OFFCURVE",
"217 634 OFFCURVE",
"333 634 CURVE SMOOTH",
"413 634 LINE SMOOTH",
"449 634 OFFCURVE",
"483 622 OFFCURVE",
"511 601 CURVE",
"511 125 LINE",
"473 88 OFFCURVE",
"420 66 OFFCURVE",
"364 66 CURVE SMOOTH"
);
}
);
width = 1107;
}
);
note = OE;
unicode = 0152;
},
{
glyphname = Thorn;
lastChange = "2017-12-19 03:42:41 +0000";
layers = (
{
layerId = "0B1DFD06-3317-40CA-B510-4969A0718C16";
paths = (
{
closed = 1;
nodes = (
"155 575 LINE",
"155 716 LINE",
"88 716 LINE",
"88 0 LINE",
"155 0 LINE",
"155 164 LINE",
"248 164 LINE SMOOTH",
"399 164 OFFCURVE",
"525 222 OFFCURVE",
"525 380 CURVE SMOOTH",
"525 508 OFFCURVE",
"414 575 OFFCURVE",
"286 575 CURVE SMOOTH"
);
},
{
closed = 1;
nodes = (
"155 516 LINE",
"286 516 LINE SMOOTH",
"367 516 OFFCURVE",
"458 472 OFFCURVE",
"458 380 CURVE SMOOTH",
"458 259 OFFCURVE",
"362 222 OFFCURVE",
"248 222 CURVE SMOOTH",
"155 222 LINE"
);
}
);
width = 582;
}
);
note = Thorn;
unicode = 00DE;
},
{
color = 3;
glyphname = Germandbls;
lastChange = "2018-01-22 05:02:14 +0000";
layers = (
{
background = {
paths = (
{
closed = 1;
nodes = (
"253 145 LINE",
"263 30 OFFCURVE",
"353 -10 OFFCURVE",
"449 -10 CURVE SMOOTH",
"495 -10 LINE SMOOTH",
"621 -10 OFFCURVE",
"689 76 OFFCURVE",
"689 185 CURVE SMOOTH",
"689 209 LINE SMOOTH",
"689 311 OFFCURVE",
"631 361 OFFCURVE",
"512 387 CURVE SMOOTH",
"444 402 LINE",
"581 638 LINE",
"536 700 LINE",
"345 358 LINE",
"505 327 LINE SMOOTH",
"581 312 OFFCURVE",
"620 273 OFFCURVE",
"620 209 CURVE SMOOTH",
"620 185 LINE SMOOTH",
"620 114 OFFCURVE",
"580 52 OFFCURVE",
"495 52 CURVE SMOOTH",
"449 52 LINE SMOOTH",
"393 52 OFFCURVE",
"330 67 OFFCURVE",
"320 145 CURVE"
);
},
{
closed = 1;
nodes = (
"144 559 OFFCURVE",
"210 638 OFFCURVE",
"308 638 CURVE SMOOTH",
"581 638 LINE",
"581 700 LINE",
"308 700 LINE SMOOTH",
"168 700 OFFCURVE",
"75 596 OFFCURVE",
"75 441 CURVE SMOOTH",
"76 0 LINE",
"145 0 LINE",
"144 441 LINE SMOOTH"
);
}
);
};
layerId = "0B1DFD06-3317-40CA-B510-4969A0718C16";
paths = (
{
closed = 1;
nodes = (
"253 145 LINE",
"261 52 OFFCURVE",
"339 -10 OFFCURVE",
"449 -10 CURVE SMOOTH",
"495 -10 LINE SMOOTH",
"611 -10 OFFCURVE",
"689 68 OFFCURVE",
"689 185 CURVE SMOOTH",
"689 209 LINE SMOOTH",
"689 311 OFFCURVE",
"631 361 OFFCURVE",
"512 387 CURVE SMOOTH",
"444 402 LINE",
"581 638 LINE",
"538 700 LINE",
"345 361 LINE",
"505 326 LINE SMOOTH",
"581 309 OFFCURVE",
"620 273 OFFCURVE",
"620 209 CURVE SMOOTH",
"620 185 LINE SMOOTH",
"620 105 OFFCURVE",
"570 52 OFFCURVE",
"495 52 CURVE SMOOTH",
"449 52 LINE SMOOTH",
"379 52 OFFCURVE",
"327 89 OFFCURVE",
"320 145 CURVE"
);
},
{
closed = 1;
nodes = (
"144 559 OFFCURVE",
"210 638 OFFCURVE",
"308 638 CURVE SMOOTH",
"581 638 LINE",
"581 700 LINE",
"308 700 LINE SMOOTH",
"168 700 OFFCURVE",
"75 596 OFFCURVE",
"75 441 CURVE SMOOTH",
"76 0 LINE",
"145 0 LINE",
"144 441 LINE SMOOTH"
);
}
);
width = 699;
}
);
note = uni1E9E;
unicode = 1E9E;
},
{
color = 3;
glyphname = Schwa;
lastChange = "2018-01-22 04:45:03 +0000";
layers = (
{
background = {
paths = (
{
closed = 1;
nodes = (
"140 329 LINE",
"48 329 LINE",
"48 253 LINE SMOOTH",
"48 95 OFFCURVE",
"143 -10 OFFCURVE",
"286 -10 CURVE SMOOTH",
"386 -10 LINE SMOOTH",
"542 -10 OFFCURVE",
"646 103 OFFCURVE",
"646 274 CURVE SMOOTH",
"646 467 LINE SMOOTH",
"646 609 OFFCURVE",
"550 703 OFFCURVE",
"406 703 CURVE SMOOTH",
"308 703 LINE SMOOTH",
"154 703 OFFCURVE",
"50 607 OFFCURVE",
"50 462 CURVE",
"143 462 LINE",
"143 556 OFFCURVE",
"209 619 OFFCURVE",
"308 619 CURVE SMOOTH",
"406 619 LINE SMOOTH",
"495 619 OFFCURVE",
"554 558 OFFCURVE",
"554 467 CURVE SMOOTH",
"554 274 LINE SMOOTH",
"554 154 OFFCURVE",
"486 74 OFFCURVE",
"386 74 CURVE SMOOTH",
"286 74 LINE SMOOTH",
"198 74 OFFCURVE",
"140 146 OFFCURVE",
"140 253 CURVE"
);
},
{
closed = 1;
nodes = (
"631 364 LINE",
"48 364 LINE",
"48 282 LINE",
"631 282 LINE"
);
}
);
};
layerId = "0B1DFD06-3317-40CA-B510-4969A0718C16";
paths = (
{
closed = 1;
nodes = (
"117 329 LINE",
"48 329 LINE",
"48 253 LINE SMOOTH",
"48 95 OFFCURVE",
"143 -10 OFFCURVE",
"286 -10 CURVE SMOOTH",
"386 -10 LINE SMOOTH",
"542 -10 OFFCURVE",
"646 104 OFFCURVE",
"646 274 CURVE SMOOTH",
"646 470 LINE SMOOTH",
"646 612 OFFCURVE",
"550 706 OFFCURVE",
"406 706 CURVE SMOOTH",
"308 706 LINE SMOOTH",
"153 706 OFFCURVE",
"50 610 OFFCURVE",
"50 465 CURVE",
"119 465 LINE",
"119 572 OFFCURVE",
"195 644 OFFCURVE",
"308 644 CURVE SMOOTH",
"406 644 LINE SMOOTH",
"509 644 OFFCURVE",
"577 574 OFFCURVE",
"577 470 CURVE SMOOTH",
"577 274 LINE SMOOTH",
"577 141 OFFCURVE",
"501 52 OFFCURVE",
"386 52 CURVE SMOOTH",
"286 52 LINE SMOOTH",
"185 52 OFFCURVE",
"117 132 OFFCURVE",
"117 253 CURVE"
);
},
{
closed = 1;
nodes = (
"631 354 LINE",
"48 354 LINE",
"48 292 LINE",
"631 292 LINE"
);
}
);
width = 692;
}
);
note = uni018F;
unicode = 018F;
},
{
glyphname = Tbar;
lastChange = "2017-12-19 03:42:44 +0000";
layers = (
{
components = (
{
name = T;
}
);
layerId = "0B1DFD06-3317-40CA-B510-4969A0718C16";
paths = (
{
closed = 1;
nodes = (
"520 317 LINE",
"520 363 LINE",
"134 363 LINE",
"134 317 LINE"
);
}
);
width = 652;
}
);
leftKerningGroup = T;
note = Tbar;
rightKerningGroup = T;
unicode = 0166;
},
{
glyphname = Uacute;
lastChange = "2017-12-19 03:42:44 +0000";
layers = (
{
background = {
paths = (
{
closed = 1;
nodes = (
"539 -10 OFFCURVE",
"636 51 OFFCURVE",
"636 204 CURVE SMOOTH",
"636 637 LINE SMOOTH",
"636 662 OFFCURVE",
"660 673 OFFCURVE",
"690 673 CURVE SMOOTH",
"713 673 LINE",
"713 700 LINE",
"510 700 LINE",
"510 673 LINE",
"532 673 LINE SMOOTH",
"564 673 OFFCURVE",
"586 662 OFFCURVE",
"586 637 CURVE SMOOTH",
"586 197 LINE SMOOTH",
"586 65 OFFCURVE",
"489 31 OFFCURVE",
"397 31 CURVE SMOOTH",
"290 31 OFFCURVE",
"203 63 OFFCURVE",
"203 197 CURVE SMOOTH",
"203 637 LINE SMOOTH",
"203 662 OFFCURVE",
"226 673 OFFCURVE",
"257 673 CURVE SMOOTH",
"280 673 LINE",
"280 700 LINE",
"28 700 LINE",
"28 673 LINE",
"51 673 LINE SMOOTH",
"82 673 OFFCURVE",
"105 662 OFFCURVE",
"105 637 CURVE SMOOTH",
"105 204 LINE SMOOTH",
"105 46 OFFCURVE",
"208 -10 OFFCURVE",
"375 -10 CURVE SMOOTH"
);
},
{
closed = 1;
nodes = (
"447 865 LINE SMOOTH",
"469 877 OFFCURVE",
"481 890 OFFCURVE",
"481 907 CURVE SMOOTH",
"481 922 OFFCURVE",
"469 937 OFFCURVE",
"447 937 CURVE SMOOTH",
"426 937 OFFCURVE",
"411 921 OFFCURVE",
"403 914 CURVE SMOOTH",
"288 807 LINE",
"305 782 LINE"
);
}
);
};
components = (
{
name = U;
},
{
name = acute;
transform = "{1, 0, 0, 1, 136, 230}";
}
);
layerId = "0B1DFD06-3317-40CA-B510-4969A0718C16";
width = 742;
}
);
leftKerningGroup = U;
note = Uacute;
rightKerningGroup = U;
unicode = 00DA;
},
{
glyphname = Ubreve;
lastChange = "2017-12-19 03:42:44 +0000";
layers = (
{
background = {
paths = (
{
closed = 1;
nodes = (
"539 -10 OFFCURVE",
"636 51 OFFCURVE",
"636 204 CURVE SMOOTH",
"636 637 LINE SMOOTH",
"636 662 OFFCURVE",
"660 673 OFFCURVE",
"690 673 CURVE SMOOTH",
"713 673 LINE",
"713 700 LINE",
"510 700 LINE",
"510 673 LINE",
"532 673 LINE SMOOTH",
"564 673 OFFCURVE",
"586 662 OFFCURVE",
"586 637 CURVE SMOOTH",
"586 197 LINE SMOOTH",
"586 65 OFFCURVE",
"489 31 OFFCURVE",
"397 31 CURVE SMOOTH",
"290 31 OFFCURVE",
"203 63 OFFCURVE",
"203 197 CURVE SMOOTH",
"203 637 LINE SMOOTH",
"203 662 OFFCURVE",
"226 673 OFFCURVE",
"257 673 CURVE SMOOTH",
"280 673 LINE",
"280 700 LINE",
"28 700 LINE",
"28 673 LINE",
"51 673 LINE SMOOTH",
"82 673 OFFCURVE",
"105 662 OFFCURVE",
"105 637 CURVE SMOOTH",
"105 204 LINE SMOOTH",
"105 46 OFFCURVE",
"208 -10 OFFCURVE",
"375 -10 CURVE SMOOTH"
);
},
{
closed = 1;
nodes = (
"483 774 OFFCURVE",
"525 830 OFFCURVE",
"529 905 CURVE",
"496 905 LINE",
"490 846 OFFCURVE",
"448 820 OFFCURVE",
"384 820 CURVE SMOOTH",
"320 820 OFFCURVE",
"277 846 OFFCURVE",
"270 905 CURVE",
"237 905 LINE",
"241 827 OFFCURVE",
"283 774 OFFCURVE",
"384 774 CURVE SMOOTH"
);
}
);
};
components = (
{
name = U;
},
{
name = breve;
transform = "{1, 0, 0, 1, 148, 230}";
}
);
layerId = "0B1DFD06-3317-40CA-B510-4969A0718C16";
width = 742;
}
);
leftKerningGroup = U;
note = Ubreve;
rightKerningGroup = U;
unicode = 016C;
},
{
glyphname = Ucaron;
lastChange = "2017-12-19 03:42:44 +0000";
layers = (
{
background = {
paths = (
{
closed = 1;
nodes = (
"539 -10 OFFCURVE",
"636 51 OFFCURVE",
"636 204 CURVE SMOOTH",
"636 637 LINE SMOOTH",
"636 662 OFFCURVE",
"660 673 OFFCURVE",
"690 673 CURVE SMOOTH",
"713 673 LINE",
"713 700 LINE",
"510 700 LINE",
"510 673 LINE",
"532 673 LINE SMOOTH",
"564 673 OFFCURVE",
"586 662 OFFCURVE",
"586 637 CURVE SMOOTH",
"586 197 LINE SMOOTH",
"586 65 OFFCURVE",
"489 31 OFFCURVE",
"397 31 CURVE SMOOTH",
"290 31 OFFCURVE",
"203 63 OFFCURVE",
"203 197 CURVE SMOOTH",
"203 637 LINE SMOOTH",
"203 662 OFFCURVE",
"226 673 OFFCURVE",
"257 673 CURVE SMOOTH",
"280 673 LINE",
"280 700 LINE",
"28 700 LINE",
"28 673 LINE",
"51 673 LINE SMOOTH",
"82 673 OFFCURVE",
"105 662 OFFCURVE",
"105 637 CURVE SMOOTH",
"105 204 LINE SMOOTH",
"105 46 OFFCURVE",
"208 -10 OFFCURVE",
"375 -10 CURVE SMOOTH"
);
},
{
closed = 1;
nodes = (
"397 782 LINE",
"521 911 LINE",
"502 932 LINE",
"394 847 LINE",
"386 840 OFFCURVE",
"377 836 OFFCURVE",
"371 836 CURVE SMOOTH",
"365 836 OFFCURVE",
"357 840 OFFCURVE",
"347 847 CURVE",
"239 932 LINE",
"220 911 LINE",
"344 782 LINE"
);
}
);
};
components = (
{
name = U;
},
{
name = caron;
transform = "{1, 0, 0, 1, 148, 230}";
}
);
layerId = "0B1DFD06-3317-40CA-B510-4969A0718C16";
width = 742;
}
);
leftKerningGroup = U;
note = Ucaron;
rightKerningGroup = U;
unicode = 01D3;
},
{
glyphname = Ucircumflex;
lastChange = "2017-12-19 03:42:44 +0000";
layers = (
{
background = {
paths = (
{
closed = 1;
nodes = (
"539 -10 OFFCURVE",
"636 51 OFFCURVE",
"636 204 CURVE SMOOTH",
"636 637 LINE SMOOTH",
"636 662 OFFCURVE",
"660 673 OFFCURVE",
"690 673 CURVE SMOOTH",
"713 673 LINE",
"713 700 LINE",
"510 700 LINE",
"510 673 LINE",
"532 673 LINE SMOOTH",
"564 673 OFFCURVE",
"586 662 OFFCURVE",
"586 637 CURVE SMOOTH",
"586 197 LINE SMOOTH",
"586 65 OFFCURVE",
"489 31 OFFCURVE",
"397 31 CURVE SMOOTH",
"290 31 OFFCURVE",
"203 63 OFFCURVE",
"203 197 CURVE SMOOTH",
"203 637 LINE SMOOTH",
"203 662 OFFCURVE",
"226 673 OFFCURVE",
"257 673 CURVE SMOOTH",
"280 673 LINE",
"280 700 LINE",
"28 700 LINE",
"28 673 LINE",
"51 673 LINE SMOOTH",
"82 673 OFFCURVE",
"105 662 OFFCURVE",
"105 637 CURVE SMOOTH",
"105 204 LINE SMOOTH",
"105 46 OFFCURVE",
"208 -10 OFFCURVE",
"375 -10 CURVE SMOOTH"
);
},
{
closed = 1;
nodes = (
"360 868 LINE SMOOTH",
"368 874 OFFCURVE",
"378 879 OFFCURVE",
"384 879 CURVE SMOOTH",
"390 879 OFFCURVE",
"398 874 OFFCURVE",
"407 868 CURVE",
"515 782 LINE",
"534 803 LINE",
"410 932 LINE",
"357 932 LINE",
"233 803 LINE",
"252 782 LINE"
);
}
);
};
components = (
{
name = U;
},
{
name = circumflex;
transform = "{1, 0, 0, 1, 148, 230}";
}
);
layerId = "0B1DFD06-3317-40CA-B510-4969A0718C16";
width = 742;
}
);
leftKerningGroup = U;
note = Ucircumflex;
rightKerningGroup = U;
unicode = 00DB;
},
{
glyphname = Udieresis;
lastChange = "2017-12-19 03:42:44 +0000";
layers = (
{
background = {
paths = (
{
closed = 1;
nodes = (
"539 -10 OFFCURVE",
"636 51 OFFCURVE",
"636 204 CURVE SMOOTH",
"636 637 LINE SMOOTH",
"636 662 OFFCURVE",
"660 673 OFFCURVE",
"690 673 CURVE SMOOTH",
"713 673 LINE",
"713 700 LINE",
"510 700 LINE",
"510 673 LINE",
"532 673 LINE SMOOTH",
"564 673 OFFCURVE",
"586 662 OFFCURVE",
"586 637 CURVE SMOOTH",
"586 197 LINE SMOOTH",
"586 65 OFFCURVE",
"489 31 OFFCURVE",
"397 31 CURVE SMOOTH",
"290 31 OFFCURVE",
"203 63 OFFCURVE",
"203 197 CURVE SMOOTH",
"203 637 LINE SMOOTH",
"203 662 OFFCURVE",
"226 673 OFFCURVE",
"257 673 CURVE SMOOTH",
"280 673 LINE",
"280 700 LINE",
"28 700 LINE",
"28 673 LINE",
"51 673 LINE SMOOTH",
"82 673 OFFCURVE",
"105 662 OFFCURVE",
"105 637 CURVE SMOOTH",
"105 204 LINE SMOOTH",
"105 46 OFFCURVE",
"208 -10 OFFCURVE",
"375 -10 CURVE SMOOTH"
);
},
{
closed = 1;
nodes = (
"304 781 OFFCURVE",
"322 800 OFFCURVE",
"322 827 CURVE SMOOTH",
"322 855 OFFCURVE",
"304 875 OFFCURVE",
"275 875 CURVE SMOOTH",
"247 875 OFFCURVE",
"229 855 OFFCURVE",
"229 827 CURVE SMOOTH",
"229 800 OFFCURVE",
"247 781 OFFCURVE",
"275 781 CURVE SMOOTH"
);
},
{
closed = 1;
nodes = (
"520 781 OFFCURVE",
"538 800 OFFCURVE",
"538 827 CURVE SMOOTH",
"538 855 OFFCURVE",
"520 875 OFFCURVE",
"491 875 CURVE SMOOTH",
"462 875 OFFCURVE",
"444 855 OFFCURVE",
"444 827 CURVE SMOOTH",
"444 800 OFFCURVE",
"462 781 OFFCURVE",
"491 781 CURVE SMOOTH"
);
}
);
};
components = (
{
name = U;
},
{
name = dieresis;
transform = "{1, 0, 0, 1, 148, 230}";
}
);
layerId = "0B1DFD06-3317-40CA-B510-4969A0718C16";
width = 742;
}
);
leftKerningGroup = U;
note = Udieresis;
rightKerningGroup = U;
unicode = 00DC;
},
{
glyphname = Udieresisacute;
lastChange = "2017-12-19 03:42:44 +0000";
layers = (
{
background = {
paths = (
{
closed = 1;
nodes = (
"539 -10 OFFCURVE",
"636 51 OFFCURVE",
"636 204 CURVE SMOOTH",
"636 637 LINE SMOOTH",
"636 662 OFFCURVE",
"660 673 OFFCURVE",
"690 673 CURVE SMOOTH",
"713 673 LINE",
"713 700 LINE",
"510 700 LINE",
"510 673 LINE",
"532 673 LINE SMOOTH",
"564 673 OFFCURVE",
"586 662 OFFCURVE",
"586 637 CURVE SMOOTH",
"586 197 LINE SMOOTH",
"586 65 OFFCURVE",
"489 31 OFFCURVE",
"397 31 CURVE SMOOTH",
"290 31 OFFCURVE",
"203 63 OFFCURVE",
"203 197 CURVE SMOOTH",
"203 637 LINE SMOOTH",
"203 662 OFFCURVE",
"226 673 OFFCURVE",
"257 673 CURVE SMOOTH",
"280 673 LINE",
"280 700 LINE",
"28 700 LINE",
"28 673 LINE",
"51 673 LINE SMOOTH",
"82 673 OFFCURVE",
"105 662 OFFCURVE",
"105 637 CURVE SMOOTH",
"105 204 LINE SMOOTH",
"105 46 OFFCURVE",
"208 -10 OFFCURVE",
"375 -10 CURVE SMOOTH"
);
},
{
closed = 1;
nodes = (
"291 780 OFFCURVE",
"310 799 OFFCURVE",
"310 827 CURVE SMOOTH",
"310 855 OFFCURVE",
"291 875 OFFCURVE",
"262 875 CURVE SMOOTH",
"235 875 OFFCURVE",
"216 855 OFFCURVE",
"216 827 CURVE SMOOTH",
"216 799 OFFCURVE",
"235 780 OFFCURVE",
"262 780 CURVE SMOOTH"
);
},
{
closed = 1;
nodes = (
"507 780 OFFCURVE",
"526 799 OFFCURVE",
"526 827 CURVE SMOOTH",
"526 855 OFFCURVE",
"507 875 OFFCURVE",
"479 875 CURVE SMOOTH",
"451 875 OFFCURVE",
"432 855 OFFCURVE",
"432 827 CURVE SMOOTH",
"432 799 OFFCURVE",
"451 780 OFFCURVE",
"479 780 CURVE SMOOTH"
);
},
{
closed = 1;
nodes = (
"481 969 LINE SMOOTH",
"502 981 OFFCURVE",
"512 993 OFFCURVE",
"512 1009 CURVE SMOOTH",
"512 1024 OFFCURVE",
"503 1037 OFFCURVE",
"481 1037 CURVE SMOOTH",
"460 1037 OFFCURVE",
"442 1020 OFFCURVE",
"435 1013 CURVE SMOOTH",
"344 924 LINE",
"362 899 LINE"
);
}
);
};
components = (
{
name = U;
},
{
name = dieresisacute;
transform = "{1, 0, 0, 1, 149, 230}";
}
);
layerId = "0B1DFD06-3317-40CA-B510-4969A0718C16";
width = 742;
}
);
leftKerningGroup = U;
note = Udieresisacute;
rightKerningGroup = U;
unicode = 01D7;
},
{
glyphname = Udieresiscaron;
lastChange = "2017-12-19 03:42:44 +0000";
layers = (
{
background = {
paths = (
{
closed = 1;
nodes = (
"539 -10 OFFCURVE",
"636 51 OFFCURVE",
"636 204 CURVE SMOOTH",
"636 637 LINE SMOOTH",
"636 662 OFFCURVE",
"660 673 OFFCURVE",
"690 673 CURVE SMOOTH",
"713 673 LINE",
"713 700 LINE",
"510 700 LINE",
"510 673 LINE",
"532 673 LINE SMOOTH",
"564 673 OFFCURVE",
"586 662 OFFCURVE",
"586 637 CURVE SMOOTH",
"586 197 LINE SMOOTH",
"586 65 OFFCURVE",
"489 31 OFFCURVE",
"397 31 CURVE SMOOTH",
"290 31 OFFCURVE",
"203 63 OFFCURVE",
"203 197 CURVE SMOOTH",
"203 637 LINE SMOOTH",
"203 662 OFFCURVE",
"226 673 OFFCURVE",
"257 673 CURVE SMOOTH",
"280 673 LINE",
"280 700 LINE",
"28 700 LINE",
"28 673 LINE",
"51 673 LINE SMOOTH",
"82 673 OFFCURVE",
"105 662 OFFCURVE",
"105 637 CURVE SMOOTH",
"105 204 LINE SMOOTH",
"105 46 OFFCURVE",
"208 -10 OFFCURVE",
"375 -10 CURVE SMOOTH"
);
},
{
closed = 1;
nodes = (
"296 780 OFFCURVE",
"315 799 OFFCURVE",
"315 827 CURVE SMOOTH",
"315 855 OFFCURVE",
"296 875 OFFCURVE",
"267 875 CURVE SMOOTH",
"240 875 OFFCURVE",
"221 855 OFFCURVE",
"221 827 CURVE SMOOTH",
"221 799 OFFCURVE",
"240 780 OFFCURVE",
"267 780 CURVE SMOOTH"
);
},
{
closed = 1;
nodes = (
"512 780 OFFCURVE",
"531 799 OFFCURVE",
"531 827 CURVE SMOOTH",
"531 855 OFFCURVE",
"512 875 OFFCURVE",
"484 875 CURVE SMOOTH",
"456 875 OFFCURVE",
"437 855 OFFCURVE",
"437 827 CURVE SMOOTH",
"437 799 OFFCURVE",
"456 780 OFFCURVE",
"484 780 CURVE SMOOTH"
);
},
{
closed = 1;
nodes = (
"401 911 LINE",
"523 1035 LINE",
"505 1056 LINE",
"404 978 LINE",
"394 971 OFFCURVE",
"385 963 OFFCURVE",
"376 963 CURVE SMOOTH",
"369 963 OFFCURVE",
"357 971 OFFCURVE",
"347 978 CURVE",
"246 1056 LINE",
"228 1035 LINE",
"350 911 LINE"
);
}
);
};
components = (
{
name = U;
},
{
name = dieresiscaron;
transform = "{1, 0, 0, 1, 149, 230}";
}
);
layerId = "0B1DFD06-3317-40CA-B510-4969A0718C16";
width = 742;
}
);
leftKerningGroup = U;
note = Udieresiscaron;
rightKerningGroup = U;
unicode = 01D9;
},
{
glyphname = Udieresisgrave;
lastChange = "2017-12-19 03:42:44 +0000";
layers = (
{
background = {
paths = (
{
closed = 1;
nodes = (
"539 -10 OFFCURVE",
"636 51 OFFCURVE",
"636 204 CURVE SMOOTH",
"636 637 LINE SMOOTH",
"636 662 OFFCURVE",
"660 673 OFFCURVE",
"690 673 CURVE SMOOTH",
"713 673 LINE",
"713 700 LINE",
"510 700 LINE",
"510 673 LINE",
"532 673 LINE SMOOTH",
"564 673 OFFCURVE",
"586 662 OFFCURVE",
"586 637 CURVE SMOOTH",
"586 197 LINE SMOOTH",
"586 65 OFFCURVE",
"489 31 OFFCURVE",
"397 31 CURVE SMOOTH",
"290 31 OFFCURVE",
"203 63 OFFCURVE",
"203 197 CURVE SMOOTH",
"203 637 LINE SMOOTH",
"203 662 OFFCURVE",
"226 673 OFFCURVE",
"257 673 CURVE SMOOTH",
"280 673 LINE",
"280 700 LINE",
"28 700 LINE",
"28 673 LINE",
"51 673 LINE SMOOTH",
"82 673 OFFCURVE",
"105 662 OFFCURVE",
"105 637 CURVE SMOOTH",
"105 204 LINE SMOOTH",
"105 46 OFFCURVE",
"208 -10 OFFCURVE",
"375 -10 CURVE SMOOTH"
);
},
{
closed = 1;
nodes = (
"296 780 OFFCURVE",
"315 799 OFFCURVE",
"315 827 CURVE SMOOTH",
"315 855 OFFCURVE",
"296 875 OFFCURVE",
"267 875 CURVE SMOOTH",
"240 875 OFFCURVE",
"221 855 OFFCURVE",
"221 827 CURVE SMOOTH",
"221 799 OFFCURVE",
"240 780 OFFCURVE",
"267 780 CURVE SMOOTH"
);
},
{
closed = 1;
nodes = (
"403 924 LINE",
"312 1013 LINE SMOOTH",
"305 1020 OFFCURVE",
"288 1036 OFFCURVE",
"267 1036 CURVE SMOOTH",
"245 1036 OFFCURVE",
"235 1024 OFFCURVE",
"235 1009 CURVE SMOOTH",
"235 993 OFFCURVE",
"245 981 OFFCURVE",
"266 969 CURVE SMOOTH",
"385 899 LINE"
);
},
{
closed = 1;
nodes = (
"512 780 OFFCURVE",
"531 799 OFFCURVE",
"531 827 CURVE SMOOTH",
"531 855 OFFCURVE",
"512 875 OFFCURVE",
"484 875 CURVE SMOOTH",
"456 875 OFFCURVE",
"437 855 OFFCURVE",
"437 827 CURVE SMOOTH",
"437 799 OFFCURVE",
"456 780 OFFCURVE",
"484 780 CURVE SMOOTH"
);
}
);
};
components = (
{
name = U;
},
{
name = dieresisgrave;
transform = "{1, 0, 0, 1, 149, 230}";
}
);
layerId = "0B1DFD06-3317-40CA-B510-4969A0718C16";
width = 742;
}
);
leftKerningGroup = U;
note = Udieresisgrave;
rightKerningGroup = U;
unicode = 01DB;
},
{
glyphname = Udieresismacron;
lastChange = "2017-12-19 03:42:44 +0000";
layers = (
{
background = {
paths = (
{
closed = 1;
nodes = (
"539 -10 OFFCURVE",
"636 51 OFFCURVE",
"636 204 CURVE SMOOTH",
"636 637 LINE SMOOTH",
"636 662 OFFCURVE",
"660 673 OFFCURVE",
"690 673 CURVE SMOOTH",
"713 673 LINE",
"713 700 LINE",
"510 700 LINE",
"510 673 LINE",
"532 673 LINE SMOOTH",
"564 673 OFFCURVE",
"586 662 OFFCURVE",
"586 637 CURVE SMOOTH",
"586 197 LINE SMOOTH",
"586 65 OFFCURVE",
"489 31 OFFCURVE",
"397 31 CURVE SMOOTH",
"290 31 OFFCURVE",
"203 63 OFFCURVE",
"203 197 CURVE SMOOTH",
"203 637 LINE SMOOTH",
"203 662 OFFCURVE",
"226 673 OFFCURVE",
"257 673 CURVE SMOOTH",
"280 673 LINE",
"280 700 LINE",
"28 700 LINE",
"28 673 LINE",
"51 673 LINE SMOOTH",
"82 673 OFFCURVE",
"105 662 OFFCURVE",
"105 637 CURVE SMOOTH",
"105 204 LINE SMOOTH",
"105 46 OFFCURVE",
"208 -10 OFFCURVE",
"375 -10 CURVE SMOOTH"
);
},
{
closed = 1;
nodes = (
"291 781 OFFCURVE",
"309 800 OFFCURVE",
"309 827 CURVE SMOOTH",
"309 855 OFFCURVE",
"291 875 OFFCURVE",
"262 875 CURVE SMOOTH",
"234 875 OFFCURVE",
"216 855 OFFCURVE",
"216 827 CURVE SMOOTH",
"216 800 OFFCURVE",
"234 781 OFFCURVE",
"262 781 CURVE SMOOTH"
);
},
{
closed = 1;
nodes = (
"507 781 OFFCURVE",
"525 800 OFFCURVE",
"525 827 CURVE SMOOTH",
"525 855 OFFCURVE",
"507 875 OFFCURVE",
"478 875 CURVE SMOOTH",
"449 875 OFFCURVE",
"431 855 OFFCURVE",
"431 827 CURVE SMOOTH",
"431 800 OFFCURVE",
"449 781 OFFCURVE",
"478 781 CURVE SMOOTH"
);
},
{
closed = 1;
nodes = (
"537 928 LINE",
"537 970 LINE",
"204 970 LINE",
"204 928 LINE"
);
}
);
};
components = (
{
name = U;
},
{
name = dieresis;
transform = "{1, 0, 0, 1, 148, 230}";
},
{
alignment = -1;
name = macron;
transform = "{1, 0, 0, 1, 145, 356}";
}
);
layerId = "0B1DFD06-3317-40CA-B510-4969A0718C16";
width = 742;
}
);
leftKerningGroup = U;
note = Udieresismacron;
rightKerningGroup = U;
unicode = 01D5;
},
{
glyphname = Uhorn;
lastChange = "2017-12-19 03:42:44 +0000";
layers = (
{
layerId = "0B1DFD06-3317-40CA-B510-4969A0718C16";
paths = (
{
closed = 1;
nodes = (
"647 594 LINE",
"754 631 OFFCURVE",
"782 749 OFFCURVE",
"782 833 CURVE",
"725 833 LINE",
"725 756 OFFCURVE",
"710 704 OFFCURVE",
"647 666 CURVE",
"647 700 LINE",
"581 700 LINE",
"581 280 LINE SMOOTH",
"581 159 OFFCURVE",
"483 44 OFFCURVE",
"368 44 CURVE SMOOTH",
"287 44 LINE SMOOTH",
"196 44 OFFCURVE",
"124 139 OFFCURVE",
"124 230 CURVE SMOOTH",
"124 700 LINE",
"57 700 LINE",
"57 230 LINE SMOOTH",
"57 102 OFFCURVE",
"159 -15 OFFCURVE",
"287 -15 CURVE SMOOTH",
"368 -15 LINE SMOOTH",
"520 -15 OFFCURVE",
"647 122 OFFCURVE",
"647 280 CURVE SMOOTH"
);
}
);
width = 769;
}
);
note = Uhorn;
unicode = 01AF;
},
{
glyphname = E.001;
layers = (
{
layerId = "0B1DFD06-3317-40CA-B510-4969A0718C16";
paths = (
{
closed = 1;
nodes = (
"70 700 LINE",
"560 700 LINE",
"560 638 LINE",
"139 638 LINE",
"139 389 LINE",
"520 389 LINE",
"520 328 LINE",
"139 328 LINE",
"139 189 LINE SMOOTH",
"139 39 OFFCURVE",
"175 62 OFFCURVE",
"560 62 CURVE",
"560 0 LINE",
"255 0 LINE SMOOTH",
"127 0 OFFCURVE",
"70 67 OFFCURVE",
"70 189 CURVE SMOOTH"
);
}
);
width = 590;
}
);
note = E;
},
{
color = 0;
glyphname = "alpha-latin";
lastChange = "2017-12-18 11:15:21 +0000";
layers = (
{
layerId = "0B1DFD06-3317-40CA-B510-4969A0718C16";
paths = (
{
closed = 1;
nodes = (
"304 -10 OFFCURVE",
"357 10 OFFCURVE",
"393 69 CURVE",
"393 37 LINE SMOOTH",
"393 0 OFFCURVE",
"429 -10 OFFCURVE",
"461 -10 CURVE SMOOTH",
"491 -10 OFFCURVE",
"523 -1 OFFCURVE",
"545 17 CURVE",
"545 34 LINE",
"531 29 OFFCURVE",
"519 26 OFFCURVE",
"510 26 CURVE SMOOTH",
"494 26 OFFCURVE",
"486 36 OFFCURVE",
"486 58 CURVE SMOOTH",
"486 403 LINE",
"452 444 OFFCURVE",
"374 480 OFFCURVE",
"279 480 CURVE SMOOTH",
"141 480 OFFCURVE",
"26 405 OFFCURVE",
"26 215 CURVE SMOOTH",
"26 67 OFFCURVE",
"96 -10 OFFCURVE",
"234 -10 CURVE SMOOTH"
);
},
{
closed = 1;
nodes = (
"152 28 OFFCURVE",
"119 116 OFFCURVE",
"119 222 CURVE SMOOTH",
"119 370 OFFCURVE",
"183 441 OFFCURVE",
"279 441 CURVE SMOOTH",
"330 441 OFFCURVE",
"368 421 OFFCURVE",
"392 398 CURVE",
"392 169 LINE SMOOTH",
"392 98 OFFCURVE",
"346 28 OFFCURVE",
"255 28 CURVE SMOOTH"
);
}
);
width = 558;
}
);
leftKerningGroup = a;
note = ascript;
rightKerningGroup = a;
unicode = 0251;
},
{
glyphname = ae;
lastChange = "2017-12-18 10:29:35 +0000";
layers = (
{
layerId = "0B1DFD06-3317-40CA-B510-4969A0718C16";
paths = (
{
closed = 1;
nodes = (
"141 416 LINE",
"164 436 OFFCURVE",
"192 449 OFFCURVE",
"222 449 CURVE SMOOTH",
"312 449 LINE SMOOTH",
"364 449 OFFCURVE",
"405 392 OFFCURVE",
"410 345 CURVE",
"410 312 LINE",
"253 312 LINE SMOOTH",
"158 312 OFFCURVE",
"56 242 OFFCURVE",
"56 139 CURVE SMOOTH",
"56 57 OFFCURVE",
"122 -6 OFFCURVE",
"203 -6 CURVE SMOOTH",
"262 -6 LINE SMOOTH",
"327 -6 OFFCURVE",
"389 31 OFFCURVE",
"429 84 CURVE",
"457 31 OFFCURVE",
"510 -7 OFFCURVE",
"573 -7 CURVE SMOOTH",
"632 -7 LINE SMOOTH",
"740 -7 OFFCURVE",
"831 74 OFFCURVE",
"831 184 CURVE",
"765 184 LINE",
"765 111 OFFCURVE",
"706 52 OFFCURVE",
"632 52 CURVE SMOOTH",
"573 52 LINE SMOOTH",
"519 52 OFFCURVE",
"476 113 OFFCURVE",
"476 164 CURVE SMOOTH",
"476 206 LINE",
"476 215 LINE",
"476 261 LINE",
"831 261 LINE",
"831 336 LINE SMOOTH",
"831 426 OFFCURVE",
"759 507 OFFCURVE",
"667 507 CURVE SMOOTH",
"609 507 LINE SMOOTH",
"544 507 OFFCURVE",
"488 473 OFFCURVE",
"451 424 CURVE",
"421 472 OFFCURVE",
"368 508 OFFCURVE",
"312 508 CURVE SMOOTH",
"222 508 LINE SMOOTH",
"178 508 OFFCURVE",
"139 494 OFFCURVE",
"105 467 CURVE"
);
},
{
closed = 1;
nodes = (
"410 261 LINE",
"410 195 LINE",
"405 122 OFFCURVE",
"334 53 OFFCURVE",
"262 53 CURVE SMOOTH",
"203 53 LINE SMOOTH",
"156 53 OFFCURVE",
"122 96 OFFCURVE",
"122 141 CURVE SMOOTH",
"124 203 OFFCURVE",
"193 261 OFFCURVE",
"253 261 CURVE SMOOTH"
);
},
{
closed = 1;
nodes = (
"667 448 LINE SMOOTH",
"722 448 OFFCURVE",
"765 386 OFFCURVE",
"765 336 CURVE SMOOTH",
"765 312 LINE",
"476 312 LINE",
"476 386 OFFCURVE",
"535 448 OFFCURVE",
"609 448 CURVE SMOOTH"
);
}
);
width = 886;
}
);
note = ae;
unicode = 00E6;
},
{
glyphname = eth;
lastChange = "2017-12-18 10:29:47 +0000";
layers = (
{
layerId = "0B1DFD06-3317-40CA-B510-4969A0718C16";
paths = (
{
closed = 1;
nodes = (
"563 430 OFFCURVE",
"489 553 OFFCURVE",
"373 650 CURVE",
"371 651 OFFCURVE",
"370 654 OFFCURVE",
"367 656 CURVE",
"482 707 LINE",
"458 759 LINE",
"414 735 OFFCURVE",
"364 713 OFFCURVE",
"318 691 CURVE",
"271 726 OFFCURVE",
"220 750 OFFCURVE",
"164 774 CURVE",
"137 719 LINE",
"180 704 OFFCURVE",
"225 682 OFFCURVE",
"259 662 CURVE",
"122 598 LINE",
"143 550 LINE",
"199 573 OFFCURVE",
"255 601 OFFCURVE",
"311 628 CURVE",
"370 582 OFFCURVE",
"418 532 OFFCURVE",
"454 476 CURVE",
"405 513 OFFCURVE",
"354 525 OFFCURVE",
"302 525 CURVE SMOOTH",
"174 525 OFFCURVE",
"44 418 OFFCURVE",
"44 249 CURVE SMOOTH",
"44 100 OFFCURVE",
"147 -13 OFFCURVE",
"298 -13 CURVE SMOOTH",
"426 -13 OFFCURVE",
"563 72 OFFCURVE",
"563 270 CURVE SMOOTH"
);
},
{
closed = 1;
nodes = (
"498 116 OFFCURVE",
"410 41 OFFCURVE",
"296 41 CURVE SMOOTH",
"202 41 OFFCURVE",
"103 115 OFFCURVE",
"103 250 CURVE SMOOTH",
"103 352 OFFCURVE",
"165 470 OFFCURVE",
"302 470 CURVE",
"439 452 OFFCURVE",
"494 405 OFFCURVE",
"498 262 CURVE SMOOTH"
);
}
);
width = 613;
}
);
note = eth;
unicode = 00F0;
},
{
color = 3;
glyphname = dcaron;
lastChange = "2018-01-22 04:46:13 +0000";
layers = (
{
components = (
{
name = d;
}
);
layerId = "0B1DFD06-3317-40CA-B510-4969A0718C16";
paths = (
{
closed = 1;
nodes = (
"630 523 OFFCURVE",
"674 583 OFFCURVE",
"674 646 CURVE SMOOTH",
"674 694 OFFCURVE",
"650 714 OFFCURVE",
"621 714 CURVE SMOOTH",
"592 714 OFFCURVE",
"575 694 OFFCURVE",
"575 670 CURVE SMOOTH",
"575 636 OFFCURVE",
"610 629 OFFCURVE",
"610 594 CURVE SMOOTH",
"610 558 OFFCURVE",
"584 525 OFFCURVE",
"557 499 CURVE",
"574 482 LINE"
);
}
);
width = 686;
}
);
leftKerningGroup = d;
note = dcaron;
unicode = 010F;
},
{
color = 3;
glyphname = dcroat;
lastChange = "2018-01-22 04:46:13 +0000";
layers = (
{
components = (
{
name = d;
}
);
layerId = "0B1DFD06-3317-40CA-B510-4969A0718C16";
paths = (
{
closed = 1;
nodes = (
"559 567 LINE",
"559 624 LINE",
"269 624 LINE",
"269 567 LINE"
);
}
);
width = 585;
}
);
leftKerningGroup = d;
note = dcroat;
unicode = 0111;
},
{
color = 3;
glyphname = schwa;
lastChange = "2018-01-22 04:47:43 +0000";
layers = (
{
background = {
paths = (
{
closed = 1;
nodes = (
"396 -10 OFFCURVE",
"487 83 OFFCURVE",
"487 236 CURVE SMOOTH",
"487 393 OFFCURVE",
"392 480 OFFCURVE",
"246 480 CURVE SMOOTH",
"112 480 OFFCURVE",
"47 407 OFFCURVE",
"36 303 CURVE",
"65 303 LINE",
"83 407 OFFCURVE",
"154 444 OFFCURVE",
"225 444 CURVE SMOOTH",
"331 444 OFFCURVE",
"392 360 OFFCURVE",
"392 234 CURVE SMOOTH",
"392 121 OFFCURVE",
"343 28 OFFCURVE",
"242 28 CURVE SMOOTH",
"147 28 OFFCURVE",
"117 112 OFFCURVE",
"115 173 CURVE",
"403 173 LINE",
"403 212 LINE",
"32 212 LINE",
"32 189 LINE SMOOTH",
"32 77 OFFCURVE",
"100 -10 OFFCURVE",
"246 -10 CURVE SMOOTH"
);
}
);
};
layerId = "0B1DFD06-3317-40CA-B510-4969A0718C16";
paths = (
{
closed = 1;
nodes = (
"117 236 LINE",
"50 236 LINE",
"50 181 LINE SMOOTH",
"50 66 OFFCURVE",
"119 -10 OFFCURVE",
"223 -10 CURVE SMOOTH",
"295 -10 LINE SMOOTH",
"408 -10 OFFCURVE",
"484 72 OFFCURVE",
"484 196 CURVE SMOOTH",
"484 336 LINE SMOOTH",
"484 439 OFFCURVE",
"414 507 OFFCURVE",
"310 507 CURVE SMOOTH",
"239 507 LINE SMOOTH",
"127 507 OFFCURVE",
"52 437 OFFCURVE",
"52 332 CURVE",
"119 332 LINE",
"119 400 OFFCURVE",
"167 446 OFFCURVE",
"239 446 CURVE SMOOTH",
"310 446 LINE SMOOTH",
"374 446 OFFCURVE",
"417 402 OFFCURVE",
"417 336 CURVE SMOOTH",
"417 196 LINE SMOOTH",
"417 109 OFFCURVE",
"368 51 OFFCURVE",
"295 51 CURVE SMOOTH",
"223 51 LINE SMOOTH",
"159 51 OFFCURVE",
"117 103 OFFCURVE",
"117 181 CURVE"
);
},
{
closed = 1;
nodes = (
"473 261 LINE",
"50 261 LINE",
"50 202 LINE",
"473 202 LINE"
);
}
);
width = 534;
}
);
note = schwa;
unicode = 0259;
},
{
color = 3;
glyphname = hbar;
lastChange = "2018-01-22 04:48:14 +0000";
layers = (
{
components = (
{
name = h;
}
);
layerId = "0B1DFD06-3317-40CA-B510-4969A0718C16";
paths = (
{
closed = 1;
nodes = (
"299 567 LINE",
"299 624 LINE",
"9 624 LINE",
"9 567 LINE"
);
}
);
width = 622;
}
);
note = hbar;
rightKerningGroup = h;
unicode = 0127;
},
{
glyphname = idotless;
lastChange = "2017-12-18 10:34:53 +0000";
layers = (
{
layerId = "0B1DFD06-3317-40CA-B510-4969A0718C16";
paths = (
{
closed = 1;
nodes = (
"155 0 LINE",
"155 500 LINE",
"88 500 LINE",
"88 0 LINE"
);
}
);
width = 243;
}
);
note = dotlessi;
unicode = 0131;
},
{
color = 3;
glyphname = jdotless;
lastChange = "2018-01-22 04:48:54 +0000";
layers = (
{
layerId = "0B1DFD06-3317-40CA-B510-4969A0718C16";
paths = (
{
closed = 1;
nodes = (
"97 -10 LINE SMOOTH",
"97 -105 OFFCURVE",
"71 -138 OFFCURVE",
"-5 -138 CURVE SMOOTH",
"-40 -138 LINE",
"-40 -199 LINE",
"-5 -199 LINE SMOOTH",
"116 -199 OFFCURVE",
"164 -145 OFFCURVE",
"164 -10 CURVE SMOOTH",
"164 501 LINE",
"97 501 LINE"
);
}
);
width = 302;
}
);
leftKerningGroup = j;
note = dotlessj;
unicode = 0237;
},
{
color = 0;
glyphname = kgreenlandic;
lastChange = "2018-01-22 04:49:03 +0000";
layers = (
{
background = {
paths = (
{
closed = 1;
nodes = (
"257 0 LINE",
"257 25 LINE",
"240 25 LINE SMOOTH",
"211 25 OFFCURVE",
"187 35 OFFCURVE",
"187 57 CURVE SMOOTH",
"187 487 LINE",
"162 487 LINE",
"36 442 LINE",
"43 419 LINE",
"54 423 OFFCURVE",
"65 427 OFFCURVE",
"73 427 CURVE SMOOTH",
"82 427 OFFCURVE",
"94 424 OFFCURVE",
"94 406 CURVE SMOOTH",
"94 57 LINE SMOOTH",
"94 34 OFFCURVE",
"70 25 OFFCURVE",
"40 25 CURVE SMOOTH",
"21 25 LINE",
"21 0 LINE"
);
},
{
closed = 1;
nodes = (
"577 0 LINE",
"577 25 LINE",
"550 25 LINE SMOOTH",
"530 25 OFFCURVE",
"496 35 OFFCURVE",
"475 55 CURVE SMOOTH",
"247 266 LINE",
"185 217 LINE",
"421 0 LINE"
);
},
{
closed = 1;
nodes = (
"446 417 LINE SMOOTH",
"463 432 OFFCURVE",
"488 444 OFFCURVE",
"506 444 CURVE SMOOTH",
"528 444 LINE",
"528 470 LINE",
"332 470 LINE",
"332 444 LINE",
"354 444 LINE SMOOTH",
"380 444 OFFCURVE",
"401 428 OFFCURVE",
"380 411 CURVE SMOOTH",
"155 225 LINE",
"155 173 LINE"
);
}
);
};
layerId = "0B1DFD06-3317-40CA-B510-4969A0718C16";
paths = (
{
closed = 1;
nodes = (
"257 0 LINE",
"257 25 LINE",
"240 25 LINE SMOOTH",
"211 25 OFFCURVE",
"187 35 OFFCURVE",
"187 57 CURVE SMOOTH",
"187 487 LINE",
"162 487 LINE",
"36 442 LINE",
"43 419 LINE",
"54 423 OFFCURVE",
"65 427 OFFCURVE",
"73 427 CURVE SMOOTH",
"82 427 OFFCURVE",
"94 424 OFFCURVE",
"94 406 CURVE SMOOTH",
"94 57 LINE SMOOTH",
"94 34 OFFCURVE",
"70 25 OFFCURVE",
"40 25 CURVE SMOOTH",
"21 25 LINE",
"21 0 LINE"
);
},
{
closed = 1;
nodes = (
"577 0 LINE",
"577 25 LINE",
"550 25 LINE SMOOTH",
"530 25 OFFCURVE",
"496 35 OFFCURVE",
"475 55 CURVE SMOOTH",
"247 266 LINE",
"185 217 LINE",
"421 0 LINE"
);
},
{
closed = 1;
nodes = (
"446 417 LINE SMOOTH",
"463 432 OFFCURVE",
"488 444 OFFCURVE",
"506 444 CURVE SMOOTH",
"528 444 LINE",
"528 470 LINE",
"332 470 LINE",
"332 444 LINE",
"354 444 LINE SMOOTH",
"380 444 OFFCURVE",
"401 428 OFFCURVE",
"380 411 CURVE SMOOTH",
"155 225 LINE",
"155 173 LINE"
);
}
);
width = 591;
}
);
note = kgreenlandic;
rightKerningGroup = k;
unicode = 0138;
},
{
glyphname = lslash;
lastChange = "2017-12-18 10:31:39 +0000";
layers = (
{
layerId = "0B1DFD06-3317-40CA-B510-4969A0718C16";
paths = (
{
closed = 1;
nodes = (
"35 215 LINE",
"111 278 LINE",
"111 0 LINE",
"177 0 LINE",
"177 336 LINE",
"250 399 LINE",
"250 480 LINE",
"177 418 LINE",
"177 700 LINE",
"111 700 LINE",
"111 362 LINE",
"32 296 LINE"
);
}
);
width = 284;
}
);
note = lslash;
unicode = 0142;
},
{
color = 0;
glyphname = eng;
lastChange = "2017-12-18 11:15:53 +0000";
layers = (
{
layerId = "0B1DFD06-3317-40CA-B510-4969A0718C16";
paths = (
{
closed = 1;
nodes = (
"478 -215 OFFCURVE",
"529 -140 OFFCURVE",
"529 -17 CURVE SMOOTH",
"529 344 LINE SMOOTH",
"529 424 OFFCURVE",
"472 480 OFFCURVE",
"358 480 CURVE SMOOTH",
"266 480 OFFCURVE",
"195 424 OFFCURVE",
"178 373 CURVE",
"178 285 LINE",
"188 285 LINE",
"188 389 OFFCURVE",
"264 439 OFFCURVE",
"331 439 CURVE SMOOTH",
"395 439 OFFCURVE",
"435 404 OFFCURVE",
"435 332 CURVE SMOOTH",
"435 -58 LINE SMOOTH",
"435 -128 OFFCURVE",
"413 -186 OFFCURVE",
"339 -215 CURVE",
"344 -238 LINE"
);
},
{
closed = 1;
nodes = (
"255 0 LINE",
"255 25 LINE",
"240 25 LINE SMOOTH",
"205 25 OFFCURVE",
"188 37 OFFCURVE",
"188 66 CURVE SMOOTH",
"188 473 LINE",
"166 473 LINE",
"38 428 LINE",
"44 406 LINE",
"54 410 OFFCURVE",
"66 414 OFFCURVE",
"74 414 CURVE SMOOTH",
"83 414 OFFCURVE",
"94 410 OFFCURVE",
"94 393 CURVE SMOOTH",
"94 66 LINE SMOOTH",
"94 37 OFFCURVE",
"77 25 OFFCURVE",
"41 25 CURVE SMOOTH",
"22 25 LINE",
"22 0 LINE"
);
}
);
width = 609;
}
);
leftKerningGroup = m;
note = eng;
rightKerningGroup = m;
unicode = 014B;
},
{
glyphname = ohorn;
lastChange = "2017-12-18 10:31:50 +0000";
layers = (
{
layerId = "0B1DFD06-3317-40CA-B510-4969A0718C16";
paths = (
{
closed = 1;
nodes = (
"469 336 LINE SMOOTH",
"469 371 OFFCURVE",
"451 408 OFFCURVE",
"432 436 CURVE",
"514 488 OFFCURVE",
"519 561 OFFCURVE",
"523 623 CURVE",
"469 623 LINE",
"469 597 OFFCURVE",
"457 492 OFFCURVE",
"385 485 CURVE",
"361 498 OFFCURVE",
"333 507 OFFCURVE",
"305 507 CURVE SMOOTH",
"246 507 LINE SMOOTH",
"137 507 OFFCURVE",
"47 413 OFFCURVE",
"47 301 CURVE SMOOTH",
"47 164 LINE SMOOTH",
"47 72 OFFCURVE",
"119 -7 OFFCURVE",
"211 -7 CURVE SMOOTH",
"270 -7 LINE SMOOTH",
"379 -7 OFFCURVE",
"469 87 OFFCURVE",
"469 199 CURVE SMOOTH"
);
},
{
closed = 1;
nodes = (
"402 199 LINE SMOOTH",
"402 124 OFFCURVE",
"343 52 OFFCURVE",
"270 52 CURVE SMOOTH",
"211 52 LINE SMOOTH",
"158 52 OFFCURVE",
"113 111 OFFCURVE",
"113 164 CURVE SMOOTH",
"113 301 LINE SMOOTH",
"113 376 OFFCURVE",
"172 448 OFFCURVE",
"246 448 CURVE SMOOTH",
"305 448 LINE SMOOTH",
"358 448 OFFCURVE",
"402 389 OFFCURVE",
"402 336 CURVE SMOOTH"
);
}
);
width = 525;
}
);
note = ohorn;
unicode = 01A1;
},
{
glyphname = oslash;
lastChange = "2017-12-18 10:32:00 +0000";
layers = (
{
layerId = "0B1DFD06-3317-40CA-B510-4969A0718C16";
paths = (
{
closed = 1;
nodes = (
"108 -25 LINE",
"136 15 LINE",
"159 0 OFFCURVE",
"187 -7 OFFCURVE",
"217 -7 CURVE SMOOTH",
"276 -7 LINE SMOOTH",
"385 -7 OFFCURVE",
"474 87 OFFCURVE",
"474 199 CURVE SMOOTH",
"474 336 LINE SMOOTH",
"474 377 OFFCURVE",
"458 417 OFFCURVE",
"433 446 CURVE",
"488 525 LINE",
"421 525 LINE",
"392 483 LINE",
"368 498 OFFCURVE",
"340 507 OFFCURVE",
"311 507 CURVE SMOOTH",
"252 507 LINE SMOOTH",
"143 507 OFFCURVE",
"53 413 OFFCURVE",
"53 301 CURVE SMOOTH",
"53 164 LINE SMOOTH",
"53 122 OFFCURVE",
"68 83 OFFCURVE",
"93 53 CURVE",
"38 -25 LINE"
);
},
{
closed = 1;
nodes = (
"408 199 LINE SMOOTH",
"408 124 OFFCURVE",
"349 52 OFFCURVE",
"276 52 CURVE SMOOTH",
"217 52 LINE SMOOTH",
"200 52 OFFCURVE",
"184 56 OFFCURVE",
"171 66 CURVE",
"393 389 LINE",
"402 373 OFFCURVE",
"408 354 OFFCURVE",
"408 336 CURVE SMOOTH"
);
},
{
closed = 1;
nodes = (
"119 301 LINE SMOOTH",
"119 376 OFFCURVE",
"178 448 OFFCURVE",
"252 448 CURVE SMOOTH",
"311 448 LINE SMOOTH",
"327 448 OFFCURVE",
"343 442 OFFCURVE",
"357 432 CURVE",
"133 111 LINE",
"124 127 OFFCURVE",
"119 146 OFFCURVE",
"119 164 CURVE SMOOTH"
);
}
);
width = 529;
}
);
note = oslash;
unicode = 00F8;
},
{
glyphname = oe;
lastChange = "2017-12-18 10:32:45 +0000";
layers = (
{
layerId = "0B1DFD06-3317-40CA-B510-4969A0718C16";
paths = (
{
closed = 1;
nodes = (
"473 261 LINE",
"828 261 LINE",
"828 336 LINE SMOOTH",
"828 427 OFFCURVE",
"756 507 OFFCURVE",
"665 507 CURVE SMOOTH",
"606 507 LINE SMOOTH",
"541 507 OFFCURVE",
"485 474 OFFCURVE",
"448 424 CURVE",
"418 473 OFFCURVE",
"368 507 OFFCURVE",
"309 507 CURVE SMOOTH",
"250 507 LINE SMOOTH",
"141 507 OFFCURVE",
"52 413 OFFCURVE",
"52 301 CURVE SMOOTH",
"52 164 LINE SMOOTH",
"52 72 OFFCURVE",
"124 -7 OFFCURVE",
"215 -7 CURVE SMOOTH",
"274 -7 LINE SMOOTH",
"337 -7 OFFCURVE",
"395 25 OFFCURVE",
"432 74 CURVE",
"460 27 OFFCURVE",
"511 -7 OFFCURVE",
"570 -7 CURVE SMOOTH",
"629 -7 LINE SMOOTH",
"738 -7 OFFCURVE",
"828 72 OFFCURVE",
"828 184 CURVE",
"762 184 LINE",
"762 109 OFFCURVE",
"703 52 OFFCURVE",
"629 52 CURVE SMOOTH",
"570 52 LINE SMOOTH",
"517 52 OFFCURVE",
"473 111 OFFCURVE",
"473 164 CURVE SMOOTH"
);
},
{
closed = 1;
nodes = (
"407 199 LINE SMOOTH",
"407 124 OFFCURVE",
"348 52 OFFCURVE",
"274 52 CURVE SMOOTH",
"215 52 LINE SMOOTH",
"162 52 OFFCURVE",
"118 111 OFFCURVE",
"118 164 CURVE SMOOTH",
"118 301 LINE SMOOTH",
"118 376 OFFCURVE",
"177 448 OFFCURVE",
"250 448 CURVE SMOOTH",
"309 448 LINE SMOOTH",
"362 448 OFFCURVE",
"407 389 OFFCURVE",
"407 336 CURVE SMOOTH"
);
},
{
closed = 1;
nodes = (
"665 448 LINE SMOOTH",
"718 448 OFFCURVE",
"762 389 OFFCURVE",
"762 336 CURVE SMOOTH",
"762 312 LINE",
"473 312 LINE",
"473 388 OFFCURVE",
"532 448 OFFCURVE",
"606 448 CURVE SMOOTH"
);
}
);
width = 899;
}
);
note = oe;
unicode = 0153;
},
{
glyphname = thorn;
lastChange = "2017-12-18 10:33:17 +0000";
layers = (
{
layerId = "0B1DFD06-3317-40CA-B510-4969A0718C16";
paths = (
{
closed = 1;
nodes = (
"547 336 LINE SMOOTH",
"547 427 OFFCURVE",
"474 507 OFFCURVE",
"383 507 CURVE SMOOTH",
"324 507 LINE SMOOTH",
"273 507 OFFCURVE",
"227 486 OFFCURVE",
"192 454 CURVE",
"192 700 LINE",
"125 700 LINE",
"125 -222 LINE",
"192 -222 LINE",
"192 27 LINE",
"218 4 OFFCURVE",
"252 -7 OFFCURVE",
"289 -7 CURVE SMOOTH",
"348 -7 LINE SMOOTH",
"457 -7 OFFCURVE",
"547 87 OFFCURVE",
"547 199 CURVE SMOOTH"
);
},
{
closed = 1;
nodes = (
"480 199 LINE SMOOTH",
"480 124 OFFCURVE",
"421 52 OFFCURVE",
"348 52 CURVE SMOOTH",
"289 52 LINE SMOOTH",
"236 52 OFFCURVE",
"192 111 OFFCURVE",
"192 164 CURVE SMOOTH",
"192 306 LINE SMOOTH",
"192 379 OFFCURVE",
"252 448 OFFCURVE",
"324 448 CURVE SMOOTH",
"383 448 LINE SMOOTH",
"436 448 OFFCURVE",
"480 389 OFFCURVE",
"480 336 CURVE SMOOTH"
);
}
);
width = 650;
}
);
note = thorn;
unicode = 00FE;
},
{
color = 3;
glyphname = germandbls;
lastChange = "2018-01-22 05:02:14 +0000";
layers = (
{
background = {
paths = (
{
closed = 1;
nodes = (
"151 -186 LINE",
"151 505 LINE SMOOTH",
"151 581 OFFCURVE",
"210 653 OFFCURVE",
"284 653 CURVE SMOOTH",
"343 653 LINE SMOOTH",
"396 653 OFFCURVE",
"440 594 OFFCURVE",
"440 541 CURVE SMOOTH",
"440 514 LINE",
"377 482 OFFCURVE",
"331 438 OFFCURVE",
"331 385 CURVE SMOOTH",
"331 333 OFFCURVE",
"357 296 OFFCURVE",
"416 245 CURVE SMOOTH",
"464 203 OFFCURVE",
"489 202 OFFCURVE",
"489 149 CURVE SMOOTH",
"489 103 OFFCURVE",
"446 53 OFFCURVE",
"374 53 CURVE SMOOTH",
"338 53 OFFCURVE",
"300 65 OFFCURVE",
"262 85 CURVE",
"232 25 LINE",
"269 3 OFFCURVE",
"331 -13 OFFCURVE",
"374 -13 CURVE SMOOTH",
"492 -13 OFFCURVE",
"555 62 OFFCURVE",
"555 153 CURVE SMOOTH",
"555 231 OFFCURVE",
"511 242 OFFCURVE",
"464 289 CURVE",
"424 324 OFFCURVE",
"397 340 OFFCURVE",
"397 385 CURVE SMOOTH",
"397 424 OFFCURVE",
"455 454 OFFCURVE",
"506 473 CURVE",
"506 541 LINE SMOOTH",
"506 632 OFFCURVE",
"434 712 OFFCURVE",
"343 712 CURVE SMOOTH",
"284 712 LINE SMOOTH",
"175 712 OFFCURVE",
"85 617 OFFCURVE",
"85 505 CURVE SMOOTH",
"85 -186 LINE"
);
}
);
};
layerId = "0B1DFD06-3317-40CA-B510-4969A0718C16";
paths = (
{
closed = 1;
nodes = (
"153 0 LINE",
"153 471 LINE",
"153 508 LINE SMOOTH",
"153 590 OFFCURVE",
"212 645 OFFCURVE",
"301 645 CURVE SMOOTH",
"374 645 LINE SMOOTH",
"447 645 OFFCURVE",
"500 595 OFFCURVE",
"500 521 CURVE",
"566 521 LINE",
"566 631 OFFCURVE",
"486 704 OFFCURVE",
"374 704 CURVE SMOOTH",
"301 704 LINE SMOOTH",
"172 704 OFFCURVE",
"86 626 OFFCURVE",
"86 508 CURVE SMOOTH",
"86 471 LINE",
"0 471 LINE",
"0 410 LINE",
"86 410 LINE",
"86 0 LINE"
);
},
{
closed = 1;
nodes = (
"464 -10 LINE SMOOTH",
"561 -10 OFFCURVE",
"625 47 OFFCURVE",
"625 133 CURVE SMOOTH",
"625 152 LINE SMOOTH",
"625 275 OFFCURVE",
"444 313 OFFCURVE",
"444 388 CURVE SMOOTH",
"444 399 LINE SMOOTH",
"444 448 OFFCURVE",
"473 471 OFFCURVE",
"530 471 CURVE SMOOTH",
"566 471 LINE",
"566 521 LINE",
"564 530 LINE",
"530 530 LINE SMOOTH",
"434 530 OFFCURVE",
"377 481 OFFCURVE",
"377 399 CURVE SMOOTH",
"377 388 LINE SMOOTH",
"377 275 OFFCURVE",
"558 240 OFFCURVE",
"558 152 CURVE SMOOTH",
"558 133 LINE SMOOTH",
"558 83 OFFCURVE",
"520 49 OFFCURVE",
"464 49 CURVE SMOOTH",
"413 49 LINE SMOOTH",
"358 49 OFFCURVE",
"321 84 OFFCURVE",
"321 136 CURVE",
"255 136 LINE",
"255 48 OFFCURVE",
"318 -10 OFFCURVE",
"413 -10 CURVE SMOOTH"
);
}
);
width = 635;
}
);
leftKerningGroup = f;
note = germandbls;
unicode = 00DF;
},
{
glyphname = tbar;
lastChange = "2017-12-18 10:26:13 +0000";
layers = (
{
components = (
{
name = t;
}
);
layerId = "0B1DFD06-3317-40CA-B510-4969A0718C16";
paths = (
{
closed = 1;
nodes = (
"321 260 LINE",
"321 297 LINE",
"33 297 LINE",
"33 260 LINE"
);
}
);
width = 397;
}
);
leftKerningGroup = t;
note = tbar;
rightKerningGroup = t;
unicode = 0167;
},
{
glyphname = uhorn;
lastChange = "2017-12-18 10:33:59 +0000";
layers = (
{
layerId = "0B1DFD06-3317-40CA-B510-4969A0718C16";
paths = (
{
closed = 1;
nodes = (
"119 500 LINE",
"53 500 LINE",
"53 164 LINE SMOOTH",
"53 72 OFFCURVE",
"121 -7 OFFCURVE",
"212 -7 CURVE SMOOTH",
"271 -7 LINE SMOOTH",
"324 -7 OFFCURVE",
"380 24 OFFCURVE",
"407 63 CURVE",
"407 0 LINE",
"473 0 LINE",
"473 421 LINE",
"592 452 OFFCURVE",
"594 572 OFFCURVE",
"595 623 CURVE",
"548 623 LINE",
"548 610 OFFCURVE",
"550 486 OFFCURVE",
"473 472 CURVE",
"473 500 LINE",
"407 500 LINE",
"407 174 LINE",
"396 111 OFFCURVE",
"337 52 OFFCURVE",
"271 52 CURVE SMOOTH",
"212 52 LINE SMOOTH",
"159 52 OFFCURVE",
"119 108 OFFCURVE",
"119 161 CURVE SMOOTH"
);
}
);
width = 586;
}
);
note = uhorn;
unicode = 01B0;
},
{
glyphname = fi;
lastChange = "2017-12-18 10:34:16 +0000";
layers = (
{
layerId = "0B1DFD06-3317-40CA-B510-4969A0718C16";
paths = (
{
closed = 1;
nodes = (
"125 0 LINE",
"192 0 LINE",
"192 448 LINE",
"385 448 LINE",
"385 0 LINE",
"451 0 LINE",
"451 500 LINE",
"192 500 LINE",
"193 573 OFFCURVE",
"250 632 OFFCURVE",
"324 632 CURVE",
"324 698 LINE",
"215 698 OFFCURVE",
"127 610 OFFCURVE",
"125 500 CURVE",
"29 500 LINE",
"29 448 LINE",
"125 448 LINE"
);
}
);
width = 541;
}
);
note = fi;
unicode = FB01;
},
{
glyphname = fl;
lastChange = "2017-12-18 10:34:16 +0000";
layers = (
{
layerId = "0B1DFD06-3317-40CA-B510-4969A0718C16";
paths = (
{
closed = 1;
nodes = (
"401 0 LINE",
"467 0 LINE",
"467 700 LINE",
"401 700 LINE",
"401 500 LINE",
"192 500 LINE",
"193 573 OFFCURVE",
"250 632 OFFCURVE",
"324 632 CURVE",
"324 698 LINE",
"215 698 OFFCURVE",
"127 610 OFFCURVE",
"125 500 CURVE",
"29 500 LINE",
"29 448 LINE",
"125 448 LINE",
"125 0 LINE",
"192 0 LINE",
"192 448 LINE",
"401 448 LINE"
);
}
);
width = 554;
}
);
note = fl;
unicode = FB02;
},
{
color = 3;
glyphname = ordfeminine;
lastChange = "2018-01-22 05:02:22 +0000";
layers = (
{
layerId = "0B1DFD06-3317-40CA-B510-4969A0718C16";
paths = (
{
closed = 1;
nodes = (
"284 281 LINE",
"332 281 LINE",
"332 629 LINE",
"284 629 LINE",
"284 597 LINE",
"268 614 OFFCURVE",
"253 634 OFFCURVE",
"217 634 CURVE SMOOTH",
"175 634 LINE SMOOTH",
"99 634 OFFCURVE",
"35 569 OFFCURVE",
"35 491 CURVE SMOOTH",
"35 396 LINE SMOOTH",
"35 333 OFFCURVE",
"77 278 OFFCURVE",
"140 278 CURVE SMOOTH",
"181 278 LINE SMOOTH",
"217 278 OFFCURVE",
"267 301 OFFCURVE",
"284 330 CURVE"
);
},
{
closed = 1;
nodes = (
"284 417 LINE SMOOTH",
"283 367 OFFCURVE",
"231 318 OFFCURVE",
"181 318 CURVE SMOOTH",
"140 318 LINE SMOOTH",
"103 318 OFFCURVE",
"83 360 OFFCURVE",
"83 396 CURVE SMOOTH",
"83 491 LINE SMOOTH",
"83 544 OFFCURVE",
"124 594 OFFCURVE",
"175 594 CURVE SMOOTH",
"217 594 LINE SMOOTH",
"252 594 OFFCURVE",
"281 551 OFFCURVE",
"284 516 CURVE"
);
}
);
width = 371;
}
);
note = ordfeminine;
unicode = 00AA;
},
{
color = 3;
glyphname = ordmasculine;
lastChange = "2018-01-22 05:02:22 +0000";
layers = (
{
layerId = "0B1DFD06-3317-40CA-B510-4969A0718C16";
paths = (
{
closed = 1;
nodes = (
"334 516 LINE SMOOTH",
"334 579 OFFCURVE",
"283 635 OFFCURVE",
"220 635 CURVE SMOOTH",
"178 635 LINE SMOOTH",
"102 635 OFFCURVE",
"38 569 OFFCURVE",
"38 491 CURVE SMOOTH",
"38 395 LINE SMOOTH",
"38 330 OFFCURVE",
"90 274 OFFCURVE",
"153 274 CURVE SMOOTH",
"195 274 LINE SMOOTH",
"271 274 OFFCURVE",
"334 340 OFFCURVE",
"334 420 CURVE SMOOTH"
);
},
{
closed = 1;
nodes = (
"287 420 LINE SMOOTH",
"287 367 OFFCURVE",
"246 317 OFFCURVE",
"195 317 CURVE SMOOTH",
"153 317 LINE SMOOTH",
"116 317 OFFCURVE",
"85 358 OFFCURVE",
"85 395 CURVE SMOOTH",
"85 491 LINE SMOOTH",
"85 544 OFFCURVE",
"127 594 OFFCURVE",
"178 594 CURVE SMOOTH",
"220 594 LINE SMOOTH",
"256 594 OFFCURVE",
"287 553 OFFCURVE",
"287 516 CURVE SMOOTH"
);
}
);
width = 371;
}
);
note = ordmasculine;
unicode = 00BA;
},
{
color = 3;
glyphname = nmod;
lastChange = "2018-01-22 05:02:25 +0000";
layers = (
{
layerId = "0B1DFD06-3317-40CA-B510-4969A0718C16";
paths = (
{
closed = 1;
nodes = (
"410 378 LINE",
"410 397 LINE",
"392 397 LINE SMOOTH",
"368 397 OFFCURVE",
"350 405 OFFCURVE",
"350 424 CURVE SMOOTH",
"350 599 LINE SMOOTH",
"350 660 OFFCURVE",
"323 708 OFFCURVE",
"240 708 CURVE SMOOTH",
"168 708 OFFCURVE",
"128 658 OFFCURVE",
"116 601 CURVE",
"116 548 LINE",
"135 548 LINE",
"135 628 OFFCURVE",
"173 677 OFFCURVE",
"221 677 CURVE SMOOTH",
"266 677 OFFCURVE",
"281 652 OFFCURVE",
"281 595 CURVE SMOOTH",
"281 424 LINE SMOOTH",
"281 405 OFFCURVE",
"264 397 OFFCURVE",
"239 397 CURVE SMOOTH",
"229 397 LINE",
"229 378 LINE"
);
},
{
closed = 1;
nodes = (
"187 378 LINE",
"187 397 LINE",
"177 397 LINE SMOOTH",
"152 397 OFFCURVE",
"135 405 OFFCURVE",
"135 424 CURVE SMOOTH",
"135 706 LINE",
"114 706 LINE",
"17 670 LINE",
"22 652 LINE",
"30 655 OFFCURVE",
"42 659 OFFCURVE",
"50 659 CURVE SMOOTH",
"58 659 OFFCURVE",
"66 656 OFFCURVE",
"66 643 CURVE SMOOTH",
"66 424 LINE SMOOTH",
"66 405 OFFCURVE",
"48 397 OFFCURVE",
"23 397 CURVE SMOOTH",
"6 397 LINE",
"6 378 LINE"
);
}
);
width = 416;
}
);
note = uni207F;
unicode = 207F;
},
{
color = 3;
glyphname = Delta;
lastChange = "2018-01-22 05:11:04 +0000";
layers = (
{
layerId = "0B1DFD06-3317-40CA-B510-4969A0718C16";
paths = (
{
closed = 1;
nodes = (
"324 708 LINE",
"4 0 LINE",
"637 0 LINE"
);
},
{
closed = 1;
nodes = (
"99 61 LINE",
"324 559 LINE",
"542 61 LINE"
);
}
);
width = 641;
}
);
note = Delta;
unicode = 0394;
},
{
color = 3;
glyphname = Omega;
lastChange = "2018-01-22 05:11:04 +0000";
layers = (
{
layerId = "0B1DFD06-3317-40CA-B510-4969A0718C16";
paths = (
{
closed = 1;
nodes = (
"419 648 LINE SMOOTH",
"526 648 OFFCURVE",
"589 587 OFFCURVE",
"589 484 CURVE SMOOTH",
"589 375 LINE SMOOTH",
"589 294 OFFCURVE",
"547 246 OFFCURVE",
"475 246 CURVE SMOOTH",
"426 246 LINE",
"426 0 LINE",
"694 0 LINE",
"694 62 LINE",
"495 62 LINE",
"495 184 LINE",
"593 194 OFFCURVE",
"658 264 OFFCURVE",
"658 360 CURVE SMOOTH",
"658 484 LINE SMOOTH",
"658 626 OFFCURVE",
"569 710 OFFCURVE",
"419 710 CURVE SMOOTH",
"315 710 LINE SMOOTH",
"165 710 OFFCURVE",
"74 626 OFFCURVE",
"74 484 CURVE SMOOTH",
"74 360 LINE SMOOTH",
"74 264 OFFCURVE",
"143 194 OFFCURVE",
"241 184 CURVE",
"241 62 LINE",
"42 62 LINE",
"42 0 LINE",
"310 0 LINE",
"310 246 LINE",
"261 246 LINE SMOOTH",
"189 246 OFFCURVE",
"143 294 OFFCURVE",
"143 375 CURVE SMOOTH",
"143 484 LINE SMOOTH",
"143 587 OFFCURVE",
"208 648 OFFCURVE",
"315 648 CURVE SMOOTH"
);
}
);
width = 719;
}
);
note = Omega;
unicode = 03A9;
},
{
color = 3;
glyphname = mu;
lastChange = "2018-01-22 05:11:04 +0000";
layers = (
{
background = {
paths = (
{
closed = 1;
nodes = (
"119 -183 LINE",
"119 24 LINE",
"144 4 OFFCURVE",
"177 -7 OFFCURVE",
"212 -7 CURVE SMOOTH",
"271 -7 LINE SMOOTH",
"324 -7 OFFCURVE",
"380 24 OFFCURVE",
"407 63 CURVE",
"407 0 LINE",
"473 0 LINE",
"473 500 LINE",
"407 500 LINE",
"407 174 LINE",
"396 111 OFFCURVE",
"337 52 OFFCURVE",
"271 52 CURVE SMOOTH",
"212 52 LINE SMOOTH",
"159 52 OFFCURVE",
"119 108 OFFCURVE",
"119 161 CURVE SMOOTH",
"119 500 LINE",
"53 500 LINE",
"53 -183 LINE"
);
}
);
};
layerId = "0B1DFD06-3317-40CA-B510-4969A0718C16";
paths = (
{
closed = 1;
nodes = (
"132 501 LINE",
"65 501 LINE",
"65 163 LINE SMOOTH",
"65 59 OFFCURVE",
"127 -10 OFFCURVE",
"221 -10 CURVE SMOOTH",
"280 -10 LINE SMOOTH",
"333 -10 OFFCURVE",
"390 22 OFFCURVE",
"422 69 CURVE",
"422 0 LINE",
"487 0 LINE",
"487 501 LINE",
"420 501 LINE",
"420 195 LINE",
"415 116 OFFCURVE",
"358 51 OFFCURVE",
"280 51 CURVE SMOOTH",
"221 51 LINE SMOOTH",
"168 51 OFFCURVE",
"132 96 OFFCURVE",
"132 163 CURVE SMOOTH"
);
},
{
closed = 1;
nodes = (
"65 -183 LINE",
"132 -183 LINE",
"132 220 LINE",
"65 220 LINE"
);
}
);
width = 526;
}
);
note = mu;
unicode = 03BC;
},
{
color = 3;
glyphname = pi;
lastChange = "2018-01-22 05:11:04 +0000";
layers = (
{
background = {
paths = (
{
closed = 1;
nodes = (
"577 -10 OFFCURVE",
"603 -4 OFFCURVE",
"633 13 CURVE",
"633 54 LINE",
"618 44 OFFCURVE",
"598 36 OFFCURVE",
"581 36 CURVE SMOOTH",
"555 36 OFFCURVE",
"528 49 OFFCURVE",
"528 100 CURVE SMOOTH",
"528 431 LINE",
"647 431 LINE",
"647 470 LINE",
"19 470 LINE",
"19 431 LINE",
"136 431 LINE",
"136 0 LINE",
"231 0 LINE",
"231 431 LINE",
"433 431 LINE",
"433 96 LINE SMOOTH",
"433 32 OFFCURVE",
"466 -10 OFFCURVE",
"540 -10 CURVE SMOOTH"
);
}
);
};
layerId = "0B1DFD06-3317-40CA-B510-4969A0718C16";
paths = (
{
closed = 1;
nodes = (
"644 0 LINE",
"644 59 LINE",
"600 59 LINE SMOOTH",
"546 59 OFFCURVE",
"524 84 OFFCURVE",
"524 146 CURVE SMOOTH",
"524 440 LINE",
"644 440 LINE",
"644 501 LINE",
"35 501 LINE",
"35 440 LINE",
"457 440 LINE",
"457 146 LINE SMOOTH",
"457 42 OFFCURVE",
"498 0 OFFCURVE",
"600 0 CURVE SMOOTH"
);
},
{
closed = 1;
nodes = (
"219 0 LINE",
"219 480 LINE",
"152 480 LINE",
"152 0 LINE"
);
}
);
width = 664;
}
);
note = pi;
unicode = 03C0;
},
{
glyphname = "koKai-thai";
lastChange = "2018-01-19 11:54:37 +0000";
layers = (
{
background = {
paths = (
{
closed = 1;
nodes = (
"438 0 LINE",
"505 0 LINE",
"505 426 LINE SMOOTH",
"505 513 OFFCURVE",
"435 584 OFFCURVE",
"346 584 CURVE SMOOTH",
"244 584 LINE SMOOTH",
"140 584 OFFCURVE",
"47 486 OFFCURVE",
"34 383 CURVE",
"73 375 OFFCURVE",
"99 344 OFFCURVE",
"99 295 CURVE SMOOTH",
"99 0 LINE",
"166 0 LINE",
"166 295 LINE SMOOTH",
"166 347 OFFCURVE",
"146 387 OFFCURVE",
"108 411 CURVE",
"127 469 OFFCURVE",
"183 523 OFFCURVE",
"244 523 CURVE SMOOTH",
"337 523 LINE SMOOTH",
"399 523 OFFCURVE",
"438 480 OFFCURVE",
"438 426 CURVE SMOOTH"
);
}
);
};
layerId = "0B1DFD06-3317-40CA-B510-4969A0718C16";
paths = (
{
closed = 1;
nodes = (
"438 0 LINE",
"505 0 LINE",
"505 426 LINE SMOOTH",
"505 513 OFFCURVE",
"435 584 OFFCURVE",
"346 584 CURVE SMOOTH",
"244 584 LINE SMOOTH",
"140 584 OFFCURVE",
"47 486 OFFCURVE",
"34 383 CURVE",
"73 375 OFFCURVE",
"99 344 OFFCURVE",
"99 295 CURVE SMOOTH",
"99 0 LINE",
"166 0 LINE",
"166 295 LINE SMOOTH",
"166 347 OFFCURVE",
"146 387 OFFCURVE",
"108 411 CURVE",
"127 469 OFFCURVE",
"183 523 OFFCURVE",
"244 523 CURVE SMOOTH",
"337 523 LINE SMOOTH",
"399 523 OFFCURVE",
"438 480 OFFCURVE",
"438 426 CURVE SMOOTH"
);
}
);
width = 580;
}
);
note = uni0E01;
unicode = 0E01;
},
{
glyphname = "thoThung-thai";
lastChange = "2018-01-22 08:17:34 +0000";
layers = (
{
background = {
paths = (
{
closed = 1;
nodes = (
"167 36 OFFCURVE",
"146 57 OFFCURVE",
"146 88 CURVE SMOOTH",
"146 119 OFFCURVE",
"167 140 OFFCURVE",
"198 140 CURVE SMOOTH",
"229 140 OFFCURVE",
"249 119 OFFCURVE",
"249 88 CURVE SMOOTH",
"249 57 OFFCURVE",
"229 36 OFFCURVE",
"198 36 CURVE SMOOTH"
);
},
{
closed = 1;
nodes = (
"505 513 OFFCURVE",
"435 584 OFFCURVE",
"346 584 CURVE SMOOTH",
"244 584 LINE SMOOTH",
"140 584 OFFCURVE",
"47 486 OFFCURVE",
"34 383 CURVE",
"73 375 OFFCURVE",
"99 344 OFFCURVE",
"99 295 CURVE SMOOTH",
"99 88 LINE SMOOTH",
"99 29 OFFCURVE",
"139 -10 OFFCURVE",
"198 -10 CURVE SMOOTH",
"257 -10 OFFCURVE",
"297 29 OFFCURVE",
"297 88 CURVE SMOOTH",
"297 146 OFFCURVE",
"257 185 OFFCURVE",
"201 185 CURVE SMOOTH",
"187 185 OFFCURVE",
"175 182 OFFCURVE",
"166 178 CURVE",
"166 295 LINE SMOOTH",
"166 347 OFFCURVE",
"146 387 OFFCURVE",
"108 411 CURVE",
"127 469 OFFCURVE",
"183 523 OFFCURVE",
"244 523 CURVE SMOOTH",
"337 523 LINE SMOOTH",
"399 523 OFFCURVE",
"438 480 OFFCURVE",
"438 426 CURVE SMOOTH",
"438 0 LINE",
"505 0 LINE",
"505 426 LINE SMOOTH"
);
}
);
};
layerId = "0B1DFD06-3317-40CA-B510-4969A0718C16";
paths = (
{
closed = 1;
nodes = (
"169 39 OFFCURVE",
"149 59 OFFCURVE",
"149 88 CURVE SMOOTH",
"149 117 OFFCURVE",
"169 137 OFFCURVE",
"198 137 CURVE SMOOTH",
"227 137 OFFCURVE",
"246 117 OFFCURVE",
"246 88 CURVE SMOOTH",
"246 59 OFFCURVE",
"227 39 OFFCURVE",
"198 39 CURVE SMOOTH"
);
},
{
closed = 1;
nodes = (
"505 513 OFFCURVE",
"435 584 OFFCURVE",
"346 584 CURVE SMOOTH",
"244 584 LINE SMOOTH",
"140 584 OFFCURVE",
"47 486 OFFCURVE",
"34 383 CURVE",
"73 375 OFFCURVE",
"99 344 OFFCURVE",
"99 295 CURVE SMOOTH",
"99 88 LINE SMOOTH",
"99 29 OFFCURVE",
"139 -10 OFFCURVE",
"198 -10 CURVE SMOOTH",
"257 -10 OFFCURVE",
"297 29 OFFCURVE",
"297 88 CURVE SMOOTH",
"297 146 OFFCURVE",
"257 185 OFFCURVE",
"201 185 CURVE SMOOTH",
"187 185 OFFCURVE",
"175 182 OFFCURVE",
"166 178 CURVE",
"166 295 LINE SMOOTH",
"166 347 OFFCURVE",
"146 387 OFFCURVE",
"108 411 CURVE",
"127 469 OFFCURVE",
"183 523 OFFCURVE",
"244 523 CURVE SMOOTH",
"337 523 LINE SMOOTH",
"399 523 OFFCURVE",
"438 480 OFFCURVE",
"438 426 CURVE SMOOTH",
"438 0 LINE",
"505 0 LINE",
"505 426 LINE SMOOTH"
);
}
);
width = 579;
}
);
note = uni0E16;
unicode = 0E16;
},
{
glyphname = "phoSamphao-thai";
lastChange = "2018-01-22 07:38:44 +0000";
layers = (
{
background = {
paths = (
{
closed = 1;
nodes = (
"221 295 LINE SMOOTH",
"221 347 OFFCURVE",
"174 393 OFFCURVE",
"133 411 CURVE",
"150 469 OFFCURVE",
"207 524 OFFCURVE",
"268 524 CURVE SMOOTH",
"359 524 LINE SMOOTH",
"421 524 OFFCURVE",
"457 480 OFFCURVE",
"457 426 CURVE SMOOTH",
"457 0 LINE",
"524 0 LINE",
"524 426 LINE SMOOTH",
"524 513 OFFCURVE",
"457 584 OFFCURVE",
"368 584 CURVE SMOOTH",
"268 584 LINE SMOOTH",
"164 584 OFFCURVE",
"74 486 OFFCURVE",
"61 383 CURVE",
"101 375 OFFCURVE",
"154 344 OFFCURVE",
"154 295 CURVE SMOOTH",
"154 178 LINE",
"145 182 OFFCURVE",
"133 185 OFFCURVE",
"119 185 CURVE SMOOTH",
"63 185 OFFCURVE",
"23 146 OFFCURVE",
"23 88 CURVE SMOOTH",
"23 29 OFFCURVE",
"63 -10 OFFCURVE",
"122 -10 CURVE SMOOTH",
"181 -10 OFFCURVE",
"221 29 OFFCURVE",
"221 88 CURVE SMOOTH"
);
},
{
closed = 1;
nodes = (
"91 36 OFFCURVE",
"71 57 OFFCURVE",
"71 88 CURVE SMOOTH",
"71 119 OFFCURVE",
"91 140 OFFCURVE",
"122 140 CURVE SMOOTH",
"153 140 OFFCURVE",
"174 119 OFFCURVE",
"174 88 CURVE SMOOTH",
"174 57 OFFCURVE",
"153 36 OFFCURVE",
"122 36 CURVE SMOOTH"
);
}
);
};
layerId = "0B1DFD06-3317-40CA-B510-4969A0718C16";
paths = (
{
closed = 1;
nodes = (
"221 295 LINE SMOOTH",
"221 347 OFFCURVE",
"174 393 OFFCURVE",
"133 411 CURVE",
"150 469 OFFCURVE",
"207 524 OFFCURVE",
"268 524 CURVE SMOOTH",
"359 524 LINE SMOOTH",
"421 524 OFFCURVE",
"457 480 OFFCURVE",
"457 426 CURVE SMOOTH",
"457 0 LINE",
"524 0 LINE",
"524 426 LINE SMOOTH",
"524 513 OFFCURVE",
"457 584 OFFCURVE",
"368 584 CURVE SMOOTH",
"268 584 LINE SMOOTH",
"164 584 OFFCURVE",
"74 486 OFFCURVE",
"61 383 CURVE",
"101 375 OFFCURVE",
"154 344 OFFCURVE",
"154 295 CURVE SMOOTH",
"154 178 LINE",
"145 182 OFFCURVE",
"133 185 OFFCURVE",
"119 185 CURVE SMOOTH",
"63 185 OFFCURVE",
"23 146 OFFCURVE",
"23 88 CURVE SMOOTH",
"23 29 OFFCURVE",
"63 -10 OFFCURVE",
"122 -10 CURVE SMOOTH",
"181 -10 OFFCURVE",
"221 29 OFFCURVE",
"221 88 CURVE SMOOTH"
);
},
{
closed = 1;
nodes = (
"93 39 OFFCURVE",
"74 59 OFFCURVE",
"74 88 CURVE SMOOTH",
"74 117 OFFCURVE",
"93 137 OFFCURVE",
"122 137 CURVE SMOOTH",
"151 137 OFFCURVE",
"171 117 OFFCURVE",
"171 88 CURVE SMOOTH",
"171 59 OFFCURVE",
"151 39 OFFCURVE",
"122 39 CURVE SMOOTH"
);
}
);
width = 600;
}
);
note = uni0E20;
unicode = 0E20;
},
{
glyphname = "ru-thai";
lastChange = "2018-01-22 07:39:15 +0000";
layers = (
{
background = {
paths = (
{
closed = 1;
nodes = (
"167 36 OFFCURVE",
"146 57 OFFCURVE",
"146 88 CURVE SMOOTH",
"146 119 OFFCURVE",
"167 140 OFFCURVE",
"198 140 CURVE SMOOTH",
"229 140 OFFCURVE",
"249 119 OFFCURVE",
"249 88 CURVE SMOOTH",
"249 57 OFFCURVE",
"229 36 OFFCURVE",
"198 36 CURVE SMOOTH"
);
},
{
closed = 1;
nodes = (
"507 513 OFFCURVE",
"437 584 OFFCURVE",
"348 584 CURVE SMOOTH",
"244 584 LINE SMOOTH",
"140 584 OFFCURVE",
"47 486 OFFCURVE",
"34 383 CURVE",
"73 375 OFFCURVE",
"99 344 OFFCURVE",
"99 295 CURVE SMOOTH",
"99 88 LINE SMOOTH",
"99 29 OFFCURVE",
"139 -10 OFFCURVE",
"198 -10 CURVE SMOOTH",
"257 -10 OFFCURVE",
"297 29 OFFCURVE",
"297 88 CURVE SMOOTH",
"297 146 OFFCURVE",
"257 185 OFFCURVE",
"201 185 CURVE SMOOTH",
"187 185 OFFCURVE",
"175 182 OFFCURVE",
"166 178 CURVE",
"166 295 LINE SMOOTH",
"166 347 OFFCURVE",
"146 387 OFFCURVE",
"108 411 CURVE",
"127 469 OFFCURVE",
"183 523 OFFCURVE",
"244 523 CURVE SMOOTH",
"339 523 LINE SMOOTH",
"401 523 OFFCURVE",
"440 480 OFFCURVE",
"440 426 CURVE SMOOTH",
"440 -200 LINE",
"507 -200 LINE",
"507 426 LINE SMOOTH"
);
}
);
};
layerId = "0B1DFD06-3317-40CA-B510-4969A0718C16";
paths = (
{
closed = 1;
nodes = (
"169 39 OFFCURVE",
"149 59 OFFCURVE",
"149 88 CURVE SMOOTH",
"149 117 OFFCURVE",
"169 137 OFFCURVE",
"198 137 CURVE SMOOTH",
"227 137 OFFCURVE",
"246 117 OFFCURVE",
"246 88 CURVE SMOOTH",
"246 59 OFFCURVE",
"227 39 OFFCURVE",
"198 39 CURVE SMOOTH"
);
},
{
closed = 1;
nodes = (
"507 513 OFFCURVE",
"437 584 OFFCURVE",
"348 584 CURVE SMOOTH",
"244 584 LINE SMOOTH",
"140 584 OFFCURVE",
"47 486 OFFCURVE",
"34 383 CURVE",
"73 375 OFFCURVE",
"99 344 OFFCURVE",
"99 295 CURVE SMOOTH",
"99 88 LINE SMOOTH",
"99 29 OFFCURVE",
"139 -10 OFFCURVE",
"198 -10 CURVE SMOOTH",
"257 -10 OFFCURVE",
"297 29 OFFCURVE",
"297 88 CURVE SMOOTH",
"297 146 OFFCURVE",
"257 185 OFFCURVE",
"201 185 CURVE SMOOTH",
"187 185 OFFCURVE",
"175 182 OFFCURVE",
"166 178 CURVE",
"166 295 LINE SMOOTH",
"166 347 OFFCURVE",
"146 387 OFFCURVE",
"108 411 CURVE",
"127 469 OFFCURVE",
"183 523 OFFCURVE",
"244 523 CURVE SMOOTH",
"339 523 LINE SMOOTH",
"401 523 OFFCURVE",
"440 480 OFFCURVE",
"440 426 CURVE SMOOTH",
"440 -200 LINE",
"507 -200 LINE",
"507 426 LINE SMOOTH"
);
}
);
width = 578;
}
);
note = "ru-thai";
unicode = 0E24;
},
{
glyphname = "ru-thai.short";
lastChange = "2018-01-22 07:39:18 +0000";
layers = (
{
layerId = "0B1DFD06-3317-40CA-B510-4969A0718C16";
paths = (
{
closed = 1;
nodes = (
"169 39 OFFCURVE",
"149 59 OFFCURVE",
"149 88 CURVE SMOOTH",
"149 117 OFFCURVE",
"169 137 OFFCURVE",
"198 137 CURVE SMOOTH",
"227 137 OFFCURVE",
"246 117 OFFCURVE",
"246 88 CURVE SMOOTH",
"246 59 OFFCURVE",
"227 39 OFFCURVE",
"198 39 CURVE SMOOTH"
);
},
{
closed = 1;
nodes = (
"507 513 OFFCURVE",
"437 584 OFFCURVE",
"348 584 CURVE SMOOTH",
"244 584 LINE SMOOTH",
"140 584 OFFCURVE",
"47 486 OFFCURVE",
"34 383 CURVE",
"73 375 OFFCURVE",
"99 344 OFFCURVE",
"99 295 CURVE SMOOTH",
"99 88 LINE SMOOTH",
"99 29 OFFCURVE",
"139 -10 OFFCURVE",
"198 -10 CURVE SMOOTH",
"257 -10 OFFCURVE",
"297 29 OFFCURVE",
"297 88 CURVE SMOOTH",
"297 146 OFFCURVE",
"257 185 OFFCURVE",
"201 185 CURVE SMOOTH",
"187 185 OFFCURVE",
"175 182 OFFCURVE",
"166 178 CURVE",
"166 295 LINE SMOOTH",
"166 347 OFFCURVE",
"146 387 OFFCURVE",
"108 411 CURVE",
"127 469 OFFCURVE",
"183 523 OFFCURVE",
"244 523 CURVE SMOOTH",
"339 523 LINE SMOOTH",
"401 523 OFFCURVE",
"440 480 OFFCURVE",
"440 426 CURVE SMOOTH",
"440 -100 LINE",
"507 -100 LINE",
"507 426 LINE SMOOTH"
);
}
);
width = 585;
}
);
note = "ru-thai.short";
},
{
glyphname = "lu-thai";
lastChange = "2018-01-22 07:39:37 +0000";
layers = (
{
layerId = "0B1DFD06-3317-40CA-B510-4969A0718C16";
paths = (
{
closed = 1;
nodes = (
"221 295 LINE SMOOTH",
"221 347 OFFCURVE",
"174 393 OFFCURVE",
"133 411 CURVE",
"150 469 OFFCURVE",
"207 524 OFFCURVE",
"268 524 CURVE SMOOTH",
"361 524 LINE SMOOTH",
"423 524 OFFCURVE",
"459 480 OFFCURVE",
"459 426 CURVE SMOOTH",
"459 -200 LINE",
"526 -200 LINE",
"526 426 LINE SMOOTH",
"526 513 OFFCURVE",
"459 584 OFFCURVE",
"370 584 CURVE SMOOTH",
"268 584 LINE SMOOTH",
"164 584 OFFCURVE",
"74 486 OFFCURVE",
"61 383 CURVE",
"101 375 OFFCURVE",
"154 344 OFFCURVE",
"154 295 CURVE SMOOTH",
"154 178 LINE",
"145 182 OFFCURVE",
"133 185 OFFCURVE",
"119 185 CURVE SMOOTH",
"63 185 OFFCURVE",
"23 146 OFFCURVE",
"23 88 CURVE SMOOTH",
"23 29 OFFCURVE",
"63 -10 OFFCURVE",
"122 -10 CURVE SMOOTH",
"181 -10 OFFCURVE",
"221 29 OFFCURVE",
"221 88 CURVE SMOOTH"
);
},
{
closed = 1;
nodes = (
"93 39 OFFCURVE",
"74 59 OFFCURVE",
"74 88 CURVE SMOOTH",
"74 117 OFFCURVE",
"93 137 OFFCURVE",
"122 137 CURVE SMOOTH",
"151 137 OFFCURVE",
"171 117 OFFCURVE",
"171 88 CURVE SMOOTH",
"171 59 OFFCURVE",
"151 39 OFFCURVE",
"122 39 CURVE SMOOTH"
);
}
);
width = 603;
}
);
note = "lu-thai";
unicode = 0E26;
},
{
glyphname = "lu-thai.short";
lastChange = "2018-01-22 07:39:40 +0000";
layers = (
{
background = {
paths = (
{
closed = 1;
nodes = (
"97 34 OFFCURVE",
"75 54 OFFCURVE",
"75 82 CURVE SMOOTH",
"75 110 OFFCURVE",
"97 130 OFFCURVE",
"123 130 CURVE SMOOTH",
"150 130 OFFCURVE",
"172 110 OFFCURVE",
"172 82 CURVE SMOOTH",
"172 54 OFFCURVE",
"150 34 OFFCURVE",
"123 34 CURVE SMOOTH"
);
},
{
closed = 1;
nodes = (
"142 171 OFFCURVE",
"131 173 OFFCURVE",
"120 173 CURVE SMOOTH",
"72 173 OFFCURVE",
"30 135 OFFCURVE",
"30 82 CURVE SMOOTH",
"30 31 OFFCURVE",
"70 -10 OFFCURVE",
"123 -10 CURVE SMOOTH",
"179 -10 OFFCURVE",
"217 30 OFFCURVE",
"217 82 CURVE SMOOTH",
"217 295 LINE SMOOTH",
"217 347 OFFCURVE",
"174 393 OFFCURVE",
"133 411 CURVE",
"150 469 OFFCURVE",
"207 524 OFFCURVE",
"268 524 CURVE SMOOTH",
"359 524 LINE SMOOTH",
"421 524 OFFCURVE",
"457 480 OFFCURVE",
"457 426 CURVE SMOOTH",
"457 -100 LINE",
"524 -100 LINE",
"524 426 LINE SMOOTH",
"524 513 OFFCURVE",
"457 584 OFFCURVE",
"368 584 CURVE SMOOTH",
"268 584 LINE SMOOTH",
"164 584 OFFCURVE",
"74 486 OFFCURVE",
"61 383 CURVE",
"101 375 OFFCURVE",
"150 344 OFFCURVE",
"150 295 CURVE SMOOTH",
"150 167 LINE"
);
}
);
};
layerId = "0B1DFD06-3317-40CA-B510-4969A0718C16";
paths = (
{
closed = 1;
nodes = (
"221 295 LINE SMOOTH",
"221 347 OFFCURVE",
"174 393 OFFCURVE",
"133 411 CURVE",
"150 469 OFFCURVE",
"207 524 OFFCURVE",
"268 524 CURVE SMOOTH",
"361 524 LINE SMOOTH",
"423 524 OFFCURVE",
"459 480 OFFCURVE",
"459 426 CURVE SMOOTH",
"459 -100 LINE",
"526 -100 LINE",
"526 426 LINE SMOOTH",
"526 513 OFFCURVE",
"459 584 OFFCURVE",
"370 584 CURVE SMOOTH",
"268 584 LINE SMOOTH",
"164 584 OFFCURVE",
"74 486 OFFCURVE",
"61 383 CURVE",
"101 375 OFFCURVE",
"154 344 OFFCURVE",
"154 295 CURVE SMOOTH",
"154 178 LINE",
"145 182 OFFCURVE",
"133 185 OFFCURVE",
"119 185 CURVE SMOOTH",
"63 185 OFFCURVE",
"23 146 OFFCURVE",
"23 88 CURVE SMOOTH",
"23 29 OFFCURVE",
"63 -10 OFFCURVE",
"122 -10 CURVE SMOOTH",
"181 -10 OFFCURVE",
"221 29 OFFCURVE",
"221 88 CURVE SMOOTH"
);
},
{
closed = 1;
nodes = (
"93 39 OFFCURVE",
"74 59 OFFCURVE",
"74 88 CURVE SMOOTH",
"74 117 OFFCURVE",
"93 137 OFFCURVE",
"122 137 CURVE SMOOTH",
"151 137 OFFCURVE",
"171 117 OFFCURVE",
"171 88 CURVE SMOOTH",
"171 59 OFFCURVE",
"151 39 OFFCURVE",
"122 39 CURVE SMOOTH"
);
}
);
width = 628;
}
);
note = "lu-thai.short";
},
{
glyphname = "doChada-thai";
lastChange = "2018-01-22 07:39:43 +0000";
layers = (
{
background = {
paths = (
{
closed = 0;
nodes = (
"282 -171 LINE",
"394 -244 LINE",
"477 -218 OFFCURVE",
"526 -160 OFFCURVE",
"526 -87 CURVE",
"526 426 LINE SMOOTH",
"526 513 OFFCURVE",
"459 584 OFFCURVE",
"370 584 CURVE SMOOTH",
"268 584 LINE SMOOTH",
"164 584 OFFCURVE",
"74 486 OFFCURVE",
"61 383 CURVE",
"101 375 OFFCURVE",
"154 344 OFFCURVE",
"154 295 CURVE SMOOTH",
"154 178 LINE",
"145 182 OFFCURVE",
"133 185 OFFCURVE",
"119 185 CURVE SMOOTH",
"63 185 OFFCURVE",
"23 146 OFFCURVE",
"23 88 CURVE SMOOTH",
"23 29 OFFCURVE",
"63 -10 OFFCURVE",
"122 -10 CURVE SMOOTH",
"181 -10 OFFCURVE",
"221 29 OFFCURVE",
"221 88 CURVE SMOOTH",
"221 295 LINE SMOOTH",
"221 347 OFFCURVE",
"174 393 OFFCURVE",
"133 411 CURVE",
"150 469 OFFCURVE",
"207 524 OFFCURVE",
"268 524 CURVE SMOOTH",
"361 524 LINE SMOOTH",
"423 524 OFFCURVE",
"459 480 OFFCURVE",
"459 426 CURVE SMOOTH",
"459 -87 LINE SMOOTH",
"459 -132 OFFCURVE",
"435 -166 OFFCURVE",
"394 -179 CURVE",
"271 -95 LINE SMOOTH",
"245 -77 OFFCURVE",
"220 -64 OFFCURVE",
"194 -64 CURVE SMOOTH",
"138 -64 OFFCURVE",
"100 -102 OFFCURVE",
"100 -158 CURVE SMOOTH",
"100 -213 OFFCURVE",
"138 -250 OFFCURVE",
"194 -250 CURVE SMOOTH",
"236 -250 OFFCURVE",
"270 -225 OFFCURVE",
"280 -187 CURVE"
);
},
{
closed = 1;
nodes = (
"91 36 OFFCURVE",
"71 57 OFFCURVE",
"71 88 CURVE SMOOTH",
"71 119 OFFCURVE",
"91 140 OFFCURVE",
"122 140 CURVE SMOOTH",
"153 140 OFFCURVE",
"174 119 OFFCURVE",
"174 88 CURVE SMOOTH",
"174 57 OFFCURVE",
"153 36 OFFCURVE",
"122 36 CURVE SMOOTH"
);
},
{
closed = 1;
nodes = (
"142 -126 OFFCURVE",
"163 -105 OFFCURVE",
"194 -105 CURVE SMOOTH",
"225 -105 OFFCURVE",
"245 -126 OFFCURVE",
"245 -158 CURVE SMOOTH",
"245 -189 OFFCURVE",
"225 -209 OFFCURVE",
"194 -209 CURVE SMOOTH",
"163 -209 OFFCURVE",
"142 -189 OFFCURVE",
"142 -158 CURVE SMOOTH"
);
}
);
};
layerId = "0B1DFD06-3317-40CA-B510-4969A0718C16";
paths = (
{
closed = 1;
nodes = (
"404 -244 LINE",
"488 -218 OFFCURVE",
"526 -169 OFFCURVE",
"526 -87 CURVE SMOOTH",
"526 426 LINE SMOOTH",
"526 513 OFFCURVE",
"459 584 OFFCURVE",
"370 584 CURVE SMOOTH",
"268 584 LINE SMOOTH",
"164 584 OFFCURVE",
"74 486 OFFCURVE",
"61 383 CURVE",
"101 375 OFFCURVE",
"154 344 OFFCURVE",
"154 295 CURVE SMOOTH",
"154 178 LINE",
"145 182 OFFCURVE",
"133 185 OFFCURVE",
"119 185 CURVE SMOOTH",
"63 185 OFFCURVE",
"23 146 OFFCURVE",
"23 88 CURVE SMOOTH",
"23 29 OFFCURVE",
"63 -10 OFFCURVE",
"122 -10 CURVE SMOOTH",
"181 -10 OFFCURVE",
"221 29 OFFCURVE",
"221 88 CURVE SMOOTH",
"221 295 LINE SMOOTH",
"221 347 OFFCURVE",
"174 393 OFFCURVE",
"133 411 CURVE",
"150 469 OFFCURVE",
"207 524 OFFCURVE",
"268 524 CURVE SMOOTH",
"361 524 LINE SMOOTH",
"423 524 OFFCURVE",
"459 480 OFFCURVE",
"459 426 CURVE SMOOTH",
"459 -87 LINE SMOOTH",
"459 -138 OFFCURVE",
"442 -167 OFFCURVE",
"404 -179 CURVE",
"273 -94 LINE SMOOTH",
"245 -76 OFFCURVE",
"225 -64 OFFCURVE",
"194 -64 CURVE SMOOTH",
"138 -64 OFFCURVE",
"100 -102 OFFCURVE",
"100 -158 CURVE SMOOTH",
"100 -213 OFFCURVE",
"138 -250 OFFCURVE",
"194 -250 CURVE SMOOTH",
"244 -250 OFFCURVE",
"279 -218 OFFCURVE",
"285 -169 CURVE"
);
},
{
closed = 1;
nodes = (
"93 39 OFFCURVE",
"74 59 OFFCURVE",
"74 88 CURVE SMOOTH",
"74 117 OFFCURVE",
"93 137 OFFCURVE",
"122 137 CURVE SMOOTH",
"151 137 OFFCURVE",
"171 117 OFFCURVE",
"171 88 CURVE SMOOTH",
"171 59 OFFCURVE",
"151 39 OFFCURVE",
"122 39 CURVE SMOOTH"
);
},
{
closed = 1;
nodes = (
"142 -126 OFFCURVE",
"163 -105 OFFCURVE",
"194 -105 CURVE SMOOTH",
"225 -105 OFFCURVE",
"245 -126 OFFCURVE",
"245 -158 CURVE SMOOTH",
"245 -189 OFFCURVE",
"225 -209 OFFCURVE",
"194 -209 CURVE SMOOTH",
"163 -209 OFFCURVE",
"142 -189 OFFCURVE",
"142 -158 CURVE SMOOTH"
);
}
);
width = 599;
}
);
note = "doChada-thai";
unicode = 0E0E;
},
{
glyphname = "doChada-thai.short";
lastChange = "2018-01-22 07:39:47 +0000";
layers = (
{
background = {
paths = (
{
closed = 1;
nodes = (
"97 44 OFFCURVE",
"75 64 OFFCURVE",
"75 92 CURVE SMOOTH",
"75 120 OFFCURVE",
"97 140 OFFCURVE",
"123 140 CURVE SMOOTH",
"150 140 OFFCURVE",
"172 120 OFFCURVE",
"172 92 CURVE SMOOTH",
"172 64 OFFCURVE",
"150 44 OFFCURVE",
"123 44 CURVE SMOOTH"
);
},
{
closed = 1;
nodes = (
"392 -194 LINE",
"475 -168 OFFCURVE",
"524 -110 OFFCURVE",
"524 -37 CURVE SMOOTH",
"524 426 LINE SMOOTH",
"524 513 OFFCURVE",
"457 584 OFFCURVE",
"368 584 CURVE SMOOTH",
"268 584 LINE SMOOTH",
"164 584 OFFCURVE",
"74 486 OFFCURVE",
"61 383 CURVE",
"101 375 OFFCURVE",
"150 344 OFFCURVE",
"150 295 CURVE SMOOTH",
"150 177 LINE",
"142 181 OFFCURVE",
"131 183 OFFCURVE",
"120 183 CURVE SMOOTH",
"72 183 OFFCURVE",
"30 145 OFFCURVE",
"30 92 CURVE SMOOTH",
"30 41 OFFCURVE",
"70 0 OFFCURVE",
"123 0 CURVE SMOOTH",
"179 0 OFFCURVE",
"217 40 OFFCURVE",
"217 92 CURVE SMOOTH",
"217 295 LINE SMOOTH",
"217 347 OFFCURVE",
"174 393 OFFCURVE",
"133 411 CURVE",
"150 469 OFFCURVE",
"207 524 OFFCURVE",
"268 524 CURVE SMOOTH",
"359 524 LINE SMOOTH",
"421 524 OFFCURVE",
"457 480 OFFCURVE",
"457 426 CURVE SMOOTH",
"457 -37 LINE SMOOTH",
"457 -82 OFFCURVE",
"433 -116 OFFCURVE",
"392 -129 CURVE",
"263 -45 LINE SMOOTH",
"239 -29 OFFCURVE",
"218 -17 OFFCURVE",
"190 -17 CURVE SMOOTH",
"139 -17 OFFCURVE",
"99 -54 OFFCURVE",
"99 -109 CURVE SMOOTH",
"99 -161 OFFCURVE",
"139 -200 OFFCURVE",
"190 -200 CURVE SMOOTH",
"237 -200 OFFCURVE",
"273 -168 OFFCURVE",
"280 -121 CURVE"
);
},
{
closed = 1;
nodes = (
"139 -81 OFFCURVE",
"160 -58 OFFCURVE",
"190 -58 CURVE SMOOTH",
"218 -58 OFFCURVE",
"239 -81 OFFCURVE",
"240 -109 CURVE SMOOTH",
"241 -136 OFFCURVE",
"218 -159 OFFCURVE",
"190 -159 CURVE SMOOTH",
"160 -159 OFFCURVE",
"139 -136 OFFCURVE",
"139 -109 CURVE SMOOTH"
);
}
);
};
layerId = "0B1DFD06-3317-40CA-B510-4969A0718C16";
paths = (
{
closed = 1;
nodes = (
"404 -204 LINE",
"488 -178 OFFCURVE",
"526 -129 OFFCURVE",
"526 -47 CURVE SMOOTH",
"526 426 LINE SMOOTH",
"526 513 OFFCURVE",
"459 584 OFFCURVE",
"370 584 CURVE SMOOTH",
"268 584 LINE SMOOTH",
"164 584 OFFCURVE",
"74 486 OFFCURVE",
"61 383 CURVE",
"101 375 OFFCURVE",
"154 344 OFFCURVE",
"154 295 CURVE SMOOTH",
"154 188 LINE",
"145 192 OFFCURVE",
"133 195 OFFCURVE",
"119 195 CURVE SMOOTH",
"63 195 OFFCURVE",
"23 156 OFFCURVE",
"23 98 CURVE SMOOTH",
"23 39 OFFCURVE",
"63 0 OFFCURVE",
"122 0 CURVE SMOOTH",
"181 0 OFFCURVE",
"221 39 OFFCURVE",
"221 98 CURVE SMOOTH",
"221 295 LINE SMOOTH",
"221 347 OFFCURVE",
"174 393 OFFCURVE",
"133 411 CURVE",
"150 469 OFFCURVE",
"207 524 OFFCURVE",
"268 524 CURVE SMOOTH",
"361 524 LINE SMOOTH",
"423 524 OFFCURVE",
"459 480 OFFCURVE",
"459 426 CURVE SMOOTH",
"459 -47 LINE SMOOTH",
"459 -98 OFFCURVE",
"442 -127 OFFCURVE",
"404 -139 CURVE",
"273 -54 LINE SMOOTH",
"245 -36 OFFCURVE",
"225 -24 OFFCURVE",
"194 -24 CURVE SMOOTH",
"138 -24 OFFCURVE",
"100 -62 OFFCURVE",
"100 -118 CURVE SMOOTH",
"100 -173 OFFCURVE",
"138 -210 OFFCURVE",
"194 -210 CURVE SMOOTH",
"244 -210 OFFCURVE",
"279 -178 OFFCURVE",
"285 -129 CURVE"
);
},
{
closed = 1;
nodes = (
"93 49 OFFCURVE",
"74 69 OFFCURVE",
"74 98 CURVE SMOOTH",
"74 127 OFFCURVE",
"93 147 OFFCURVE",
"122 147 CURVE SMOOTH",
"151 147 OFFCURVE",
"171 127 OFFCURVE",
"171 98 CURVE SMOOTH",
"171 69 OFFCURVE",
"151 49 OFFCURVE",
"122 49 CURVE SMOOTH"
);
},
{
closed = 1;
nodes = (
"142 -86 OFFCURVE",
"163 -65 OFFCURVE",
"194 -65 CURVE SMOOTH",
"225 -65 OFFCURVE",
"245 -86 OFFCURVE",
"245 -118 CURVE SMOOTH",
"245 -149 OFFCURVE",
"225 -169 OFFCURVE",
"194 -169 CURVE SMOOTH",
"163 -169 OFFCURVE",
"142 -149 OFFCURVE",
"142 -118 CURVE SMOOTH"
);
}
);
width = 599;
}
);
note = "doChada-thai.short";
},
